<?xml version="1.0" encoding="utf-8"?>
<!-- Generator: Adobe Illustrator 16.0.0, SVG Export Plug-In . SVG Version: 6.00 Build 0)  -->
<!DOCTYPE svg PUBLIC "-//W3C//DTD SVG 1.1//EN" "http://www.w3.org/Graphics/SVG/1.1/DTD/svg11.dtd">
<svg version="1.1" id="Layer_1" xmlns="http://www.w3.org/2000/svg" xmlns:xlink="http://www.w3.org/1999/xlink" x="0px" y="0px"
	 width="12.899px" height="13.002px" viewBox="0 0 12.899 13.002" enable-background="new 0 0 12.899 13.002" xml:space="preserve">
<g>
	<path fill="#6DC8CD" d="M12.614,6.898c-0.396,0.528-0.476,0.583-1.456,0.583c-0.396,0-1.533-0.055-2.909-0.133
		c0.82,0.82,1.508,1.455,1.72,1.693c1.189,1.164,1.799,1.852,0.502,2.037c-0.635,0.105-0.741,0.08-1.429-0.607
		c-0.265-0.266-0.926-0.98-1.746-1.906c-0.317,2.328-0.661,4.365-0.847,4.42c-0.396,0.131-0.556-0.449-0.556-1.191
		c0-0.344,0-1.826-0.026-3.52c-1.984,1.508-3.863,2.857-4.048,2.752c-0.371-0.186-0.08-0.715,0.45-1.217
		c0.265-0.266,1.402-1.43,2.646-2.699C2.4,6.924,0.072,6.659,0.019,6.474c-0.133-0.396,0.45-0.529,1.19-0.529
		c0.344,0,1.958-0.027,3.757-0.053C3.3,3.935,1.792,2.056,1.872,1.871C2.056,1.5,2.585,1.817,3.088,2.347
		C3.353,2.585,4.518,3.722,5.84,5.02c0-1.085,0-1.958,0-2.355c0-2.117,0.053-3.308,1.403-2.302C7.877,0.865,7.984,0.97,7.984,2.241
		c0,0.344-0.053,1.059-0.159,1.904c0.396-0.37,0.688-0.688,0.848-0.846c1.508-1.508,2.407-2.302,2.619-0.635
		c0.132,0.793,0.106,0.953-0.795,1.826c-0.264,0.29-0.819,0.767-1.534,1.349c0.899-0.026,1.588-0.026,1.826-0.026
		C12.457,5.813,13.409,5.866,12.614,6.898z"/>
</g>
</svg>
