<?xml version="1.0" encoding="UTF-8"?>
<svg width="80px" height="80px" viewBox="0 0 80 80" version="1.1" xmlns="http://www.w3.org/2000/svg" xmlns:xlink="http://www.w3.org/1999/xlink">
    <title>icon-blm</title>
    <g id="----▶-About" stroke="none" stroke-width="1" fill="none" fill-rule="evenodd">
        <g id="Artboard" transform="translate(-205.000000, -207.000000)">
            <rect id="Rectangle" fill="#FFFFFF" x="0" y="0" width="1440" height="383"></rect>
            <g id="col-1" transform="translate(157.000000, 207.000000)" fill="#3CA8B2">
                <path d="M107.66621,16.7023428 C107.36454,16.6496683 107.054868,16.6233345 106.750561,16.6233345 C105.74675,16.6233345 104.801714,16.9077616 103.998214,17.397574 C103.830031,16.7734226 103.555056,16.1756051 103.167993,15.6330846 C102.300389,14.4084864 101.000246,13.59211 99.5105907,13.3339627 C99.1822268,13.2760229 98.8485254,13.2470529 98.5201752,13.2470529 C97.2467546,13.2470529 96.0640925,13.6657854 95.1110602,14.3768601 C94.4116459,12.3806517 92.6630419,10.8031151 90.4072018,10.4107367 C88.1540272,10.0209741 85.9622921,10.9137429 84.6114398,12.5570872 C84.5740634,12.5017834 84.5420314,12.4412074 84.5019829,12.3859036 C83.6343784,11.1613054 82.334236,10.3449291 80.8419152,10.0867818 C79.3495945,9.82605914 77.8466124,10.1578886 76.6052443,11.0137927 C75.3638762,11.8696766 74.5363202,13.1522551 74.2746379,14.6244158 C74.2746379,14.6244158 72.2217059,26.151712 72.2083791,26.283179 L65.9641554,32.4430484 C63.3452815,35.0265435 63.3452815,39.2321391 65.9641554,41.8183309 C65.9641554,41.8183309 74.89375,50.6225747 74.9846452,50.7014549 L74.9846452,68.8701928 C74.9846452,69.4943442 75.4972118,70 76.1272588,70 L103.084848,70 C103.714881,70 104.227461,69.4943577 104.227461,68.8701928 L104.230134,51.5785758 L104.809443,51.0070921 C109.088828,46.7828889 110.762666,40.6650215 109.265014,34.9054185 C109.673469,34.3155025 109.964429,33.6334248 110.097969,32.8907373 L111.92134,22.6909208 C112.417887,19.8861566 110.511782,17.1999824 107.665943,16.7022282 L107.66621,16.7023428 Z M95.1937543,18.2614065 C95.4794043,16.6628353 96.8782534,15.5041054 98.5174416,15.5041054 C98.7149916,15.5041054 98.9152138,15.5225377 99.1100985,15.5567798 C99.9990941,15.7121603 100.77594,16.1993635 101.291172,16.9288908 C101.811748,17.6583641 102.009312,18.5432381 101.85179,19.4228534 L99.8389067,30.6865414 C99.5505846,32.2824834 98.1544077,33.4412133 96.5152195,33.4412133 C96.3176695,33.4412133 96.1174473,33.4227742 95.9225626,33.3885388 C95.033567,33.2331583 94.256721,32.7459484 93.7388236,32.0164279 C93.2209194,31.2869546 93.0206836,30.4020805 93.1782055,29.5224652 L95.1937543,18.2614065 Z M85.6019236,15.6779115 C85.9649916,13.6395662 87.9431914,12.2727139 90.0121155,12.6335403 C92.0783742,12.9917036 93.4639444,14.9431795 93.1008421,16.9815247 L90.8983774,29.2989713 C90.695483,30.4287784 89.9827283,31.3847795 88.9842485,31.9298619 L83.6396817,26.6574959 L85.6019236,15.6779115 Z M76.5281269,15.0142526 C76.6856352,14.1372666 77.1795103,13.3709151 77.9190278,12.8600141 C78.661156,12.3491064 79.560813,12.1515755 80.4471432,12.3069695 C81.3361388,12.46235 82.1129849,12.9495532 82.6308822,13.6790805 C83.1487864,14.4085538 83.3490223,15.2934278 83.1915003,16.1704138 L81.6458043,24.8216165 C79.6542436,23.4126948 77.0567608,23.2072692 74.8863486,24.207996 L76.5281269,15.0142526 Z M103.192528,49.4134356 L102.276879,50.3140857 C102.063309,50.52477 101.943177,50.8118265 101.943177,51.1120567 L101.943177,67.7402717 L77.2730024,67.7429058 L77.2730024,50.1640852 C77.2730024,49.8111874 77.1048191,49.4767488 76.8191691,49.2634352 C76.6216191,49.1159562 67.5820345,40.2225508 67.5820345,40.2225508 C65.8521562,38.5160417 65.8521562,35.742897 67.5820345,34.0363205 L74.5980469,27.1150887 C76.3252599,25.411209 79.1390458,25.411209 80.8689924,27.1150887 C80.8689924,27.1150887 90.1218457,36.2348533 90.356943,36.461381 C91.3046446,37.3673572 92.2817333,38.3022561 92.287064,38.9158362 C92.2897362,39.1844604 92.089514,39.5189192 91.6944071,39.9113448 C88.5202526,43.042619 84.7317016,40.4933593 78.3116334,35.7160643 C77.8097417,35.342098 77.091588,35.4395386 76.7098284,35.9372862 C76.3307409,36.435027 76.4295159,37.1408497 76.9340729,37.5174521 C81.0666586,40.5908134 85.0387769,43.5482815 88.661598,43.5482815 C88.8458008,43.5482815 89.0300036,43.537744 89.211541,43.521941 C90.3594853,46.7085662 90.0124435,50.2665351 88.2291216,53.1979121 C87.9034299,53.7325243 88.079623,54.4251397 88.6215563,54.7464585 C88.8057591,54.8544367 89.0086535,54.9071044 89.2088757,54.9071044 C89.5959728,54.9071044 89.9750603,54.7122231 90.1886298,54.3593253 C92.3030014,50.8856975 92.7274066,46.6796299 91.4059414,42.8927129 C92.0519872,42.5661489 92.6900234,42.1158441 93.3066752,41.5074553 C94.1636184,40.6620888 94.5747652,39.8088342 94.5667691,38.9002287 C94.5534219,37.3411649 93.2853525,36.1270841 91.9425645,34.8419436 C91.7129757,34.6233578 90.6344261,33.5646911 90.6344261,33.5646911 C90.9627899,33.3382038 91.259115,33.0748518 91.5340831,32.793081 C91.6328581,32.9695299 91.7396428,33.1433428 91.8571094,33.3092541 C92.7247139,34.5338523 94.0275217,35.3502287 95.517177,35.608376 C95.8455409,35.6663091 96.1792423,35.6952858 96.5075925,35.6952858 C97.9251469,35.6952858 99.2332853,35.1764765 100.237028,34.3073988 C100.351822,34.53125 100.477291,34.7498358 100.62679,34.9605201 C101.430358,36.0929566 102.634343,36.8487907 104.009183,37.0857684 C104.310853,37.1384361 104.620525,37.1647767 104.924832,37.1647767 C105.771114,37.1647767 106.572017,36.9619939 107.287423,36.6064667 C108.114979,41.2520385 106.614676,46.034336 103.19222,49.413375 L103.192528,49.4134356 Z M109.666381,22.303592 L107.843011,32.5034086 C107.594737,33.8991836 106.372081,34.9130976 104.938467,34.9130976 C104.764939,34.9130976 104.591418,34.8972946 104.420562,34.8683246 C103.641051,34.7340125 102.965625,34.3073785 102.511764,33.6700872 C102.057931,33.0327689 101.887075,32.2584687 102.023227,31.4921172 L103.846597,21.2896039 C104.097543,19.8964582 105.317527,18.8825443 106.753807,18.8825443 C106.927335,18.8825443 107.100855,18.8983473 107.271711,18.9273172 C108.873516,19.2038429 109.949359,20.7207968 109.666354,22.3035246 L109.666381,22.303592 Z" id="icon-blm"></path>
            </g>
        </g>
    </g>
</svg>