<?xml version="1.0" encoding="UTF-8"?>
<svg width="50px" height="50px" viewBox="0 0 50 50" version="1.1" xmlns="http://www.w3.org/2000/svg" xmlns:xlink="http://www.w3.org/1999/xlink">
    <title>icon-spiritual</title>
    <g id="----▶-About" stroke="none" stroke-width="1" fill="none" fill-rule="evenodd">
        <g id="About" transform="translate(-1133.000000, -3919.000000)" fill="#FFFFFF">
            <g id="Block-/-Facts" transform="translate(0.000000, 3767.000000)">
                <g id="1/4-Woo" transform="translate(1027.000000, 152.000000)">
                    <g id="icon-spiritual" transform="translate(106.000000, 0.000000)">
                        <path d="M23.8304154,49.8912255 C17.7525122,49.8912255 11.674091,47.5785766 7.04496012,42.9493422 C-2.19983269,33.7045478 -2.19983269,18.661038 7.04496012,9.41676163 C8.63933492,7.82238682 10.4542629,6.4606858 12.4391381,5.3721123 C12.8276184,5.15966021 13.3091785,5.22845747 13.6228116,5.54206982 C13.9364291,5.85568735 14.0052212,6.33726303 13.790749,6.72574329 C9.17549984,15.1309023 10.6930074,25.7410753 17.4772713,32.5270486 C24.2694603,39.3192375 34.8780794,40.8389723 43.2770227,36.2236714 C43.6634777,36.0091992 44.1470631,36.0779913 44.4586243,36.3895835 C44.7722418,36.7011758 44.8430592,37.1827049 44.6326323,37.5711851 C43.5663317,39.5358593 42.2086709,41.3487672 40.5960634,42.9591474 C35.9767741,47.5804579 29.9024966,49.8912255 23.8308091,49.8912255 L23.8304154,49.8912255 Z M10.5977416,8.9428157 C9.84305397,9.52149591 9.12679996,10.1507303 8.45301979,10.8224904 C-0.0148140474,19.2923961 -0.0148140474,33.0689423 8.45301979,41.538848 C16.9286232,50.0144515 30.7176007,50.0206666 39.1895784,41.5489641 C39.8653786,40.8731638 40.4905729,40.16095 41.0652129,39.4143427 C32.5165752,42.5585984 22.6528022,40.5150368 16.0709106,33.9331451 C9.49523464,27.3595411 7.45131047,17.4957682 10.5980006,8.9428157 L10.5977416,8.9428157 Z" id="Fill-1"></path>
                        <path d="M43.5481198,12.8193308 C42.9977727,12.8193308 42.5526261,12.3741946 42.5526261,11.8238371 C42.5526261,9.41204807 40.5919921,7.44939397 38.180203,7.44939397 C37.629856,7.44939397 37.1847094,7.00425774 37.1847094,6.45390034 C37.1847094,5.90354294 37.6298405,5.45840671 38.180203,5.45840671 C39.3436237,5.45840671 40.4463379,5.00315446 41.284005,4.17357298 C42.0993992,3.35009842 42.5526261,2.25344453 42.5526261,1.09608412 C42.5526261,0.545737077 42.9977624,0.10059049 43.5481198,0.10059049 C44.0984772,0.10059049 44.5436134,0.545721537 44.5436134,1.09608412 C44.5436134,2.26354501 44.9988656,3.3581788 45.8223868,4.17357298 C46.6458614,5.00517974 47.7384751,5.45840671 48.9079561,5.45840671 C49.4583031,5.45840671 49.9034497,5.90353776 49.9034497,6.45390034 C49.9034497,7.00426292 49.4583135,7.44939397 48.9079561,7.44939397 C47.7505957,7.44939397 46.6559619,7.90262095 45.8223868,8.72609551 C45.0009324,9.55770227 44.5436134,10.6583964 44.5436134,11.8238371 C44.5456335,12.3741842 44.0984772,12.8193308 43.5481198,12.8193308 Z M41.5996581,6.45602403 C42.3806589,6.95578577 43.0483787,7.62146483 43.5460997,8.40448565 C43.7929452,8.01600539 44.082306,7.65181809 44.41412,7.31793225 C44.7459443,6.98812804 45.1081011,6.7008184 45.4905211,6.45597224 C45.1060862,6.20710142 44.7439138,5.91572568 44.41412,5.58391174 C44.0843158,5.25613281 43.794986,4.89801098 43.5481198,4.51559101 C43.3053196,4.89598052 43.0180255,5.25411789 42.6922718,5.58391174 C42.356397,5.91573604 41.9881384,6.20708588 41.5996581,6.45597224 L41.5996581,6.45602403 Z" id="Fill-2"></path>
                        <path d="M35.9582513,29.3644463 C35.4079043,29.3644463 34.9627577,28.9193101 34.9627577,28.3689527 C34.9627577,25.9632239 33.0021237,24.0066301 30.5903346,24.0066301 C30.0399876,24.0066301 29.594841,23.5614938 29.594841,23.0111364 C29.594841,22.460779 30.0399772,22.0156428 30.5903346,22.0156428 C31.7577955,22.0156428 32.8584896,21.5563452 33.6900963,20.7247488 C34.5115508,19.9032943 34.9627577,18.8127007 34.9627577,17.6533202 C34.9627577,17.1029732 35.4078939,16.6578266 35.9582513,16.6578266 C36.5086087,16.6578266 36.9537449,17.1029628 36.9537449,17.6533202 C36.9537449,18.8248213 37.4089972,19.9133948 38.2345385,20.7125764 C39.0641251,21.5583238 40.1526468,22.015591 41.3160675,22.015591 C41.8664146,22.015591 42.3115612,22.4607272 42.3115612,23.0110846 C42.3115612,23.561442 41.8664249,24.0065783 41.3160675,24.0065783 C40.156687,24.0065783 39.0660934,24.4598052 38.244639,25.2792396 C37.4110121,26.1047861 36.9537449,27.2013882 36.9537449,28.3688491 C36.9537449,28.9191961 36.5086087,29.3644463 35.9582513,29.3644463 L35.9582513,29.3644463 Z M34.0077696,23.0089091 C34.7907904,23.5086709 35.4585103,24.1743499 35.9582513,24.9553507 C36.2091474,24.5648451 36.5045582,24.1986429 36.8424324,23.8647571 C37.1702113,23.5369781 37.5283332,23.2496633 37.9107531,23.0048172 C37.5242981,22.7539211 37.1621258,22.4585103 36.8323319,22.1206361 C36.5005076,21.7989278 36.2091578,21.4428157 35.9602714,21.0624158 C35.715446,21.4428002 35.428157,21.8009427 35.1003315,22.1287165 C34.7624365,22.4645913 34.3961981,22.7579509 34.0077178,23.0088574 L34.0077696,23.0089091 Z" id="Fill-3"></path>
                        <path d="M22.4324044,19.822335 C21.8820574,19.822335 21.4369108,19.3771988 21.4369108,18.8268414 C21.4369108,16.4211126 19.4762768,14.4624987 17.0644877,14.4624987 C16.5141407,14.4624987 16.0689941,14.0173625 16.0689941,13.4670051 C16.0689941,12.9166477 16.5141303,12.4715114 17.0644877,12.4715114 C18.2238682,12.4715114 19.3245623,12.0122138 20.1682897,11.1765772 C20.9735833,10.3712835 21.4369108,9.24831659 21.4369108,8.09908837 C21.4369108,7.54874132 21.882047,7.10359474 22.4324044,7.10359474 C22.9827618,7.10359474 23.4278981,7.54873096 23.4278981,8.09908837 C23.4278981,9.27664975 23.881125,10.3672433 24.7025795,11.172537 C25.5362064,12.0142443 26.6288201,12.4715114 27.7901689,12.4715114 C28.3405159,12.4715114 28.7856625,12.9166477 28.7856625,13.4670051 C28.7856625,14.0173625 28.3405263,14.4624987 27.7901689,14.4624987 C26.6247281,14.4624987 25.5300943,14.9157257 24.7086398,15.7351601 C23.8810732,16.5627266 23.4258262,17.6593287 23.4258262,18.8268414 C23.4278514,19.3771884 22.9806899,19.822335 22.4323526,19.822335 L22.4324044,19.822335 Z M20.4758624,13.465244 C21.2588832,13.9650057 21.9266031,14.6286647 22.4283642,15.4116855 C22.6752098,15.0232052 22.9686108,14.661038 23.3004247,14.3271522 C23.6302289,13.997348 23.9923858,13.7080182 24.3768259,13.461152 C23.9903709,13.2122812 23.6281985,12.9188853 23.2984046,12.5830312 C22.9686004,12.2592976 22.6792707,11.9031907 22.4324044,11.5207707 C22.187579,11.9011603 21.9002901,12.2592976 21.5724645,12.5850513 C21.2325443,12.9209261 20.866311,13.2142857 20.4758106,13.4651922 L20.4758624,13.465244 Z" id="Fill-4"></path>
                    </g>
                </g>
            </g>
        </g>
    </g>
</svg>