<?xml version="1.0" encoding="UTF-8"?>
<svg width="80px" height="80px" viewBox="0 0 80 80" version="1.1" xmlns="http://www.w3.org/2000/svg" xmlns:xlink="http://www.w3.org/1999/xlink">
    <title>icon-kindness</title>
    <g id="----▶-About" stroke="none" stroke-width="1" fill="none" fill-rule="evenodd">
        <g id="Artboard" transform="translate(-1155.000000, -207.000000)">
            <rect id="Rectangle" fill="#FFFFFF" x="0" y="0" width="1440" height="383"></rect>
            <g id="col-6" transform="translate(1107.000000, 207.000000)">
                <g id="icon-kindness" transform="translate(65.000000, 10.000000)">
                    <path d="M32.29125,35.133 C30.600825,35.130075 29.05395,36.08805 28.2981,37.60275 C27.375225,35.75115 25.2981,34.775625 23.282475,35.250225 C21.26685,35.724825 19.84305,37.523625 19.84305,39.594975 C19.84305,39.817635 19.86063,40.04322 19.8928575,40.26294 C20.3733225,44.792265 25.6174575,49.13694 27.8143575,50.77794 L28.297755,51.1295025 L28.77822,50.77794 C30.975495,49.15194 36.219645,44.79549 36.69972,40.26294 L36.702645,40.26294 C36.7348725,40.0432125 36.7524525,39.8176275 36.7524525,39.594975 C36.7524525,37.1310826 34.7543775,35.133075 32.2905525,35.133075 L32.29125,35.133 Z" id="Fill-1" fill="#3CA8B2"></path>
                    <path d="M45.372,41.757 L45.372,11.385 C45.369075,8.619375 43.124925,6.381075 40.3593,6.384 L39.785085,6.384 C39.05559,6.384 38.33781,6.54513 37.678635,6.85275 L37.678635,5.0979 C37.6727775,2.338125 35.43741,0.10275 32.677635,0.0969 L32.097555,0.0969 L32.1004875,0.0969 C30.5858625,0.0969 29.1502875,0.782445 28.1981625,1.9602 C27.2987625,1.207275 26.1649875,0.7971 24.9931125,0.7971 L24.424755,0.7971 C21.92283,0.802965 19.804605,2.6457 19.450155,5.1213 C18.785115,4.80489 18.05853,4.6379025 17.32323,4.6379025 L16.74315,4.6379025 C13.965825,4.6437675 11.715825,6.8937525 11.7129,9.6710775 L11.7129,30.9673275 C9.249,28.2515025 5.109375,27.8940525 2.2179,30.1469775 L1.94544,30.357915 L1.9425075,30.357915 C0.5391825,31.45359 0.2754825,33.475065 1.3536375,34.89309 L14.2618875,52.86984 C14.2706775,52.87863 14.2794675,52.8903525 14.285325,52.9020675 C14.839035,53.6315625 19.83705,59.9039925 28.092825,59.9039925 L28.5850125,59.9039925 C35.1768375,59.7047775 39.4217625,55.6764675 40.9427625,53.9713425 C43.8783375,50.5875675 45.4573875,46.2373425 45.3724125,41.7575925 L45.372,41.757 Z M42.445275,42.4073925 C42.3720375,45.9464925 41.0595,49.3448925 38.733375,52.0141425 C37.46775,53.4437925 33.9375,56.7953925 28.485375,56.9594925 C21.454125,57.17043 17.138625,51.8207925 16.614375,51.1352925 L3.718125,33.1525425 L3.6858975,33.1056675 C3.5804325,32.9650425 3.60387,32.7658275 3.7415625,32.6544975 L4.0140225,32.44356 C4.8782475,31.76973 5.9769225,31.470885 7.0608975,31.614435 C8.1448725,31.75506 9.1292475,32.32635 9.7913475,33.196485 L13.6936725,37.98066 C14.20344,38.61054 15.1263225,38.70429 15.7561725,38.19453 C16.3831275,37.6847625 16.4798025,36.76188 15.9700425,36.134955 L14.6692425,34.53828 L14.6692425,9.67128 C14.6692425,8.5081875 15.6096675,7.5648375 16.7727675,7.5648375 L17.3528475,7.5648375 C18.4953975,7.5648375 19.4241225,8.493555 19.4241225,9.63903 L19.4241225,27.94953 C19.4241225,28.75518 20.0803725,29.41143 20.8860225,29.41143 C21.6945975,29.41143 22.3508475,28.75518 22.3508475,27.94953 L22.3508475,5.83353 C22.3508475,4.68213 23.2737225,3.741705 24.4250475,3.724155 L25.002195,3.724155 C25.5500475,3.724155 26.08032,3.94095 26.46702,4.3305975 C26.8566675,4.720245 27.076395,5.2476225 27.076395,5.7983475 L27.076395,27.7268475 C27.076395,28.5354225 27.7297125,29.1916725 28.538295,29.1916725 C29.3468775,29.1916725 30.00312,28.5354225 30.00312,27.7268475 L30.00312,5.1300975 C30.00312,3.9699225 30.943545,3.0265725 32.106645,3.0236475 L32.686725,3.0236475 C33.829275,3.02658 34.758,3.9552975 34.758,5.0978475 L34.758,27.9495975 C34.758,28.7552475 35.4113175,29.4114975 36.2199,29.4114975 C37.0284825,29.4114975 37.684725,28.7552475 37.684725,27.9495975 L37.684725,11.417355 C37.684725,10.254255 38.628075,9.310905 39.791175,9.310905 L40.3595325,9.310905 C40.9103175,9.310905 41.4376575,9.5277 41.8272825,9.9173475 C42.21693,10.306995 42.4366575,10.8343725 42.4366575,11.3850975 L42.445275,42.4073925 Z" id="Fill-2" stroke="#3CA8B2" stroke-width="1.5"></path>
                </g>
            </g>
        </g>
    </g>
</svg>