<?xml version="1.0" encoding="UTF-8"?>
<svg width="80px" height="80px" viewBox="0 0 80 80" version="1.1" xmlns="http://www.w3.org/2000/svg" xmlns:xlink="http://www.w3.org/1999/xlink">
    <title>icon-womxn</title>
    <g id="----▶-About" stroke="none" stroke-width="1" fill="none" fill-rule="evenodd">
        <g id="Artboard" transform="translate(-775.000000, -207.000000)">
            <rect id="Rectangle" fill="#FFFFFF" x="0" y="0" width="1440" height="383"></rect>
            <g id="col-4" transform="translate(730.000000, 207.000000)" fill="#3CA8B2">
                <g id="icon-womxn" transform="translate(63.000000, 14.000000)">
                    <path d="M26.7738095,51.9950458 L23.1465619,51.9950458 C22.7693329,51.9950458 22.4114429,51.8185181 22.1841286,51.51867 C21.9544062,51.2188158 21.88186,50.82707 21.9810067,50.4643719 C22.0801533,50.1040676 22.1309338,49.6905624 22.1309338,49.228691 C22.1309338,44.7550814 17.5558005,37.6747862 14.5692671,36.4317386 C14.2162181,36.2842319 13.7277338,36.2116857 13.0748243,36.2116857 C12.3252195,36.2116857 11.4861005,36.3035771 10.5962195,36.4027176 C9.65557667,36.506699 8.68348619,36.6155152 7.75491476,36.6155152 C7.39703095,36.6155152 7.0729719,36.6010048 6.7634481,36.567149 C5.14327667,36.3978767 3.68752429,35.7449919 2.87261,34.8164205 C2.19308143,34.0450252 1.84975762,33.2156252 1.84975762,32.3547157 C1.84975762,31.5953919 2.11092143,30.9546157 2.32371286,30.4419824 C2.44703952,30.1421281 2.57520095,29.83019 2.57520095,29.6536871 C2.57520095,29.6198314 2.57278048,29.5859757 2.53651048,29.5231052 C2.45429476,29.3804333 2.37691381,29.3296529 2.20038619,29.2160019 C1.87393762,29.0056248 1.1968481,28.567921 1.1968481,27.5474829 C1.1968481,27.4797714 1.19926857,27.4120662 1.20652381,27.33952 C1.34436095,25.7459676 2.21247619,25.1245057 2.6767619,24.7883629 C2.74447333,24.7400029 2.83635857,24.6747119 2.86295905,24.6481114 C3.30306476,24.1451352 4.0647781,24.0991895 4.56775429,24.5392952 C5.06831,24.979401 5.11667619,25.7459429 4.67657048,26.248919 C4.48069762,26.4738067 4.26306524,26.6285686 4.08654381,26.7543157 C3.83022095,26.9380986 3.71414952,27.0227286 3.65369333,27.2766371 C3.93419619,27.4652548 4.31867429,27.7699438 4.63544095,28.3236943 C4.87241857,28.73962 4.99091048,29.1845419 4.99091048,29.6512419 C4.99091048,30.3041514 4.7611881,30.8651324 4.55806,31.3560371 C4.40813286,31.7211762 4.26546095,32.0669514 4.26546095,32.3499181 C4.26546095,32.51677 4.30898619,32.785189 4.68622143,33.21318 C5.01267,33.5855743 5.88079762,34.0377514 7.01247857,34.1562371 C7.2349519,34.1780029 7.48401952,34.1900929 7.75484048,34.1900929 C8.55044048,34.1900929 9.45480714,34.0909462 10.3302024,33.9918057 C11.2442881,33.8902448 12.1921738,33.7862633 13.0748119,33.7862633 C14.0541452,33.7862633 14.847331,33.9192595 15.5002405,34.1925133 C19.6425357,35.9166848 24.5488595,44.0632276 24.5488595,49.2211324 C24.5488595,49.3396243 24.546439,49.4556957 24.5416043,49.5693467 L26.1351567,49.5693467 C27.46029,47.5574419 28.1059567,45.5673276 28.1059567,43.5021848 C28.1059567,41.1468943 27.2716662,38.6538038 25.4822471,35.6551371 C25.1388676,35.0820352 25.3274852,34.339661 25.9005871,33.9962752 C26.473689,33.6528957 27.2160633,33.8415133 27.559449,34.4146152 C29.5834252,37.8048914 30.52413,40.6923771 30.52413,43.5022343 C30.52413,46.2613295 29.617349,48.8729676 27.7553157,51.4823765 C27.5304281,51.8064108 27.1628686,51.9950458 26.7735681,51.9950458 L26.7738095,51.9950458 Z M23.122419,31.2569524 C22.7548595,31.2569524 22.3921286,31.0901005 22.1551571,30.7733214 C21.4853476,29.8834405 20.7574714,28.9645262 20.0538,28.0746452 C18.939019,26.6673024 17.7855476,25.2091357 16.7626952,23.7413119 C14.0350476,19.8215024 12.4704667,14.4723119 12.4704667,9.06555 C12.4704667,7.38248333 12.6252286,5.74058333 12.9299176,4.19055 C12.9710286,3.98258714 13.0048781,3.80122476 13.0314786,3.63921381 C12.1512548,4.58709952 11.3919929,5.88326143 10.8092214,6.8747281 L10.7028195,7.05609048 C10.1442281,8.00886667 9.83955762,9.04137619 9.51790048,10.1368429 C9.02459381,11.815019 8.51436238,13.5512619 7.02963857,14.8788714 C5.98741,15.8122714 4.92103857,16.5981524 3.68046714,17.3574762 C3.59099619,17.4130914 3.47975952,17.4759681 3.35885333,17.5436733 C3.18474619,17.64282 2.82927667,17.8459419 2.62132,17.9982895 C2.67210048,18.1337062 2.78575762,18.3199033 2.8969881,18.4504852 C2.93809905,18.4746652 2.99129381,18.50368 3.03482524,18.5302867 C3.67566333,18.8954257 5.00803952,19.6547248 5.00803952,21.0282676 C5.00803952,21.4973881 4.84844286,21.9495962 4.52924333,22.3703629 C4.28017571,22.6968114 3.82798619,23.1078962 3.59342905,23.2820343 C3.37579667,23.4440514 3.32743048,23.5383571 3.32743048,23.5383571 C3.03483143,24.1380595 2.31182095,24.3895476 1.71208762,24.0969486 C1.11238524,23.80677 0.860897143,23.0861676 1.15107571,22.4864343 C1.35178333,22.0705086 1.68790762,21.6860057 2.15219952,21.3402057 C2.22716,21.2845843 2.37225238,21.1515881 2.48348905,21.0403514 C2.29003667,20.8855895 1.98051286,20.7090619 1.84023667,20.6292667 C1.60325905,20.49385 1.4170619,20.3874543 1.25262429,20.2254371 C1.13413238,20.1117862 0.174119524,19.1203133 0.174119524,17.8846943 C0.174119524,17.5509905 0.244245238,17.2317848 0.384496667,16.9416371 C0.67951,16.3201752 1.33485857,15.91148 2.16184429,15.4399514 C2.26099095,15.38433 2.3504619,15.3335495 2.4230081,15.2900243 C3.53537476,14.6104957 4.48808905,13.9068243 5.41907476,13.0725957 C6.38875095,12.2045052 6.76358429,10.9301338 7.19883667,9.45259095 C7.53254048,8.32091 7.90733667,7.03929571 8.61831286,5.8301719 L8.72471476,5.65123 C9.90963381,3.6296681 11.7014671,0.577949048 14.4460767,0.0290395238 C14.8620024,-0.0531761905 15.2900243,0.0870752381 15.5777576,0.40143381 C15.8631014,0.715792381 15.9646624,1.15592905 15.8437562,1.5621481 C15.6551386,2.19326714 15.633379,2.40126714 15.5874333,2.81472905 C15.5463224,3.18712333 15.4931276,3.69978143 15.3020895,4.65980048 C15.0264214,6.05748619 14.8861638,7.54221 14.8861638,9.06810048 C14.8861638,13.9938624 16.2935067,18.8397671 18.7455543,22.3633862 C19.7248876,23.7683148 20.8541543,25.1974481 21.9472067,26.5758195 C22.6605352,27.4753576 23.3981305,28.4063433 24.08484,29.3228433 C24.4862552,29.8572548 24.377439,30.6141148 23.8454419,31.0155671 C23.6278095,31.1775843 23.373901,31.2573857 23.1223943,31.2573857 L23.122419,31.2569524 Z" id="Fill-1"></path>
                    <path d="M34.0278095,51.9950458 C33.8150119,51.9950458 33.5973795,51.93701 33.401519,51.8185181 C32.8308314,51.4727243 32.6495,50.7279438 32.995269,50.1572438 C34.3276452,47.9663724 34.9733119,45.7948771 34.9733119,43.5216724 C34.9733119,39.0432343 32.3931214,34.7633867 29.6049929,30.802101 C28.7658738,29.609939 27.8107452,28.3742581 26.8870024,27.1820962 C25.7722214,25.7384771 24.61875,24.2488629 23.5958976,22.7447629 C21.24785,19.289239 19.6687833,13.2343343 19.6687833,7.67962 C19.6687833,4.89873429 20.0677781,2.49750429 20.824669,0.734524762 C21.0882471,0.120311905 21.7991738,-0.162599048 22.4109786,0.0985771429 C23.0251914,0.362155238 23.3081024,1.0730819 23.0469262,1.68488667 C22.4182214,3.15029619 22.0869071,5.22020571 22.0869071,7.6770819 C22.0869071,12.7866329 23.4966643,18.2949867 25.595669,21.3834152 C26.5750024,22.82462 27.7067452,24.285201 28.7997357,25.6998486 C29.7379643,26.913739 30.7100548,28.1712105 31.5806214,29.4068914 C34.5984786,33.6918771 37.3914357,38.3663676 37.3914357,43.51932 C37.3914357,46.2107533 36.607969,48.8658486 35.06035,51.4096991 C34.8330419,51.7893486 34.4340595,51.9950458 34.0277786,51.9950458 L34.0278095,51.9950458 Z" id="Fill-2"></path>
                    <path d="M40.0734286,51.9951009 C39.8557962,51.9951009 39.6333229,51.93701 39.4350667,51.8112629 C38.86922,51.4582139 38.695119,50.7134457 39.0481619,50.14516 C40.4119857,47.9542886 41.0745524,45.7900362 41.0745524,43.5269219 C41.0745524,39.1162076 38.4411857,34.87016 35.8658238,31.3007314 C35.0267048,30.1376029 34.0715762,28.9309552 33.1502476,27.7654124 C32.0354667,26.3556552 30.8819952,24.8999029 29.8591429,23.432079 C27.129019,19.5146838 25.5645,14.163079 25.5645,8.75384095 C25.5645,7.07077429 25.7192619,5.42887429 26.023951,3.87884095 C26.2972048,2.48598381 26.3842552,2.20066476 26.5583624,1.69527429 C26.6260738,1.49698714 26.7034548,1.27209952 26.8219405,0.870702857 C27.0105581,0.229864762 27.6852024,-0.135249524 28.3260405,0.0557885714 C28.9668786,0.246826667 29.3319929,0.919050476 29.1409548,1.55988857 C29.0079586,2.00966381 28.9184814,2.27080286 28.8459414,2.47880286 C28.7105248,2.87296286 28.6476543,3.05432524 28.3961662,4.34560286 C28.1229124,5.74328857 27.982661,7.22801238 27.982661,8.75390286 C27.982661,13.6796648 29.3900038,18.5280457 31.8420514,22.0510457 C32.8213848,23.4583886 33.9506514,24.8851076 35.0437038,26.2658933 C35.9843467,27.4532267 36.9540229,28.6791886 37.8270038,29.8883124 C40.6272038,33.7718457 43.490299,38.4293124 43.490299,43.5290267 C43.490299,46.22046 42.6850419,48.8755552 41.0987324,51.4268337 C40.8714243,51.7919728 40.4748562,51.9951009 40.0734657,51.9951009 L40.0734286,51.9951009 Z" id="Fill-3"></path>
                    <path d="M36.4464286,22.7401571 C36.0643586,22.7401571 35.6871048,22.5587329 35.4525476,22.2226086 C33.131119,18.8879848 30.4179571,12.8737514 30.4179571,6.90613238 C30.4179571,4.54359905 30.8604771,2.44707048 31.7334333,0.679132381 C32.0284467,0.07943 32.7538714,-0.164815238 33.3536048,0.130210476 C33.9533071,0.42522381 34.1975524,1.15064857 33.9025267,1.7503819 C33.196441,3.18192952 32.8360933,4.9157581 32.8360933,6.90587238 C32.8360933,11.9694962 35.1478648,17.5528724 37.4378457,20.8418724 C37.8199157,21.3907943 37.684499,22.1428629 37.1355771,22.524939 C36.9276143,22.6700314 36.6858019,22.7401571 36.4463914,22.7401571 L36.4464286,22.7401571 Z" id="Fill-4"></path>
                </g>
            </g>
        </g>
    </g>
</svg>