<?xml version="1.0" encoding="UTF-8"?>
<svg width="80px" height="80px" viewBox="0 0 80 80" version="1.1" xmlns="http://www.w3.org/2000/svg" xmlns:xlink="http://www.w3.org/1999/xlink">
    <title>icon-lgbtq</title>
    <g id="----▶-About" stroke="none" stroke-width="1" fill="none" fill-rule="evenodd">
        <g id="Artboard" transform="translate(-585.000000, -207.000000)">
            <rect id="Rectangle" fill="#FFFFFF" x="0" y="0" width="1440" height="383"></rect>
            <g id="col-3" transform="translate(539.000000, 207.000000)" fill="#3CA8B2">
                <g id="icon-lgbtq" transform="translate(61.000000, 15.000000)">
                    <path d="M49.4909574,0.997340426 C49.2208457,0.853973404 48.8884043,0.872670213 48.6348936,1.04720745 C42.8689362,4.98460106 37.4769149,6.61795213 32.6024468,5.89678191 C29.7246809,5.47290957 27.5471809,4.35093085 25.2428723,3.16034574 C22.371383,1.67885638 19.4003191,0.147526596 15.0428723,0.0685904255 C11.9802128,0.0104095745 8.9093617,0.685718085 5.88382979,2.06534574 L5.88382979,0.897632979 C5.88382979,0.438441489 5.51190426,0.0665159574 5.05271277,0.0665159574 L0.897126596,0.0665159574 C0.437935106,0.0665159574 0.0660095745,0.438441489 0.0660095745,0.897632979 L0.0660095745,49.1024202 C0.0660095745,49.5616117 0.437935106,49.9335372 0.897126596,49.9335372 L5.05271277,49.9335372 C5.51190426,49.9335372 5.88382979,49.5616117 5.88382979,49.1024202 L5.88382979,39.0002926 C8.90702128,37.5042819 11.9715957,36.7604521 15.0114894,36.8185904 C18.9800532,36.889234 21.6519149,38.2668351 24.4801064,39.7253989 C26.8030851,40.9242819 29.2070745,42.1647074 32.3588298,42.6280585 C33.1857979,42.7506489 34.0252128,42.8109043 34.8771277,42.8109043 C39.4731915,42.8109043 44.4058511,41.0322872 49.5712766,37.5042021 C49.7977553,37.3504468 49.9328138,37.0927979 49.9328138,36.8185106 L49.9328138,1.73074468 C49.9328138,1.42323404 49.7624362,1.1406383 49.4902447,0.997287234 L49.4909574,0.997340426 Z M48.2712766,30.5537234 C42.6425532,34.3145213 37.3734043,35.8687234 32.6005319,35.1643617 C31.7797872,35.0438511 31.033883,34.850617 30.3232979,34.6366011 C32.7293617,34.0755904 34.8653723,32.8205904 36.5131915,31.0877181 C40.2324468,30.7594255 44.1780851,29.2904309 48.2712766,26.7097926 L48.2712766,30.5537234 Z M5.88404255,9.9106383 C8.90930851,8.41462766 11.9781915,7.67287234 15.0117021,7.72893617 C18.8514894,7.79750532 21.4776596,9.08989362 24.2037234,10.4944681 C22.6162766,10.9308032 21.1555851,11.6684043 19.8881383,12.6512234 C18.3048404,12.1733298 16.7153723,11.9156915 15.0406383,11.8865957 C11.9758989,11.8263404 8.90925,12.5015957 5.88371809,13.8812766 L5.88404255,9.9106383 Z M5.88393085,15.7287234 C8.90723404,14.2327128 11.9553191,13.488883 15.0117021,13.5470213 C16.1856383,13.5678032 17.313883,13.7132447 18.4276064,13.9750479 C17.3949468,15.0721223 16.5534574,16.3499415 15.9675,17.7649415 C15.6579096,17.7441649 15.3545745,17.7109202 15.0387234,17.7046862 C11.9760638,17.6402766 8.90946809,18.3196862 5.88393085,19.699367 L5.88393085,15.7287234 Z M5.88404255,21.5468085 C8.90930851,20.0507979 11.9925532,19.3090426 15.0095745,19.3651064 C15.1550213,19.3671862 15.2921543,19.3858883 15.4334468,19.392117 C15.1778777,20.3894574 15.0262021,21.4304149 15.0262021,22.5067447 C15.0262021,22.8495798 15.051133,23.1861596 15.0781436,23.5228085 C15.0656755,23.5228085 15.0532128,23.520734 15.0407447,23.520734 C11.9760106,23.4667128 8.9093617,24.1378617 5.88382979,25.5174894 L5.88404255,21.5468085 Z M5.88404255,27.3648936 C8.90723404,25.868883 11.9696809,25.1250532 15.0095745,25.1831915 C15.117617,25.1852713 15.2194309,25.1915053 15.3253989,25.1956596 C15.6703138,26.760234 16.3061436,28.2188511 17.1808777,29.5029468 C16.4806649,29.407367 15.7721543,29.351266 15.0407713,29.3388032 C11.9760372,29.2806223 8.9093883,29.9559309 5.88385638,31.3355585 L5.88404255,27.3648936 Z M16.6882979,22.5070213 C16.6882979,16.5501064 21.5357979,11.702766 27.4925532,11.702766 C33.4493085,11.702766 38.2968085,16.550266 38.2968085,22.5070213 C38.2968085,28.4637766 33.4493085,33.3112766 27.4925532,33.3112766 C21.5357979,33.3112766 16.6882979,28.4637766 16.6882979,22.5070213 Z M48.2707447,24.7323404 C44.6823936,27.1280319 41.2351064,28.626117 37.9856383,29.2162234 C38.8479255,27.8719149 39.4587766,26.3530319 39.7517553,24.7240426 C42.490266,24.0279787 45.3475,22.752234 48.2709043,20.9071277 L48.2707447,24.7323404 Z M48.2707447,18.916383 C45.3971809,20.8362766 42.6005319,22.1909574 39.9367021,22.9514362 C39.9429309,22.8039149 39.9595532,22.6563883 39.9595532,22.5067872 C39.9595532,21.280883 39.7746277,20.0986489 39.4442606,18.9787021 C42.2783617,18.2992872 45.2373457,16.9964681 48.2708564,15.0828511 L48.2707447,18.916383 Z M48.2707447,13.0982979 C45.0044681,15.28 41.8441489,16.7240426 38.856383,17.4076596 C38.2226596,16.0030851 37.3437234,14.7314894 36.2632979,13.6593085 C40.0614894,13.3725745 44.0861702,11.8931915 48.2707447,9.25441489 L48.2707447,13.0982979 Z M15.0117021,1.73074468 C18.980266,1.8013883 21.6521277,3.17898936 24.4803191,4.63755319 C26.8032979,5.83643617 29.2072872,7.0768617 32.3590426,7.54021277 C37.2792553,8.26537234 42.6276596,6.83170213 48.2707447,3.27037234 L48.2707447,7.27425532 C43.2757447,10.6090957 38.5569149,12.2194149 34.25,12.042766 C32.3010106,10.7815426 29.9843085,10.0397872 27.4930851,10.0397872 C27.3330957,10.0397872 27.1793404,10.0584894 27.0214255,10.0647234 L27.0235,10.0605638 C26.4209468,9.76967553 25.8308404,9.46423404 25.240734,9.16088298 C22.3692447,7.67939362 19.3981809,6.14806383 15.040734,6.06912766 C11.976,6.0026383 8.90935106,6.68205319 5.88381915,8.06380851 L5.88381915,3.91444681 C8.90701064,2.4163617 11.9715851,1.67668085 15.0114787,1.73067021 L15.0117021,1.73074468 Z M4.22180851,48.2711729 L1.72845532,48.2711729 L1.72845532,1.72861702 L4.22180851,1.72861702 L4.22180851,48.2711729 Z M32.6005319,40.9823404 C29.722766,40.5584681 27.545266,39.4364894 25.2409574,38.2459096 C22.3694681,36.7644202 19.3984043,35.2330851 15.0409574,35.1541543 C11.9803723,35.100133 8.90957447,35.7733564 5.88404255,37.152984 L5.88404255,33.1823457 C8.90930851,31.6863351 11.9781915,30.9425053 15.0117021,31.0006436 C16.3726596,31.0255745 17.6588298,31.2063457 18.9387234,31.5512819 C20.95,33.4545266 23.5846809,34.6928777 26.5078723,34.923516 C28.0724468,35.6714947 29.977766,36.4589894 32.3610585,36.8101649 C33.1880266,36.9327553 34.0274468,36.9930106 34.8793564,36.9930106 C39.088984,36.9930106 43.5809521,35.4845532 48.2729787,32.5257713 L48.2729787,36.3780053 C42.6421223,40.1367287 37.3751011,41.6888564 32.6001011,40.9823723 L32.6005319,40.9823404 Z" id="Fill-1"></path>
                    <path d="M26.8845745,30.5521277 C27.0404096,30.7225053 27.262734,30.8180851 27.4933511,30.8180851 C27.7239681,30.8180851 27.9463085,30.7225053 28.1021277,30.5521277 L34.5765957,23.5728723 C36.2035106,21.8192021 36.2035106,18.962234 34.5765957,17.206383 C33.7704255,16.3378723 32.6920213,15.8578723 31.538883,15.8578723 C30.387766,15.8578723 29.3094149,16.3378404 28.5011702,17.2084574 L27.4934574,18.2951596 L26.4836702,17.206383 C25.6775,16.3378723 24.5990957,15.8578723 23.4480319,15.8578723 C22.2969149,15.8578723 21.2164894,16.3378404 20.4103191,17.2084574 C18.7834043,18.9621277 18.7834043,21.8190957 20.4103191,23.5749468 L26.8845745,30.5521277 Z M21.627766,18.3388298 C22.1181277,17.8110691 22.7643085,17.5201596 23.4479255,17.5201596 C24.1315426,17.5201596 24.7777128,17.8110532 25.2660106,18.3388298 L26.8846277,20.0841489 C27.2004521,20.4228298 27.7884574,20.4228298 28.1043085,20.0841489 L29.7229255,18.3388298 C30.7036702,17.2832979 32.3825,17.2832979 33.3590426,18.3388298 C34.4083511,19.4691489 34.4083511,21.3121277 33.3590426,22.4424468 L27.493617,28.7653191 L21.6281915,22.4424468 C20.578883,21.3100532 20.578883,19.4691489 21.6281915,18.3388298 L21.627766,18.3388298 Z" id="Fill-2"></path>
                </g>
            </g>
        </g>
    </g>
</svg>