<?xml version="1.0" encoding="UTF-8"?>
<svg width="80px" height="80px" viewBox="0 0 80 80" version="1.1" xmlns="http://www.w3.org/2000/svg" xmlns:xlink="http://www.w3.org/1999/xlink">
    <title>icon-science</title>
    <g id="----▶-About" stroke="none" stroke-width="1" fill="none" fill-rule="evenodd">
        <g id="Artboard" transform="translate(-395.000000, -207.000000)">
            <rect id="Rectangle" fill="#FFFFFF" x="0" y="0" width="1440" height="383"></rect>
            <g id="col-2" transform="translate(348.000000, 207.000000)" fill="#3CA8B2">
                <g id="icon-science" transform="translate(62.000000, 12.000000)">
                    <path d="M32.9929487,31.4153846 C32.9754231,31.868609 32.9528846,32.3142949 32.9278462,32.7600641 C32.8802692,33.6264744 32.8176667,34.4728205 32.7425513,35.3016026 C32.6999872,35.7623397 32.6524103,36.2180769 32.6023269,36.6637821 C32.5021667,37.5727564 32.3844808,38.4541667 32.2567756,39.3055128 C32.9278654,39.5559103 33.581391,39.7837756 34.2149167,39.9916026 C34.4553013,38.4766667 34.648109,36.8966667 34.7908397,35.2715385 C34.8309038,34.8158077 34.8684615,34.3575641 34.9010128,33.896859 L34.9010128,33.8943526 C34.961109,33.0480064 35.0061795,32.1916603 35.0387308,31.32525 C35.0587628,30.8745256 35.0712821,30.4212756 35.0787949,29.9630705 C35.0913141,29.3796346 35.0988269,28.7937115 35.0988269,28.20275 C35.0988269,27.6143077 35.0913141,27.025891 35.0787949,26.4449295 C34.4027051,25.9566474 33.7091154,25.470891 32.9954615,24.9951218 C33.0355256,26.0392885 33.0580641,27.1085192 33.0580641,28.20275 C33.0580641,29.2994808 33.0355256,30.3687115 32.9954615,31.4128782 L32.9954615,31.4153846 L32.9929487,31.4153846 Z" id="Fill-1"></path>
                    <path d="M25.0397436,2.12089744 C27.3759615,2.12089744 29.8775,6.1924359 31.4551282,12.9157692 C31.5377628,13.2663269 31.617891,13.6219231 31.6930064,13.985 C31.8332308,14.6385256 31.9609359,15.3146154 32.0811282,16.0132692 C32.1412244,16.3713397 32.2013205,16.7344231 32.2589103,17.1025 C32.3891154,17.9563462 32.5043013,18.8377564 32.6044615,19.7467308 C33.3481795,20.2024615 34.0768333,20.6657051 34.7904872,21.1364744 C34.6477564,19.5088462 34.4549487,17.9288462 34.2145641,16.4139103 C34.1569744,16.0483269 34.0968782,15.6902564 34.0342756,15.3321795 C33.9115769,14.6460897 33.7813718,13.975 33.638641,13.3164744 C33.5635192,12.9584038 33.480891,12.6028205 33.3982564,12.2548077 C33.1002821,11.0078205 32.76725,9.82339744 32.3991538,8.71666667 C30.516141,3.06512821 27.9721026,0.0801282051 25.0421026,0.0801282051 C22.1124231,0.0801282051 19.5708205,3.06487179 17.6876154,8.71666667 C17.3170256,9.82346154 16.9839615,11.0053205 16.6860128,12.2548077 C17.3245321,12.4576346 17.9730641,12.6779872 18.6290897,12.9158333 C20.2015897,6.19019231 22.7031282,2.12096154 25.0393462,2.12096154 L25.0397436,2.12089744 Z" id="Fill-2"></path>
                    <path d="M17.1551282,23.6525641 C17.2027051,22.7861538 17.2653077,21.9373077 17.3404231,21.1110256 C17.3829936,20.6502885 17.4280641,20.1945513 17.4806474,19.7488462 C17.5808077,18.8423718 17.6984936,17.9584615 17.8261987,17.1071154 C17.155109,16.8567179 16.5015833,16.6288526 15.8680577,16.4210256 C15.6276731,17.9359615 15.4348654,19.5159615 15.2921346,21.1410897 C15.2520705,21.5968205 15.2145128,22.0550641 15.1819551,22.5182692 C15.121859,23.3646154 15.0767885,24.2209615 15.0442372,25.0898718 C15.0267115,25.5405897 15.0141923,25.9938462 15.0041731,26.4520513 C14.9916538,27.0354872 14.984141,27.6214103 14.984141,28.2098718 C14.984141,28.8008205 14.9916538,29.3867308 15.0041731,29.9701923 C15.6802628,30.4584744 16.3738526,30.9442308 17.0875064,31.42 C17.0474423,30.3733333 17.0249103,29.3041026 17.0249103,28.2073718 C17.0249103,27.113141 17.0474423,26.0439103 17.0875064,24.9997436 C17.1075385,24.5415128 17.1275705,24.0932692 17.1551154,23.6525641 L17.1551282,23.6525641 Z" id="Fill-3"></path>
                    <path d="M43.0339744,28.9434487 C42.5356795,29.3943077 42.0223718,29.845 41.4889744,30.2957692 C46.5245513,35.0183333 48.8005128,39.2226923 47.6312821,41.2457692 C47.0278141,42.2949359 45.4528205,42.8333333 43.1591026,42.8333333 C41.0232051,42.8333333 38.2612821,42.3650833 35.0738462,41.4035256 C34.7333013,41.298359 34.3852564,41.1906859 34.0321795,41.0755 C33.3961603,40.8676667 32.7451282,40.6398013 32.0790385,40.3969103 C31.7384936,40.2717115 31.3954487,40.139 31.0473718,40.0037821 C30.2435897,39.6907821 29.4222436,39.3502564 28.5859615,38.9821154 C27.8197436,39.3977821 27.0535256,39.7958974 26.2898077,40.1790385 C27.7696795,40.8701282 29.2345513,41.4936538 30.6667949,42.0394872 C31.0098462,42.1747051 31.3528846,42.2999038 31.6934615,42.4251026 C32.3494872,42.6629808 32.9980769,42.8858397 33.6365385,43.0911923 C33.9871026,43.2038718 34.3326282,43.3115449 34.6757051,43.4142115 C35.9051923,43.7797949 37.0970513,44.0828013 38.2414103,44.3156218 C40.081859,44.6937244 41.7269872,44.8815256 43.1617949,44.8815256 C46.2717949,44.8815256 48.3976923,44.0001154 49.3992949,42.264859 C50.8641667,39.7283205 49.5495385,36.032359 45.5982051,31.5776795 C44.8244872,30.7062692 43.9655769,29.824859 43.0341026,28.9434487 L43.0339744,28.9434487 Z" id="Fill-4"></path>
                    <path d="M38.2634615,27.5064103 C38.8068333,27.0581923 39.3351923,26.6075 39.8384615,26.1567308 C38.6440385,25.1901923 37.3719872,24.2336538 36.0348718,23.2946795 C35.6617756,23.0317564 35.2836538,22.7713397 34.8980769,22.5108974 C34.1944231,22.037641 33.4757692,21.569359 32.7421154,21.1061538 C32.359,20.8657692 31.9733974,20.627891 31.5827564,20.39 C31.0844615,20.0870128 30.5786538,19.7890385 30.0703205,19.4935897 C29.5595,19.1981154 29.0486538,18.9101538 28.5353846,18.6296795 C27.7766667,18.9702244 27.0079487,19.3308333 26.2392308,19.7089103 C27.1657051,20.1971923 28.1021795,20.7130128 29.0487179,21.2589103 C29.9952564,21.8047821 30.9116667,22.3607051 31.798141,22.9190385 C32.1812564,23.1619295 32.556859,23.4048141 32.9299359,23.6476923 C33.6560897,24.1234551 34.3597436,24.6017308 35.0383333,25.08 C35.4164359,25.3454231 35.7870513,25.6133526 36.1476282,25.8787821 C36.8837821,26.4246538 37.5899359,26.9680128 38.2635256,27.5064103 L38.2634615,27.5064103 Z" id="Fill-5"></path>
                    <path d="M11.8192308,28.9038462 C11.275859,29.3520641 10.7475,29.8027564 10.2442308,30.2535256 C11.4386538,31.2200641 12.7082051,32.1766026 14.0453205,33.1155769 C14.4184167,33.3785 14.7990385,33.6389167 15.1821154,33.896859 C15.8857692,34.3726218 16.6044231,34.8408974 17.3380769,35.3016026 C17.7211923,35.5419872 18.1067949,35.7798654 18.4974359,36.0177564 C18.9957308,36.3207436 19.5015385,36.6187179 20.0123718,36.9141667 C20.5231923,37.209641 21.0365385,37.4976026 21.5473077,37.7805769 C22.2960256,37.4450385 23.0622436,37.0844872 23.8459615,36.7013462 C22.9194872,36.2130641 21.9804487,35.6972436 21.0314744,35.1488462 C20.0849359,34.6029744 19.1685256,34.0470513 18.2820513,33.4887179 C17.8989359,33.2483333 17.5233333,33.0054423 17.1502564,32.7625641 C16.4241026,32.2868013 15.7204487,31.8085256 15.041859,31.3277564 C14.6637564,31.0623333 14.290641,30.7944038 13.9300641,30.5264744 C13.1964103,29.9831026 12.4927564,29.4422436 11.8191667,28.9038462 L11.8192308,28.9038462 Z" id="Fill-6"></path>
                    <path d="M35.0737179,15.0038462 C35.9275641,14.7459359 36.7539103,14.5305897 37.5651923,14.3402564 C37.60275,14.4153782 37.6252885,14.493 37.667859,14.5681218 C38.6669615,16.2958782 40.8754872,16.8893397 42.6057436,15.8902372 C43.4896538,15.3794231 44.0706154,14.5531218 44.2984359,13.6366474 C45.9686282,13.7969038 47.1379872,14.3077372 47.6312564,15.1640833 C48.8006154,17.1872885 46.5244615,21.3915192 41.4889487,26.1140833 C41.2285321,26.3619808 40.9606026,26.6073718 40.6851667,26.8552372 C40.1868718,27.3009487 39.6660641,27.7516474 39.1201667,28.2074167 C38.8397179,28.4402885 38.5542628,28.6706603 38.2638205,28.9060064 C37.5902308,29.4443654 36.884141,29.9852372 36.1479231,30.5285705 C36.1228782,31.3999808 36.0853205,32.2613269 36.0352436,33.1152372 C37.372359,32.1787628 38.6444103,31.2197244 39.8388333,30.2531859 C40.1242885,30.0203141 40.4072436,29.7899423 40.6851795,29.5545962 C41.2185321,29.1063782 41.7368462,28.6556859 42.2351795,28.2049167 C42.5081154,27.9570192 42.7735385,27.7116282 43.0339615,27.4662628 C43.9679359,26.5848526 44.8243462,25.7034423 45.6005641,24.8320321 C48.5026795,21.5567756 49.9825513,18.6947244 49.9825513,16.4012628 C49.9825513,15.5724167 49.7897436,14.8186987 49.4016218,14.1451731 C48.5152115,12.6102372 46.749891,11.7513269 44.2082885,11.5685705 C44.1356731,11.3607372 44.0455256,11.1529038 43.9303462,10.9550897 C42.9312436,9.22733333 40.7227179,8.63387179 38.9924615,9.63297436 C37.9707949,10.2239231 37.3573333,11.2405385 37.224641,12.3272692 C36.3932949,12.5225833 35.5494487,12.7379231 34.6755385,12.998359 C34.8182692,13.6493846 34.9509808,14.3179744 35.0736731,15.0040641 L35.0737179,15.0038462 Z" id="Fill-7"></path>
                    <path d="M28.5858974,17.425641 C29.4147436,17.0625577 30.2360256,16.7194872 31.0473077,16.4039744 C30.9321218,15.7078846 30.8044167,15.0292949 30.6666987,14.3657051 C29.234391,14.9140833 27.7695833,15.5350641 26.2897115,16.2261538 L26.2872051,16.2261538 C25.8740449,16.4164615 25.455859,16.6142756 25.0427179,16.8196026 C24.279,17.1901923 23.5127821,17.5808205 22.7465641,17.9864615 C22.3484295,18.1967949 21.9477821,18.412141 21.547141,18.6324872 C21.0363205,18.9129359 20.5254744,19.2033974 20.0122051,19.4963974 C19.5013846,19.7918718 18.9956026,20.0898462 18.4972692,20.3928077 L18.4972692,20.3953077 C18.4121346,21.2241538 18.3395192,22.0655 18.2819231,22.9243462 C19.1658333,22.3659551 20.0823077,21.8125513 21.0313462,21.2642179 C21.9678205,20.7233526 22.909359,20.2050513 23.8458333,19.7142179 C24.2439679,19.5038846 24.6421154,19.2985513 25.0402564,19.0982308 C25.8089744,18.710109 26.5751923,18.3420128 27.3339103,17.9889359 C27.7545833,17.7936218 28.1727564,17.6083269 28.5858974,17.4255321 L28.5858974,17.425641 Z" id="Fill-8"></path>
                    <path d="M23.7955128,40.1820513 C24.2086731,39.9917436 24.626859,39.7939295 25.04,39.5886026 L25.0425,39.5886026 C25.8037179,39.2155064 26.5699359,38.8298846 27.3361538,38.4217436 L27.3386603,38.4217436 C27.7367949,38.2139103 28.1349423,37.9985641 28.5355833,37.7782179 C29.0489038,37.4952628 29.55975,37.2073077 30.0730192,36.9118077 C30.5838397,36.6163333 31.0871218,36.318359 31.5854551,36.0178974 C31.6705897,35.1890513 31.7432051,34.3452051 31.8008013,33.488859 C30.916891,34.04725 30.0004167,34.6006538 29.0513782,35.1489872 C28.1023397,35.694859 27.1633654,36.2132179 26.239391,36.7014872 C25.83875,36.9118205 25.440609,37.1171538 25.0449679,37.3174744 L25.0424679,37.3174744 C24.26625,37.7106026 23.5025321,38.0786923 22.7488141,38.4267692 C22.3306474,38.6220833 21.9124679,38.8098846 21.5018269,38.9901731 C20.6629808,39.3582628 19.8416987,39.6988269 19.0378526,40.0118397 C19.1555385,40.7079295 19.2832436,41.3865192 19.4184615,42.050109 C20.8507692,41.4942179 22.3155705,40.87325 23.7954487,40.1820962 L23.7955128,40.1820513 Z" id="Fill-9"></path>
                    <path d="M2.45128205,41.2487179 C1.28192308,39.2255128 3.55807692,35.0212821 8.59358974,30.2987179 C8.85400641,30.0508205 9.1219359,29.8054295 9.39737179,29.5575641 C9.89566667,29.1118526 10.4164744,28.6611538 10.9623718,28.2078846 C11.2428205,27.9750128 11.5282756,27.742141 11.8187179,27.5092949 C12.4923077,26.9709359 13.1958974,26.4300641 13.9321154,25.8892308 C13.9571538,25.0178205 13.9947179,24.1514744 14.0447949,23.3000641 C12.7076795,24.2365385 11.4356282,25.1930769 10.2437051,26.1596154 C9.95574359,26.3924872 9.67529487,26.622859 9.39735897,26.8582051 C8.86400641,27.3064231 8.34569231,27.7571154 7.84735897,28.2103846 C7.57442308,28.4557756 7.309,28.7011731 7.04857692,28.9490385 C6.11710256,29.8304487 5.25819231,30.711859 4.48197436,31.5832692 C0.530628205,36.0378846 -0.783923077,39.7364744 0.680884615,42.2704487 C1.68248718,44.0082051 3.80838462,44.8871154 6.91838462,44.8871154 C8.35319231,44.8871154 9.99832051,44.6993141 11.8387692,44.3212115 C12.9831282,44.0883397 14.1749872,43.7853526 15.4044744,43.4198013 C15.2592436,42.7637756 15.1265321,42.0926859 15.0063397,41.4065962 C8.39608333,43.4023013 3.62044231,43.272109 2.45121154,41.2488462 L2.45128205,41.2487179 Z" id="Fill-10"></path>
                    <path d="M28.6557692,28.2051282 C28.6557692,30.2008333 27.0382051,31.8183974 25.04,31.8183974 C23.0442949,31.8183974 21.4267308,30.2008333 21.4267308,28.2051282 C21.4267308,26.2094231 23.0442949,24.591859 25.04,24.591859 C27.0382051,24.591859 28.6557692,26.2094231 28.6557692,28.2051282" id="Fill-11"></path>
                    <path d="M32.6897436,46.7371795 C32.9426474,45.9083333 33.1805256,45.0569872 33.3958974,44.1555769 C32.7573782,43.95275 32.1088462,43.7323974 31.4553205,43.4945513 C31.2449872,44.3985256 31.0146154,45.2473718 30.7717308,46.0536538 C30.7016154,46.0486474 30.6340128,46.0336218 30.5638974,46.0336218 C28.5681923,46.0336218 26.9506282,47.6511859 26.9506282,49.646891 C26.9506282,50.6459936 27.3562756,51.5524679 28.0122949,52.2059936 C27.0482564,53.5556731 26.0290897,54.2918295 25.0400513,54.2918295 C22.7038333,54.2918295 20.2022949,50.2202885 18.6272308,43.4969551 C18.5445962,43.1488974 18.4669744,42.7908013 18.3893526,42.4302244 C18.2491282,41.7741987 18.1214231,41.098109 18.0012308,40.3994551 C17.9411346,40.0413846 17.8810385,39.6783013 17.8259487,39.3102244 C17.6957436,38.4588782 17.5805577,37.5774679 17.4803974,36.6684936 C16.7366795,36.2127628 16.0080256,35.7470192 15.2943718,35.27625 C15.4371026,36.9013782 15.6299103,38.4813782 15.8702949,39.9963141 C15.9278846,40.3618974 15.9879808,40.7224679 16.0505833,41.0780449 C16.1732821,41.7641346 16.3034872,42.4377244 16.4462179,43.09625 C16.5213397,43.4543205 16.6014679,43.8099038 16.6840962,44.1579167 C16.9820705,45.4049038 17.315109,46.5893269 17.6856987,47.6960577 C19.5687115,53.3475962 22.11275,56.3325981 25.0401859,56.3325981 C26.7930064,56.3325981 28.4055705,55.2558673 29.8253141,53.1875962 C30.0631923,53.2376795 30.3110897,53.2652179 30.5639679,53.2652179 C32.5596731,53.2652179 34.1772372,51.6476538 34.1772372,49.6519487 C34.1772372,48.4475256 33.5887949,47.395859 32.6898654,46.7372692 L32.6897436,46.7371795 Z" id="Fill-12"></path>
                    <path d="M0.503205128,20.4198718 C-0.495897436,22.1476282 0.0975576923,24.3586538 1.82532051,25.3577564 C2.87198718,25.9612244 4.09397436,25.9762436 5.11807692,25.5130064 C5.72404487,26.1615321 6.3575641,26.8125577 7.04865385,27.4661474 C7.54694872,27.0154295 8.06025641,26.5647372 8.59365385,26.1139679 C7.8925,25.4579423 7.25147436,24.8119167 6.66057692,24.178391 C6.69312821,24.1283077 6.73319231,24.0857436 6.76324359,24.0331603 C7.76234615,22.3054038 7.16889103,20.0943782 5.44112821,19.0952756 C4.59228205,18.6044936 3.63074359,18.5018269 2.74933333,18.7271859 C2.08324359,17.2398141 1.96055128,16.0078269 2.45135897,15.1614808 C3.61821795,13.1382756 8.39584615,13.0055192 15.0090513,15.0037308 C15.3521026,15.1063974 15.697641,15.2165705 16.0507179,15.3317564 C16.6867372,15.5395897 17.3377692,15.7674551 18.003859,16.0103462 C18.3444038,16.1355449 18.6874487,16.2657564 19.0355256,16.4034744 C19.8393077,16.7164744 20.6606538,17.057 21.4995,17.425141 C22.2657179,17.0094744 23.0319359,16.611359 23.7981538,16.2282179 C22.3182821,15.5371282 20.8534103,14.9136026 19.4186667,14.3652692 C19.0756154,14.2350641 18.7350769,14.1048526 18.3945,13.9821538 C17.7384744,13.7442756 17.0898846,13.5214167 16.448859,13.3160641 C16.0982949,13.2033846 15.7527692,13.0957115 15.4121923,12.9930449 C14.1827051,12.6249551 12.9908462,12.3244551 11.8464872,12.0890705 C10.0060385,11.7109679 8.36091026,11.5231667 6.92610256,11.5231667 C3.81610256,11.5231667 1.69020513,12.4045769 0.688602564,14.1398333 C-0.177807692,15.6397051 -0.0651153846,17.5502821 0.986576923,19.7788718 C0.803782051,19.9741859 0.641025641,20.1845192 0.503301282,20.4198974 L0.503205128,20.4198718 Z" id="Fill-13"></path>
                </g>
            </g>
        </g>
    </g>
</svg>