<?xml version="1.0" encoding="UTF-8"?>
<svg width="51px" height="50px" viewBox="0 0 51 50" version="1.1" xmlns="http://www.w3.org/2000/svg" xmlns:xlink="http://www.w3.org/1999/xlink">
    <title>icon-vader</title>
    <g id="----▶-About" stroke="none" stroke-width="1" fill="none" fill-rule="evenodd">
        <g id="About" transform="translate(-546.000000, -3921.000000)" fill="#FFFFFF">
            <g id="Block-/-Facts" transform="translate(0.000000, 3767.000000)">
                <g id="1/4-Star-Wars" transform="translate(442.000000, 154.000000)">
                    <g id="icon-vader" transform="translate(104.000000, 0.000000)">
                        <path d="M34.631,34.920015 C32.00015,34.920015 28.8555,34.545 27.541,33.6856 C27.06053,33.371145 26.92575,32.72465 27.23631,32.24615 C27.550765,31.76568 28.19726,31.6309 28.67576,31.94146 C29.36521,32.39068 31.93161,32.85551 34.86526,32.83601 C35.42971,32.80671 35.91016,33.29109 35.9161153,33.86531 C35.92192,34.43951 35.46098,34.91021 34.88676,34.91611 C34.80473,34.920015 34.720745,34.920015 34.6309,34.920015 L34.631,34.920015 Z" id="Fill-1"></path>
                        <path d="M16.381,34.92 L16.121235,34.92 C15.547035,34.91414 15.086085,34.44539 15.0918799,33.8692 C15.097795,33.2989 15.56264,32.8399 16.130985,32.8399 L16.14075,32.8399 C19.0802,32.86529 21.64075,32.394585 22.33025,31.94535 C22.81072,31.630895 23.4611,31.76566 23.7697,32.25004 C24.084155,32.73051 23.94939,33.37504 23.465015,33.68949 C22.154465,34.54494 19.009915,34.91994 16.381015,34.91994 L16.381,34.92 Z" id="Fill-2"></path>
                        <path d="M27.59,19.26955 L23.42595,19.26955 C22.85175,19.26955 22.3869,18.804655 22.3869,18.23045 L22.3869,15.625 C22.3869,15.0508 22.851745,14.58595 23.42595,14.58595 C24.00015,14.58595 24.465,15.050795 24.465,15.625 L24.465,17.18555 L26.55095,17.18555 L26.55095,2.08605 L24.465,2.08605 L24.465,10.42205 C24.465,10.99625 24.000155,11.4611 23.42595,11.4611 C22.85175,11.4611 22.3869,10.996255 22.3869,10.42205 L22.384945,1.03905 C22.384945,0.46485 22.84979,0 23.425945,0 L27.589995,0 C28.164195,0 28.6290511,0.464845 28.6290511,1.03905 L28.6290511,18.22855 C28.631,18.8047 28.1642,19.26955 27.589995,19.26955 L27.59,19.26955 Z" id="Fill-3"></path>
                        <path d="M28.1095,36.461 L22.9005,36.461 C22.3263,36.461 21.86145,35.996155 21.86145,35.42195 L21.86145,32.68755 C21.86145,30.71685 23.46105,29.17195 25.506,29.17195 C27.5509,29.17195 29.15055,30.71685 29.15055,32.68755 L29.15055,35.42195 C29.15055,35.9903 28.685705,36.461 28.10955,36.461 L28.1095,36.461 Z M23.94545,34.37505 L27.07045,34.37505 L27.07045,32.67975 C27.07045,31.84965 26.41615,31.25005 25.5099,31.25005 C24.6056,31.25005 23.94935,31.84965 23.94935,32.67975 L23.94935,34.37505 L23.94545,34.37505 Z" id="Fill-4"></path>
                        <path d="M16.6505,46.875 C15.9552,46.875 15.3009,46.60547 14.81065,46.1094 C14.320415,45.619165 14.04505,44.96485 14.04505,44.26955 C14.04505,43.57425 14.31458,42.91995 14.81065,42.4297 C15.300885,41.939465 15.9552,41.6641 16.6505,41.6641 C17.3458,41.6641 18.0001,41.93363 18.49035,42.4297 C18.980585,42.919935 19.25595,43.57425 19.25595,44.26955 C19.25595,44.96485 18.98642,45.61915 18.49035,46.1094 C18.000115,46.605495 17.3458,46.875 16.6505,46.875 Z M16.6505,43.75 C16.57042,43.75 16.416125,43.76953 16.28136,43.904295 C16.146595,44.03906 16.127065,44.193355 16.127065,44.273435 C16.127065,44.353515 16.146595,44.50781 16.28136,44.642575 C16.416125,44.77734 16.57042,44.79687 16.6505,44.79687 C16.73058,44.79687 16.884875,44.77734 17.01964,44.642575 C17.154405,44.511715 17.173935,44.35742 17.173935,44.273435 C17.173935,44.193355 17.154405,44.03906 17.01964,43.904295 C16.884875,43.76953 16.73058,43.75 16.6505,43.75 Z" id="Fill-5"></path>
                        <path d="M34.3595,46.875 C33.6642,46.875 33.0099,46.60547 32.51965,46.1094 C32.029415,45.619165 31.75405,44.96485 31.75405,44.26955 C31.75405,43.57425 32.02358,42.91995 32.51965,42.4297 C33.009885,41.939465 33.6642,41.6641 34.3595,41.6641 C35.0548,41.6641 35.7091,41.93363 36.19935,42.4297 C36.689585,42.919935 36.96495,43.57425 36.96495,44.26955 C36.96495,44.96485 36.69542,45.61915 36.19935,46.1094 C35.71107,46.605495 35.0548,46.875 34.3595,46.875 Z M34.3595,43.75 C34.27942,43.75 34.125125,43.76953 33.99036,43.904295 C33.855595,44.03906 33.836065,44.193355 33.836065,44.273435 C33.836065,44.353515 33.855595,44.50781 33.99036,44.642575 C34.125125,44.77734 34.27942,44.79687 34.3595,44.79687 C34.43958,44.79687 34.593875,44.77734 34.72864,44.642575 C34.863405,44.50781 34.882935,44.353515 34.882935,44.273435 C34.882935,44.193355 34.863405,44.03906 34.72864,43.904295 C34.59583,43.76953 34.43958,43.75 34.3595,43.75 Z" id="Fill-6"></path>
                        <path d="M32.795,45.310501 L18.215,45.310501 C17.6408,45.310501 17.17595,44.845655 17.17595,44.27145 C17.17595,43.69725 17.640795,43.2324 18.215,43.2324 L32.801,43.23045 C33.3752,43.23045 33.84005,43.695295 33.84005,44.2695 C33.84005,44.84565 33.369345,45.310501 32.79515,45.310501 L32.795,45.310501 Z" id="Fill-7"></path>
                        <path d="M17.5995,43.840005 C17.40028,43.840005 17.19911,43.78531 17.0194,43.66422 C16.53893,43.34391 16.41395,42.69937 16.734245,42.21892 L22.035245,34.31842 C22.35556,33.83795 23.000095,33.71297 23.480545,34.033265 C23.961015,34.353575 24.085995,34.998115 23.7657,35.478565 L18.4647,43.379065 C18.269385,43.679845 17.9393,43.840005 17.59945,43.840005 L17.5995,43.840005 Z" id="Fill-8"></path>
                        <path d="M33.41,43.84 C33.074065,43.84 32.74595,43.679845 32.54475,43.37906 L27.24375,35.47856 C26.92344,34.99809 27.04844,34.35356 27.528905,34.03326 C28.003515,33.71295 28.653905,33.83795 28.974205,34.318415 L34.275205,42.218915 C34.595515,42.699385 34.470515,43.343915 33.99005,43.664215 C33.81036,43.77945 33.605285,43.84 33.40995,43.84 L33.41,43.84 Z" id="Fill-9"></path>
                        <path d="M25.506,45.310501 C24.9318,45.310501 24.46695,44.845655 24.46695,44.27145 L24.465,35.41395 C24.465,34.83975 24.929845,34.3749 25.50405,34.3749 C26.078245,34.3749 26.5431061,34.839745 26.5431061,35.41395 L26.5431061,44.26945 C26.54505,44.8456 26.08021,45.310501 25.506,45.310501 L25.506,45.310501 Z" id="Fill-10"></path>
                        <path d="M22.381,44.789 C21.8068,44.789 21.34195,44.324155 21.34195,43.74995 L21.34,35.93945 C21.34,35.36525 21.804845,34.9004 22.37905,34.9004 C22.953245,34.9004 23.4181,35.365245 23.4181,35.93945 L23.42005,43.74995 C23.42005,44.32415 22.955205,44.789 22.381,44.789 Z" id="Fill-11"></path>
                        <path d="M28.631,45.310602 C28.0568,45.310602 27.59195,44.845655 27.59195,44.27145 L27.59,35.93945 C27.59,35.36525 28.054845,34.9004 28.62905,34.9004 C29.203245,34.9004 29.6681061,35.365245 29.6681061,35.93945 L29.6681061,44.27545 C29.67005,44.84575 29.20521,45.310602 28.631,45.310602 L28.631,45.310602 Z" id="Fill-12"></path>
                        <path d="M31.756,45.310501 C31.1818,45.310501 30.71695,44.845655 30.71695,44.27145 L30.71695,40.6269 C30.71695,40.0527 31.181795,39.58785 31.756,39.58785 C32.3302,39.58785 32.79505,40.052695 32.79505,40.6269 L32.79505,44.27145 C32.79505,44.84565 32.330205,45.310501 31.756,45.310501 Z" id="Fill-13"></path>
                        <path d="M19.256,45.310501 C18.6818,45.310501 18.21695,44.845655 18.21695,44.27145 L18.21695,40.6269 C18.21695,40.0527 18.681795,39.58785 19.256,39.58785 C19.8302,39.58785 20.29505,40.052695 20.29505,40.6269 L20.29505,44.27145 C20.29505,44.84565 19.830205,45.310501 19.256,45.310501 Z" id="Fill-14"></path>
                        <path d="M16.4295,30.6955 C14.0701,30.6955 11.78495,30.27558 10.789,29.2658 C10.0937,28.5607 9.76945,27.6408 9.85345,26.6115 C10.007745,24.69745 11.54875,22.7658 13.00385,21.70135 C15.47455,19.89665 21.10935,19.6623 23.08985,21.841975 C23.83985,22.666175 23.9043,24.556825 23.9004,25.326375 C23.990245,28.675975 23.166,29.226775 22.89455,29.400575 C21.7051,30.189625 19.01955,30.6955 16.42955,30.6955 L16.4295,30.6955 Z M18.3299,22.346 C16.8143,22.346 15.1756,22.69561 14.2342,23.38115 C12.9842,24.2952 12.0135,25.721 11.9295,26.7757 C11.894345,27.20539 12.00372,27.53155 12.269345,27.8011 C13.339645,28.88705 19.698845,28.8167 21.614845,27.740555 C21.74961,27.359695 21.839455,26.285455 21.814065,25.340155 C21.819925,24.459305 21.683205,23.474905 21.52891,23.221005 C20.98006,22.635055 19.70471,22.346 18.32971,22.346 L18.3299,22.346 Z" id="Fill-15"></path>
                        <path d="M34.551,30.679515 C34.390845,30.679515 34.240455,30.679515 34.10178,30.67364 C32.03733,30.62872 29.36153,30.27325 28.04128,29.39824 C27.77175,29.21855 26.94558,28.67364 27.03543,25.28299 C27.02957,24.54274 27.095975,22.65799 27.84598,21.83379 C29.82643,19.65409 35.45548,19.88459 37.93198,21.693165 C39.38708,22.757615 40.92613,24.687315 41.08238,26.603315 C41.16832,27.638465 40.842145,28.552515 40.14683,29.257615 C38.96128,30.464665 36.29528,30.679515 34.55133,30.679515 L34.551,30.679515 Z M29.3145,27.74395 C31.22855,28.81815 37.59,28.8885 38.66,27.804495 C38.925625,27.534965 39.035,27.208795 38.999845,26.779095 C38.913905,25.724395 37.945145,24.294695 36.695145,23.384545 C34.906095,22.073995 30.560145,21.989995 29.394145,23.23025 C29.23985,23.48611 29.105085,24.4861 29.10899,25.3162 C29.08946,26.28495 29.18516,27.36505 29.31407,27.74395 L29.3145,27.74395 Z" id="Fill-16"></path>
                        <path d="M35.465,44.211015 C35.28531,44.211015 35.10953,44.166075 34.94545,44.070375 C34.45131,43.781315 34.2814,43.144575 34.56459,42.644575 L38.58019,35.718575 C38.86925,35.224435 39.50599,35.054525 40.00599,35.337715 C40.50013,35.626775 40.67004,36.263515 40.38685,36.763515 L36.37125,43.689515 C36.17008,44.019595 35.82045,44.211015 35.465,44.211015 L35.465,44.211015 Z" id="Fill-17"></path>
                        <path d="M14.5195,11.164 C14.26364,11.164 14.01365,11.074155 13.8144,10.88861 C13.39448,10.497985 13.36518,9.83781 13.753855,9.41791 C16.183555,6.78706 19.564355,5.04291 23.269355,4.50776 C23.839655,4.42768 24.368955,4.822215 24.449055,5.38861 C24.529135,5.95891 24.1346,6.48821 23.568205,6.56831 C20.333805,7.033155 17.392205,8.54876 15.283205,10.82806 C15.08008,11.050715 14.800785,11.164 14.519555,11.164 L14.5195,11.164 Z" id="Fill-18"></path>
                        <path d="M11.8945,15.2245 C11.759735,15.2245 11.61911,15.19911 11.490205,15.13856 C10.960905,14.91395 10.714805,14.30261 10.935505,13.77331 C11.15621,13.24791 11.410115,12.73426 11.691355,12.23816 C11.97651,11.73816 12.611255,11.55846 13.111255,11.84363 C13.611255,12.1288 13.787055,12.76353 13.505785,13.26353 C13.26555,13.68931 13.044845,14.13268 12.855385,14.58383 C12.68937,14.98422 12.304585,15.22443 11.894435,15.22443 L11.8945,15.2245 Z" id="Fill-19"></path>
                        <path d="M15.545,44.211 C15.185625,44.211 14.83405,44.025455 14.6446,43.69145 L10.629,36.76545 C10.33994,36.26545 10.50986,35.6307 11.00986,35.33965 C11.504,35.050585 12.14461,35.22051 12.43566,35.72051 L16.44931,42.64451 C16.73837,43.14451 16.56845,43.77926 16.06845,44.07031 C15.90439,44.160155 15.7247,44.211 15.545,44.211 L15.545,44.211 Z" id="Fill-20"></path>
                        <path d="M40.1405,44.25 C39.63075,44.25 39.17955,43.875 39.1112,43.3496 C39.03112,42.7793 39.43151,42.2539 40.0018,42.1738 C43.53695,41.683565 48.0723,40.04295 48.5818,39.77925 C49.09155,39.513625 49.7224,39.70894 49.9861,40.22456 C50.251725,40.73431 50.050555,41.36516 49.54079,41.62886 C48.70094,42.064405 43.95079,43.73431 40.28079,44.23826 C40.233915,44.24412 40.185085,44.25 40.140165,44.25 L40.1405,44.25 Z" id="Fill-21"></path>
                        <path d="M11.039,44.250025 C10.98822,44.250025 10.943295,44.24414 10.89447,44.240235 C7.13862,43.720685 2.2244695,41.980485 1.46847,41.589835 C0.9587199,41.32421 0.7575199,40.695285 1.02316,40.185535 C1.288785,39.675785 1.91771,39.474585 2.42746,39.740225 C2.92746,39.99999 7.62646,41.685525 11.17746,42.175775 C11.74776,42.255855 12.14816,42.781225 12.06806,43.351575 C11.9997,43.869175 11.55046,44.250025 11.03876,44.250025 L11.039,44.250025 Z" id="Fill-22"></path>
                        <path d="M43.7345,24.4805 C43.33997,24.4805 42.96495,24.25589 42.7892,23.87505 C42.61928,23.515675 38.65835,15.34955 27.9437,19.211 C27.40465,19.40631 26.8031,19.12506 26.60775,18.586 C26.4124,18.04694 26.69369,17.4454 27.23275,17.25005 C39.79325,12.72465 44.63325,22.90055 44.67825,23.00605 C44.918485,23.53145 44.688015,24.14665 44.1685,24.3869 C44.02983,24.4494 43.88139,24.48065 43.734905,24.48065 L43.7345,24.4805 Z" id="Fill-23"></path>
                        <path d="M7.2755,24.4805 C7.13097,24.4805 6.98058,24.4512 6.839955,24.384795 C6.314555,24.14456 6.089955,23.525395 6.330205,23.003945 C6.380985,22.898475 11.214955,12.724445 23.775705,17.247945 C24.314755,17.443255 24.596005,18.036995 24.400705,18.583895 C24.205395,19.122945 23.605805,19.404195 23.064755,19.208895 C12.285255,15.324145 8.379255,23.519445 8.219255,23.872945 C8.051285,24.255755 7.670405,24.480345 7.275905,24.480345 L7.2755,24.4805 Z" id="Fill-24"></path>
                        <path d="M25.506,50.0003162 C19.33,50.0003162 7.496,49.2793 2.307001,46.5801 C0.89685105,45.8457 -0.423449,44.0098 1.277701,39.4296 L6.24255,23.2851 L6.24255,20.3144 C6.24255,10.5194 13.58255,2.2889 23.31305,1.1699 C23.88335,1.105445 24.4029,1.515605 24.46735,2.08395 C24.531805,2.65425 24.121645,3.1738 23.5533,3.23825 C14.8598,4.23435 8.3208,11.57425 8.3208,20.31075 L8.3208,23.59005 L3.2348005,40.12505 C2.8051105,41.27935 1.9457505,44.04495 3.2640975,44.7305 C8.0942,47.246099 19.514095,47.916049 25.504095,47.916049 C31.488595,47.916049 42.908595,47.246149 47.7386,44.7305 C49.05305,44.04495 48.19368,41.2813 47.76399,40.12505 L47.74446,40.07036 L42.67046,23.58986 L42.69585,20.83986 L42.676315,20.349625 C42.676315,11.570125 36.141315,4.230625 27.477315,3.234625 C26.907015,3.17017 26.496865,2.654525 26.563265,2.080325 C26.62772,1.510025 27.143365,1.099875 27.717565,1.166275 C37.438065,2.281525 44.762565,10.511775 44.762565,20.310775 L44.782095,20.804915 L44.762565,23.279515 L49.737165,39.424015 C51.43635,44.009965 50.118025,45.8440165 48.711765,46.574516 C43.516265,49.279616 31.680765,50.0003162 25.506765,50.0003162 L25.506,50.0003162 Z" id="Fill-25"></path>
                    </g>
                </g>
            </g>
        </g>
    </g>
</svg>