<?xml version="1.0" encoding="UTF-8"?>
<svg width="80px" height="80px" viewBox="0 0 80 80" version="1.1" xmlns="http://www.w3.org/2000/svg" xmlns:xlink="http://www.w3.org/1999/xlink">
    <title>icon-liberty</title>
    <g id="----▶-About" stroke="none" stroke-width="1" fill="none" fill-rule="evenodd">
        <g id="Artboard" transform="translate(-965.000000, -207.000000)">
            <rect id="Rectangle" fill="#FFFFFF" x="0" y="0" width="1440" height="383"></rect>
            <g id="col-5" transform="translate(921.000000, 207.000000)" fill="#3CA8B2">
                <g id="icon-liberty" transform="translate(63.000000, 5.000000)">
                    <path d="M41.2864286,68.2507164 L39.1435714,63.9650021 C39.0208,63.7250443 38.7752714,63.5715879 38.5074143,63.5715879 L36.0939143,63.5715879 L34.8578429,61.1078714 C34.7350714,60.8679143 34.4895429,60.7144571 34.2216857,60.7144571 L31.4929,60.7144571 L31.4287286,45.5858857 C31.9421214,44.6037429 32.2100143,43.5100286 32.2071571,42.3995286 L32.2071571,32.6923857 L32.2071571,31.9781 C32.2071571,30.0779571 32.2629571,28.1136714 30.2345143,27.0701714 L27.2071571,25.4295286 L27.2071571,19.2855286 C27.3941,19.1571786 27.57825,19.0288286 27.7568214,18.8781643 C28.0804786,18.6103071 28.37345,18.3089643 28.63575,17.9797357 L28.63575,24.2855214 C28.63575,24.6789357 28.9566214,24.9998071 29.3500357,24.9998071 C29.74345,24.9998071 30.0643214,24.6789357 30.0643214,24.2855214 L30.0643214,14.2855214 L30.0643214,14.2073929 L30.0643214,13.9283786 C30.0671071,13.3647643 29.9917786,12.8011643 29.8439,12.2570929 C29.6151071,11.4702357 29.0012571,10.85645 28.2144714,10.6276643 C25.2289714,9.72923571 22.0426143,9.72923571 19.0573286,10.6276643 C18.2370429,10.8843643 17.6092571,11.5512357 17.3999714,12.38545 C17.2548857,12.9797571 17.1962857,13.5908071 17.2214,14.1990929 L17.2214,14.2855857 L17.2214,19.8854429 L11.1416143,16.5148714 L11.1444071,16.5148714 C10.9742071,16.4060571 10.7649429,16.3753643 10.5724214,16.4283786 C10.3854786,16.4869714 10.2292286,16.6181071 10.1427357,16.7938929 L6.57130714,23.93675 C6.40947857,24.2576214 6.5155,24.6510357 6.81405,24.8491071 L13.1868286,29.0929643 L13.2426357,29.1348214 L13.3347143,29.1850429 L13.4630643,29.1850429 L7.93570714,57.7200429 C7.89664286,57.9097714 7.93291429,58.1050857 8.03894286,58.2641286 C8.14497143,58.4231714 8.31237857,58.5347786 8.49932143,58.57105 L8.63604286,58.57105 L10.4440429,58.7998429 L10.7788643,58.8361143 L10.7788643,60.7139 L7.79336429,60.7139 C7.52271429,60.7111143 7.2716,60.8645714 7.15162143,61.1073143 L5.92112143,63.57103 L3.50762143,63.57103 C3.23697143,63.56824 2.98585714,63.7217014 2.86587857,63.9644443 L0.723021429,68.2501586 C0.594671429,68.47058 0.594671429,68.7440229 0.723021429,68.9644443 C0.851371429,69.1737086 1.08295714,69.2992659 1.32849286,69.2992659 L40.6142071,69.2992659 C40.8625357,69.2992659 41.0913286,69.1709157 41.2224643,68.9588657 C41.3508143,68.7468086 41.3619714,68.4845371 41.2503643,68.2641086 L41.2864286,68.2507164 Z M30.0642857,60.7142857 L26.4928571,60.7142857 L26.4928571,51.4285714 C27.6954286,50.8621643 28.5269286,49.7237857 28.6998571,48.4067857 L29.1351214,48.1138143 C29.4476214,47.90455 29.7405929,47.6645929 30.0084786,47.3995286 L30.0642857,60.7142857 Z M22.2071429,60.7142857 L22.2071429,53.75 C22.6647286,53.3063643 23.0414286,52.7901429 23.3287857,52.221 L23.3929643,52.0842786 L25.06425,51.8415357 L25.06425,60.7143929 L22.2071429,60.7142857 Z M17.2071429,60.7142857 L17.2071429,55.5440714 L18.9370714,55.3292286 C19.5788143,55.2455214 20.201,55.0557929 20.7785714,54.7656143 L20.7785714,60.7142857 L17.2071429,60.7142857 Z M25.7785714,24.6342857 L21.4287143,22.2430714 C21.44825,22.1844786 21.4594071,22.1258857 21.4649857,22.0645 L21.4649857,19.9997857 C21.7746929,20.1113929 22.0955643,20.1978857 22.4219857,20.2564857 C22.8070286,20.3290286 23.2004143,20.3625143 23.5938429,20.3653 C24.3220571,20.3625071 25.0475571,20.23695 25.7367,19.9914143 L25.7785714,24.6342857 Z M18.7863571,12.7285714 C18.8784357,12.3798 19.1518714,12.1063643 19.5006429,12.0142857 C22.2155,11.1855714 25.1200714,11.1855714 27.8349286,12.0142857 C28.1474286,12.1007786 28.3929643,12.3351571 28.4934143,12.6420786 C28.6078143,13.0661857 28.6636143,13.5042214 28.6636143,13.9422929 C28.6636143,15.4238643 28.0079214,16.8273643 26.8723286,17.7787929 C25.5386143,18.8920786 23.7250429,19.2352929 22.0788286,18.6855786 C20.4298286,18.1359143 19.1881857,16.7687214 18.7919714,15.0778643 C18.6050286,14.3077929 18.6022429,13.5014357 18.7863929,12.7285071 L18.7863571,12.7285714 Z M18.6356857,17.9629286 C19.0458429,18.4651571 19.5257571,18.9032143 20.0642571,19.2631429 L20.0642571,21.4617857 L18.5715429,20.6582143 C18.5910786,20.6024143 18.6022357,20.5438143 18.6078143,20.4852214 L18.6078143,17.9629286 L18.6356857,17.9629286 Z M10.6221143,57.3850714 L9.48654286,57.2427714 L10.7784,50.6217 L11.9781857,44.4777071 L15.7644714,25.1362786 C15.8314357,24.7735571 15.6165929,24.4192071 15.2622429,24.3159929 C14.9106786,24.2127571 14.5368143,24.3941214 14.4001,24.7345214 L13.3007429,27.4856643 L8.13052857,24.0425929 L11.0881,18.12745 L17.9240286,21.9137357 L20.7811714,23.49295 L29.5704571,28.3645929 C30.22615,28.6854643 30.6613857,29.3300214 30.7144571,30.05545 C30.7925857,30.6999786 30.8176929,31.3473071 30.787,31.9918071 L30.787,32.7060929 L30.787,42.39895 C30.7953714,44.2320929 29.8802143,45.9452357 28.3511429,46.9553071 L28.2144214,47.0418 L27.92145,38.5710857 C27.92145,38.3813571 27.8461143,38.1999929 27.7121857,38.0660643 C27.5782571,37.9321357 27.3968929,37.8568 27.2071643,37.8568 C26.81375,37.8568 26.4928786,38.1776714 26.4928786,38.5710857 L26.84165,48.91965 C26.8472357,49.0284643 26.8779214,49.1344929 26.9281429,49.2293571 C26.5347286,49.8459857 25.8902143,50.2617143 25.1647143,50.3649286 L23.2506429,50.6355786 L22.9214,35.7134357 C22.9214,35.3200214 22.6005286,34.99915 22.2071143,34.99915 C21.8137,34.99915 21.4928286,35.3200214 21.4928286,35.7134357 L21.8220714,50.7862929 L21.8220714,51.7795786 L21.8220714,51.7767929 C21.8192857,51.8130643 21.8192857,51.8493357 21.8220714,51.8856071 C21.5458429,52.3487786 21.1803286,52.7533214 20.7422857,53.0714643 C20.1535571,53.5206857 19.456,53.8024643 18.7222143,53.89175 L17.1708571,54.0842714 L16.0631429,54.2265714 L16.3282071,52.1422857 L18.6357071,30.7694286 C18.6691929,30.3843857 18.3873786,30.0412143 17.99955,29.9993571 C17.6089214,29.9575 17.2601214,30.2393143 17.2154786,30.62715 L14.6429071,54.4357214 C14.6178,54.6924143 14.7349857,54.9463214 14.9498286,55.0914143 C14.3973714,56.1879857 13.3956857,56.9859143 12.2071143,57.2844857 C11.7411571,57.4044643 11.2584714,57.4435286 10.7785429,57.3988857 L10.6221143,57.3850714 Z M12.2069714,58.7495 C13.6466857,58.4760643 14.9246143,57.6613571 15.7784,56.4699286 L15.7784,60.7137857 L12.2069714,60.7137857 L12.2069714,58.7495 Z M8.23654286,62.1423571 L33.7779714,62.1423571 L34.4922571,63.5709321 L7.52225714,63.5709321 L8.23654286,62.1423571 Z M2.52225714,67.8566464 L3.95082857,64.9995036 L38.0636857,64.9995036 L39.4922571,67.8566464 L2.52225714,67.8566464 Z" id="Fill-1"></path>
                    <path d="M5,15.7142571 C3.69978571,15.7142571 2.52792857,16.4983571 2.03128571,17.6980714 C1.53184286,18.9006429 1.80807143,20.2817857 2.72604286,21.2025 C3.64682857,22.1205 5.02797143,22.3967143 6.23047143,21.8972571 C7.43025714,21.4006071 8.21425714,20.2287571 8.21425714,18.9285429 C8.21146429,17.1539714 6.77454286,15.7170429 4.99997143,15.7142571 L5,15.7142571 Z M5,20.7142857 C4.27735714,20.7142857 3.62721429,20.2790143 3.351,19.6121429 C3.07477143,18.9452929 3.22544286,18.1752143 3.73604286,17.6645714 C4.24664286,17.1539714 5.01675714,17.0033 5.68361429,17.2795286 C6.35046429,17.5557571 6.78575714,18.2058857 6.78575714,18.9285286 C6.78575714,19.4028571 6.59881429,19.8576714 6.26399286,20.1924571 C5.92917143,20.5272429 5.47435,20.7142214 5.00006429,20.7142214 L5,20.7142857 Z" id="Fill-2"></path>
                    <path d="M8.21428571,7.5 C8.21428571,6.92243571 7.35771429,0 5,0 C2.64228571,0 1.78571429,6.92242857 1.78571429,7.5 C1.78571429,9.27457143 3.22542857,10.7142857 5,10.7142857 C6.77457143,10.7142857 8.21428571,9.27457143 8.21428571,7.5 Z M5,9.28577857 C4.01507143,9.28577857 3.21428571,8.48492857 3.21428571,7.5 C3.21428571,6.00728571 4.28571429,1.93635714 5,1.42857143 C5.71428571,1.91406429 6.78571429,5.98492857 6.78571429,7.47771429 C6.79129286,7.95483571 6.60714286,8.41521429 6.26952857,8.75564286 C5.93470714,9.09604286 5.4771,9.28577857 5.00002857,9.28577857 L5,9.28577857 Z" id="Fill-3"></path>
                    <path d="M2.22071429,14.6064286 C2.34348571,14.8463857 2.58901429,14.9998429 2.85687143,14.9998429 L7.14258571,14.9998429 C7.41044286,14.9998429 7.65597857,14.8463857 7.77874286,14.6064286 L9.20731429,11.7492857 C9.31892143,11.5288643 9.30775714,11.2665857 9.17662143,11.0545286 C9.04827143,10.8424786 8.81947857,10.7141286 8.57115,10.7141286 L1.42829286,10.7141286 C1.17996429,10.7141286 0.951171429,10.8424786 0.822821429,11.0545286 C0.691685714,11.2665857 0.680521429,11.5288571 0.792128571,11.7492857 L2.22071429,14.6064286 Z M7.41321429,12.1427143 L6.69892857,13.5712857 L3.3005,13.5712857 L2.58621429,12.1427143 L7.41321429,12.1427143 Z" id="Fill-4"></path>
                    <path d="M32.3357143,24.8714286 L32.1794643,24.7207571 C32.0594857,24.5449786 31.8669643,24.4333714 31.6549071,24.4138357 C31.44285,24.3943071 31.2335929,24.4696357 31.0857071,24.6203071 C30.9350357,24.7709786 30.8597,24.9802429 30.8792357,25.1895071 C30.8987643,25.4015643 31.0103714,25.5940857 31.1861571,25.7140643 L31.3424071,25.8703143 C32.8211929,27.2988857 33.99305,28.4428857 33.99305,30.1560286 L33.99305,41.4281714 C33.99305,41.8215857 34.3139214,42.1424571 34.7073357,42.1424571 C35.10075,42.1424571 35.4216214,41.8215857 35.4216214,41.4281714 L35.4216214,30.1924571 C35.4216214,27.8571 33.9204786,26.4285286 32.3356929,24.8716 L32.3357143,24.8714286 Z" id="Fill-5"></path>
                    <path d="M35,43.6771429 C34.6261143,43.5571643 34.2215714,43.76085 34.0987857,44.1347286 L33.192,46.8412286 C33.1306143,47.0225929 33.1445643,47.2206929 33.2282714,47.3908929 C33.3147643,47.5610929 33.4626429,47.6894429 33.6440071,47.7508286 C33.71655,47.77315 33.7946786,47.7843071 33.8728,47.7843071 C34.1936714,47.80105 34.4866429,47.6001571 34.5870857,47.2932357 L35.4883,44.5867357 L35.4855071,44.5867357 C35.5441071,44.3997929 35.5273643,44.1989 35.4352857,44.0287 C35.3432143,43.8585 35.1869571,43.73015 35.0000143,43.6771357 L35,43.6771429 Z" id="Fill-6"></path>
                    <path d="M13.2642857,10.2514286 L15.7782143,10.2514286 L15.7782143,12.1431429 C15.7782143,12.5365571 16.0990857,12.85745 16.4925,12.85745 C16.8859143,12.85745 17.2067857,12.5365571 17.2067857,12.1431429 L17.2067857,10.0784286 C17.3128143,9.99472143 17.3909357,9.88032857 17.4272071,9.74918571 L19.4696357,9.14092857 L19.4724286,9.14372143 C22.1900714,8.32065 25.0890714,8.32065 27.8067143,9.14372143 L30.064,9.82173571 L30.064,12.1431643 C30.064,12.5365786 30.3848714,12.85745 30.7782857,12.85745 C31.1717,12.85745 31.4925714,12.5365786 31.4925714,12.1431643 L31.4925714,10.2570214 L34.6147857,10.2570214 C35.0082,10.2570214 35.3290714,9.93894286 35.3290714,9.54273571 C35.3290714,9.14932143 35.0082,8.82845 34.6147857,8.82845 L31.314,8.82845 C31.2275071,8.72521429 31.1131071,8.64987857 30.9847571,8.60802857 L28.2141143,7.77095714 L27.9992714,7.71515 L31.4647,4.28600714 C31.5986286,4.15207857 31.6767571,3.96792857 31.6767571,3.77819286 C31.6767571,3.58846429 31.5986286,3.4071 31.4647,3.27037857 C31.3307714,3.13645 31.1466214,3.06111429 30.9568857,3.06111429 C30.76715,3.06111429 30.583,3.13645 30.4490714,3.27037857 L26.5707143,7.14316429 C26.5093286,7.21292143 26.4563143,7.29104286 26.4200429,7.37753571 C25.73645,7.25476429 25.0444714,7.17664286 24.3497571,7.14316429 L24.3497571,2.14316429 C24.3497571,1.74975 24.0288857,1.42887857 23.6354714,1.42887857 C23.2420571,1.42887857 22.9211857,1.74975 22.9211857,2.14316429 L22.9211857,7.14316429 C22.4636,7.14316429 22.0004,7.19897143 21.5428286,7.26593571 C21.5205071,7.22129286 21.4953929,7.18222857 21.4647,7.14316429 L17.5863429,3.24252143 C17.4524143,3.10859286 17.2682643,3.03325714 17.0785286,3.03325714 C16.8887929,3.03325714 16.7046429,3.10859286 16.5707143,3.24252143 C16.4284143,3.37924286 16.3447071,3.56618571 16.3447071,3.76428571 C16.3447071,3.96238571 16.4284143,4.15212143 16.5707143,4.28605 L19.8770714,7.58683571 C19.6064214,7.65937857 19.3274071,7.72355714 19.0623571,7.80167857 L16.2917143,8.57175 C16.1577857,8.6136 16.0406,8.69172857 15.9485214,8.80054286 L13.2643786,8.80054286 C12.8709643,8.80054286 12.5500929,9.12141429 12.5500929,9.51482857 C12.5500929,9.90824286 12.8709643,10.2291143 13.2643786,10.2291143 L13.2642857,10.2514286 Z" id="Fill-7"></path>
                </g>
            </g>
        </g>
    </g>
</svg>