<?xml version="1.0" encoding="UTF-8"?>
<svg width="82px" height="44px" viewBox="0 0 82 44" version="1.1" xmlns="http://www.w3.org/2000/svg" xmlns:xlink="http://www.w3.org/1999/xlink">
    <title>icon-doxie</title>
    <g id="----▶-About" stroke="none" stroke-width="1" fill="none" fill-rule="evenodd">
        <g id="About" transform="translate(-817.000000, -3927.000000)" fill="#FFFFFF" fill-rule="nonzero">
            <g id="Block-/-Facts" transform="translate(0.000000, 3767.000000)">
                <g id="1/4-Mr.-Big" transform="translate(727.000000, 162.000000)">
                    <path d="M149.911664,-0.771008602 C151.061391,-1.10078432 152.13123,-1.1465028 153.405853,-0.984150979 L153.758769,-0.934771533 C154.037648,-0.892425416 154.218617,-0.861533174 154.620872,-0.786117697 L155.821783,-0.562439548 C155.968421,-0.536921655 156.099288,-0.515555215 156.232272,-0.495329848 C158.241014,-0.221828148 160.454078,-0.0978225831 162.877577,-0.0978225831 C163.682769,-0.0978225831 164.461293,-0.148269959 165.399116,-0.252951731 L165.980169,-0.321996058 L166.596343,-0.400880275 C166.73232,-0.41142533 166.836019,-0.357703423 166.508507,0.294980202 L166.364698,0.568857218 L167.257257,-0.489710497 L167.678914,-0.572212316 C167.98633,-0.633076003 168.216004,-0.670476542 168.459324,-0.692869031 C169.074672,-0.749498976 169.612577,-0.687862877 170.088698,-0.430176611 L170.301587,-0.302535984 C170.710699,-0.0306332971 170.949115,0.420733082 171.022288,0.879105979 L171.040566,1.03191988 L171.042,1.079 L171.056532,1.16969093 C171.124828,1.76803596 170.982972,2.45219722 170.704699,3.05905912 L170.594096,3.28269034 L170.54,3.378 L170.450998,3.61574912 C169.963431,4.84229479 169.212055,6.00090824 168.288751,6.97252384 L168.032747,7.23278415 L167.768631,7.4832351 C166.836694,8.36356105 165.856474,9.04272914 164.291233,9.95068049 L162.048166,11.2223733 C161.986554,11.2579681 161.92509,11.293636 161.862615,11.330043 L161.246562,11.6410523 C160.831854,11.8458932 160.367035,12.0716568 160.273164,12.1194891 C158.870661,12.8341405 158.239368,13.4289691 158.166197,14.1698435 C158.131117,14.5321347 158.151405,14.8515532 158.242146,15.4102478 L158.413282,16.395369 C158.430566,16.5034156 158.443335,16.5934081 158.454464,16.6845998 L158.465152,16.7769043 C159.312631,22.6772553 156.537412,28.6280358 151.548852,31.7832863 L151.335,31.914 L151.255366,31.9819321 C151.117975,32.1084383 150.998586,32.2636858 150.920295,32.4194037 L150.869644,32.5358385 L150.83657,32.6497994 L150.723754,33.0831785 C150.524366,33.8842737 150.360689,34.7444551 150.14658,36.0427075 L150.030252,36.7086265 C149.460732,40.1070037 148.406259,41.4873738 145.070773,40.9923552 C142.524532,40.5885638 141.751562,39.4023534 141.424881,36.835383 L141.377383,36.4309666 C141.268306,35.4799799 141.152721,35.0064842 140.911648,34.6534026 L140.811326,34.5216604 C140.753633,34.4596578 140.691661,34.4642586 140.216958,34.4629931 C133.974501,34.1306747 128.34993,33.4729029 123.047585,32.401639 L122.328898,32.2636457 C120.164817,31.8369425 117.895931,31.2890103 114.641129,30.4383931 L113.543617,30.137989 L111.02325,29.4834751 C109.475311,29.0751485 108.498669,28.7857618 107.483731,28.4194001 L107.044635,28.257104 C104.934838,27.4330963 104.062808,27.8425912 103.340402,29.4032976 L103.266159,29.5688532 C103.13569,29.8687908 102.751364,30.8996331 102.706272,31.0100945 L102.6632,31.1110854 L102.360637,31.9256665 C102.198649,32.3706169 102.025791,32.8596474 101.794669,33.5236488 L100.938385,35.9852887 C100.711595,36.6280447 100.537613,37.105263 100.34081,37.6256027 L100.043716,38.5098428 C99.4224598,40.2927081 98.4202604,40.9138325 96.181858,40.6192188 L95.9372598,40.5841602 C93.4120069,40.2357958 92.7827072,39.3570994 92.4807964,36.7576547 L92.4163263,36.0034114 C92.3922533,35.6877091 92.3708266,35.3587118 92.3488941,34.9732869 L92.1966975,32.0209379 C92.172632,31.6073569 92.1491193,31.2644093 92.1213273,30.9242186 L92.0275259,29.8562687 C91.8570582,28.0261443 91.5869672,26.2279417 91.0691862,23.2097379 C90.8274989,21.4986513 90.8818024,19.9586287 91.3141483,18.4316476 L91.4369582,18.0740794 L91.7833819,17.1515413 C92.1357163,16.2158775 92.27414,15.6729915 92.27414,15.0847522 L92.2691007,14.8564646 C92.2535415,14.5137423 92.1999945,14.1510631 92.0816429,13.5166711 L91.9492232,12.8080132 C91.8291532,12.1394728 91.7778904,11.7254661 91.7688385,11.2577328 L91.7673481,11.099409 C91.7673481,10.7607692 91.776,10.499541 91.8110222,10.1909406 C91.9126863,9.29512114 92.1163299,8.71256325 92.8284628,8.46660513 L92.9777897,8.42190842 L93.1093588,8.38808375 L93.2452064,8.38808375 C93.8011376,8.38808375 94.0909913,8.6000973 94.5437375,9.11617656 L94.744435,9.35138388 L95.0782705,9.76303727 C95.1501581,9.85096281 95.1985874,9.906853 95.2245415,9.93303216 C96.3468018,11.0684372 97.9622859,11.9206707 99.6380056,12.2948565 C100.860013,12.5413603 101.880539,12.5530986 104.082216,12.4119654 L105.644591,12.3134461 C106.046998,12.2918936 106.368936,12.2802847 106.695818,12.2758273 L107.027512,12.2736503 L112.388975,12.2737102 L115.249853,12.2488829 C117.56955,12.2330265 119.992439,12.2265339 122.725908,12.227611 L140.459737,12.2731417 L141.794245,12.2736503 C142.975655,12.2736503 143.149636,12.1756271 143.523628,11.2357501 C144.134629,9.59502194 144.357179,8.33181635 144.268284,6.73618325 C144.157425,3.18290956 146.272709,0.322281995 149.67129,-0.702324895 L149.911664,-0.771008602 Z M168.51271,0.568857218 L167.581299,1.63335485 L166.07109,1.83110127 C164.863657,1.97819348 163.89623,2.05018926 162.877577,2.05018926 C160.363788,2.05018926 158.0568,1.92092079 155.92631,1.63071701 L155.621556,1.58228985 C155.468034,1.55676195 155.30826,1.52851414 155.121821,1.49417837 L153.670553,1.22581041 C153.594313,1.21324799 153.519937,1.20159693 153.436302,1.18889754 C152.399121,1.03140789 151.598373,1.02870974 150.778315,1.22200105 L150.486986,1.29844828 C147.888621,1.99798696 146.333076,4.03530932 146.414099,6.64273071 C146.477146,7.77027006 146.404433,8.77959564 146.182136,9.82110079 C146.629173,8.66323332 147.105592,7.57470589 147.622149,6.53270496 C148.977133,3.79942633 150.881086,3.68791149 152.520842,6.15394668 L152.637508,6.33447504 C154.37026,9.13335997 155.140552,12.0188867 154.824597,14.981138 C154.581587,17.5667348 153.350507,18.9985565 150.93278,19.5102987 C146.685607,20.3916702 143.77549,17.2863949 145.026128,13.1281549 L145.10816,12.8742768 C144.406981,14.0414711 143.440634,14.4216621 141.794245,14.4216621 L124.118253,14.3767847 C120.806787,14.3726479 117.964508,14.3783925 115.260153,14.396867 L112.400317,14.4216621 L106.723314,14.4237247 C106.371773,14.4286579 106.01978,14.4428577 105.539234,14.470757 L103.852154,14.5784014 C101.706872,14.7067273 100.59767,14.679697 99.1917128,14.3958782 C97.3510975,13.9851257 95.5885683,13.1212313 94.2225288,11.9354026 L93.949,11.688 L93.9661087,11.8213849 C93.9843328,11.9584598 94.0080939,12.1100793 94.0383729,12.2855009 L94.240389,13.3796982 C94.3739124,14.122765 94.4221518,14.5490151 94.4221518,15.0847522 C94.4221518,15.9134171 94.2635457,16.6107901 93.9066513,17.601929 L93.4208856,18.9046045 C93.4018363,18.958829 93.3846031,19.0092003 93.3681188,19.0586514 C93.0373812,20.2294218 92.9934665,21.4748218 93.1911527,22.877783 L93.4762823,24.5693498 C93.7986713,26.5283374 93.9989368,27.9512761 94.1385395,29.3665439 L94.2626042,30.7532088 C94.3152979,31.3974162 94.3529378,32.0483992 94.4060236,33.1316238 L94.4925813,34.8366629 C94.5307037,35.5096402 94.5664721,35.9957331 94.6168944,36.5329549 L94.6763322,37.0251154 C94.8350853,38.2444226 94.9856975,38.2845505 96.2479878,38.4588128 L96.5892077,38.5101847 C97.5777081,38.6527007 97.7240213,38.5923439 97.9427716,38.006039 L98.3219879,36.8924234 L98.7055263,35.8524392 C98.859553,35.4244756 99.0295089,34.9407808 99.2512494,34.3023576 L100.083409,31.9129125 C100.273041,31.3779899 100.430425,30.9470377 100.606223,30.4809514 L101.167826,29.0256581 C101.21761,28.9002159 101.262477,28.7900976 101.29643,28.7120448 C102.430587,26.1047142 104.362714,25.0006202 107.559905,26.1560759 L108.221744,26.4022335 C109.165139,26.7422585 110.095593,27.0174823 111.59226,27.4120629 L114.536497,28.1799988 C114.764292,28.2417974 114.97418,28.3002605 115.205753,28.366039 L117.201825,28.880502 C119.697831,29.5131192 121.58233,29.9427235 123.4575,30.2931615 C128.664905,31.345129 134.18727,31.990948 140.274052,32.3164999 C141.384818,32.3164999 141.928411,32.4690647 142.536907,33.2393232 C143.105453,33.9650644 143.320929,34.6766312 143.478432,35.913026 L143.529932,36.3493182 C143.743534,38.238348 143.984715,38.6452706 145.39664,38.8692322 L145.719738,38.911705 C147.199215,39.0764725 147.51505,38.6306965 147.874404,36.5723291 L148.202559,34.6650827 C148.384497,33.6406522 148.546057,32.8897699 148.74727,32.1561689 C148.886659,31.4640246 149.336534,30.7925603 149.902926,30.3105388 L150.06014,30.1839022 L150.157437,30.1179048 C154.49344,27.5113459 156.974553,22.4530262 156.377063,17.3734541 L156.303027,16.8063274 C156.28589,16.691833 156.263075,16.5580123 156.228118,16.3624503 L156.199523,16.2035397 C156.015524,15.1861778 155.960442,14.6624466 156.028384,13.9607789 C156.188854,12.3359352 157.202205,11.3170459 159.04195,10.3388149 L159.460637,10.1248001 C159.830646,9.94271902 160.625894,9.55648131 160.810932,9.45748921 L162.528754,8.48357917 C164.377172,7.44229499 165.391348,6.77403455 166.305858,5.91034992 C167.229703,5.06449627 167.979006,3.99633444 168.435616,2.87033262 L168.552801,2.56193074 L168.645829,2.36539004 C168.821966,2.07386015 168.92896,1.69559031 168.927398,1.47875087 L168.923,1.437 L168.86788,1.43594187 L168.771139,1.43806155 L168.656171,1.44610406 L168.46203,1.46974267 C168.392649,1.48001756 168.317283,1.4928508 168.231984,1.50873148 L167.836441,1.58631375 C167.766574,1.59418144 167.765316,1.5342704 168.310199,0.828738902 L168.51271,0.568857218 Z M149.54666,7.48675428 C148.618423,9.35919874 147.821195,11.4060621 147.078947,13.7603611 C146.305234,16.3330795 147.830244,17.9603599 150.492149,17.4079711 C151.970568,17.0950398 152.529544,16.4449169 152.687352,14.7667616 C152.938255,12.4137735 152.364939,10.1093181 151.022142,7.81526617 L150.818764,7.47733416 L150.466035,6.90937523 C150.057611,6.26542994 150.058538,6.45419366 149.54666,7.48675428 Z M156.99796,2.14993389 C158.202926,2.14993389 159.18853,3.14399139 159.18853,4.35010801 C159.18853,5.55619996 158.20295,6.55028212 156.99796,6.55028212 C155.792995,6.55028212 154.807391,5.55622462 154.807391,4.35010801 C154.807391,3.14401605 155.79297,2.14993389 156.99796,2.14993389 Z" id="icon-doxie"></path>
                </g>
            </g>
        </g>
    </g>
</svg>