<?xml version="1.0" encoding="UTF-8"?>
<svg width="98px" height="12px" viewBox="0 0 98 12" version="1.1" xmlns="http://www.w3.org/2000/svg" xmlns:xlink="http://www.w3.org/1999/xlink">
    <title>icon-flute</title>
    <g id="----▶-About" stroke="none" stroke-width="1" fill="none" fill-rule="evenodd">
        <g id="About" transform="translate(-234.000000, -3948.000000)" fill="#FFFFFF">
            <g id="Block-/-Facts" transform="translate(0.000000, 3767.000000)">
                <g id="1/4-Music" transform="translate(156.000000, 181.000000)">
                    <path d="M175.08852,6.711 C175.08852,4.5508 173.33072,2.793 171.17052,2.793 L153.47952,2.793 C153.10061,1.1953 151.66702,0 149.95222,0 C148.50692,0 147.26082,0.85156 146.67492,2.0781 C146.09289,0.8515 144.84682,0 143.39762,0 C141.95232,0 140.70622,0.85156 140.12032,2.0781 C139.53829,0.8515 138.29222,0 136.84302,0 C135.12822,0 133.69462,1.1953 133.31572,2.793 L129.10872,2.793 C128.72981,1.1953 127.29622,0 125.58142,0 C124.13612,0 122.89002,0.85156 122.30412,2.0781 C121.72209,0.8515 120.47602,0 119.02682,0 C117.58152,0 116.33542,0.85156 115.74952,2.0781 C115.16749,0.8515 113.92142,0 112.47222,0 C110.75742,0 109.32382,1.1953 108.94492,2.793 L100.04652,2.793 C100.06214,2.59378 100.06996,2.39456 100.06996,2.19534 L100.06996,0.88674 L84.292956,0.88674 L84.292956,2.19534 C84.292956,2.39846 84.304675,2.59768 84.3203,2.793 L81.918,2.793 C79.7578,2.793 78,4.5508 78,6.711 L78,7.31647 C78,9.47667 79.7578,11.23447 81.918,11.23447 L171.172,11.23447 L171.17981,11.23447 L171.18762,11.23447 C173.33992,11.23447 175.09382,9.48447 175.09382,7.32827 L175.09382,7.32046 L175.09382,7.31265 L175.08852,6.711 Z M171.17442,8.6212 C170.46739,8.6173 169.88922,8.03917 169.88922,7.3321 C169.88922,6.62116 170.46734,6.0391 171.18222,6.0391 C171.89316,6.0391 172.46742,6.61332 172.47522,7.3243 C172.47131,8.03914 171.88928,8.6173 171.17442,8.6212 Z M153.10842,5.4064 L167.78842,5.4064 C167.4642,5.97671 167.2767,6.633 167.2767,7.3322 C167.2767,7.78532 167.35873,8.21892 167.49936,8.6252 L151.25736,8.6213 L151.25736,7.008 C152.04642,6.70331 152.69876,6.133 153.10896,5.4064 L153.10842,5.4064 Z M149.94822,2.6134 C150.50681,2.6134 150.96382,3.07043 150.96382,3.629 C150.96382,4.1915 150.50679,4.6446 149.94822,4.6446 C149.38572,4.6446 148.93262,4.19148 148.93262,3.629 C148.93262,3.06652 149.38965,2.6134 149.94822,2.6134 Z M146.67482,5.1798 C147.07326,6.01574 147.77642,6.6759 148.64362,7.0079 L148.64362,8.6212 L144.70612,8.6212 L144.70612,7.0079 C145.57331,6.67196 146.27642,6.01181 146.67492,5.1798 L146.67482,5.1798 Z M143.39752,2.6134 C143.95611,2.6134 144.41312,3.07043 144.41312,3.629 C144.41312,4.1915 143.95609,4.6446 143.39752,4.6446 C142.83893,4.6446 142.38192,4.19148 142.38192,3.629 C142.38192,3.06652 142.83895,2.6134 143.39752,2.6134 Z M140.12022,5.1798 C140.51866,6.01574 141.22182,6.6759 142.08902,7.0079 L142.08902,8.6212 L138.15152,8.6212 L138.15152,7.0079 C139.01871,6.67196 139.72572,6.01181 140.12032,5.1798 L140.12022,5.1798 Z M136.84682,2.61338 C137.40541,2.61338 137.86242,3.07043 137.86242,3.629 C137.86242,4.1915 137.40539,4.6446 136.84682,4.6446 C136.36635,4.6446 135.94838,4.30476 135.85073,3.83601 C135.8351,3.76961 135.8312,3.69929 135.8312,3.62898 C135.8312,3.06648 136.28823,2.61338 136.8468,2.61338 L136.84682,2.61338 Z M128.74132,5.4064 L133.68662,5.4064 C134.10068,6.13687 134.75692,6.7072 135.53822,7.008 L135.53822,8.6213 L126.88592,8.6213 L126.88592,7.008 C127.67498,6.70331 128.33122,6.133 128.74142,5.4064 L128.74132,5.4064 Z M125.58512,2.6134 C126.14371,2.6134 126.60072,3.07043 126.60072,3.629 C126.60072,4.1915 126.14369,4.6446 125.58512,4.6446 C125.02653,4.6446 124.56952,4.19148 124.56952,3.629 C124.56561,3.0665 125.02264,2.6134 125.58512,2.6134 Z M122.30782,5.1798 C122.70626,6.01574 123.40942,6.6759 124.27662,7.0079 L124.27662,8.6212 L120.33912,8.6212 L120.33912,7.0079 C121.20631,6.67196 121.90942,6.01181 122.30792,5.1798 L122.30782,5.1798 Z M119.03052,2.6134 C119.58911,2.6134 120.04612,3.07043 120.04612,3.629 C120.04612,4.1915 119.58909,4.6446 119.03052,4.6446 C118.47193,4.6446 118.01492,4.19148 118.01492,3.629 C118.01492,3.06652 118.47195,2.6134 119.03052,2.6134 Z M115.75322,5.1798 C116.15166,6.01574 116.85482,6.6759 117.72202,7.0079 L117.72202,8.6212 L113.78452,8.6212 L113.78452,7.0079 C114.65171,6.67196 115.35872,6.01181 115.75332,5.1798 L115.75322,5.1798 Z M112.47982,2.6134 C113.03841,2.6134 113.49542,3.07043 113.49542,3.629 C113.49542,4.1915 113.03839,4.6446 112.47982,4.6446 C111.92125,4.6446 111.46422,4.19148 111.46422,3.629 C111.46422,3.06652 111.91734,2.6134 112.47982,2.6134 Z M99.38982,5.4064 L109.31952,5.4064 C109.72968,6.13296 110.38592,6.7033 111.17112,7.008 L111.17112,8.6213 L96.75312,8.6213 C97.89372,7.8088 98.81172,6.6994 99.38982,5.4065 L99.38982,5.4064 Z M90.00702,3.5002 C90.45233,4.23848 91.25702,4.7346 92.18282,4.7346 C93.10862,4.7346 93.91332,4.23851 94.35862,3.5002 L97.30002,3.5002 C96.71799,5.7814 94.64382,7.4729 92.18282,7.4729 C89.72182,7.4729 87.64762,5.7815 87.06562,3.5002 L90.00702,3.5002 Z M80.608616,7.3166 L80.608616,6.71113 C80.608616,5.99238 81.194557,5.40253 81.917217,5.40253 L84.979717,5.40253 C85.557837,6.69553 86.475817,7.80483 87.61642,8.62133 L81.917216,8.62133 C81.194556,8.62133 80.608616,8.0393 80.608616,7.31663 L80.608616,7.3166 Z" id="icon-flute"></path>
                </g>
            </g>
        </g>
    </g>
</svg>