<?xml version="1.0" encoding="UTF-8"?>
<svg width="182px" height="45px" viewBox="0 0 182 45" version="1.1" xmlns="http://www.w3.org/2000/svg" xmlns:xlink="http://www.w3.org/1999/xlink">
    <title>logo-digitalgear</title>
    <defs>
        <polygon id="path-1" points="0 44.2942347 181.435408 44.2942347 181.435408 0.000459183673 0 0.000459183673"></polygon>
    </defs>
    <g id="----▶-About" stroke="none" stroke-width="1" fill="none" fill-rule="evenodd">
        <g id="About" transform="translate(-484.000000, -1421.000000)">
            <g id="Block-/-Experience" transform="translate(0.000000, 1251.000000)">
                <g id="1/4" transform="translate(442.000000, 170.000000)">
                    <g id="logo-digitalgear" transform="translate(42.000000, 0.000000)">
                        <path d="M51.8796735,16.0517755 C50.9089592,15.840551 49.6673265,15.6577959 48.6066122,15.6577959 C47.2722245,15.6577959 46.7570204,16.2951429 46.7570204,17.6286122 L46.7570204,22.8421837 C46.7570204,24.0544286 47.2116122,24.7202449 48.5753878,24.7202449 C49.788551,24.7202449 51.0917143,24.1141224 51.8796735,23.3867755 L51.8796735,16.0517755 Z M43.0596735,17.7186122 C43.0596735,14.445551 44.513449,12.5059592 47.9389592,12.5059592 C49.2421224,12.5059592 50.7271224,12.6877959 51.8796735,12.9302449 L51.8796735,6.77626531 L55.5770204,6.26197959 L55.5770204,27.5699388 L52.6373265,27.5699388 L52.2736531,26.3264694 C50.9704898,27.2668776 49.4542653,27.873 47.6055918,27.873 C44.6346735,27.873 43.0596735,26.1152449 43.0596735,22.7503469 L43.0596735,17.7186122 Z" id="Fill-1" fill="#FEFEFE"></path>
                        <mask id="mask-2" fill="white">
                            <use xlink:href="#path-1"></use>
                        </mask>
                        <g id="Clip-4"></g>
                        <path d="M59.9794898,27.5698469 L63.6768367,27.5698469 L63.6768367,12.8089286 L59.9794898,12.8089286 L59.9794898,27.5698469 Z M59.9794898,10.7168878 L63.6768367,10.7168878 L63.6768367,6.44372449 L59.9794898,6.44372449 L59.9794898,10.7168878 Z" id="Fill-3" fill="#FEFEFE" mask="url(#mask-2)"></path>
                        <path d="M73.3869184,15.4759592 C71.568551,15.4759592 70.9321224,16.1436122 70.9321224,17.5367755 L70.9321224,18.6590204 C70.9321224,20.1137143 71.6594694,20.6592245 73.3869184,20.6592245 C75.1446735,20.6592245 75.8720204,20.0834082 75.8720204,18.6590204 L75.8720204,17.5367755 C75.8720204,16.1436122 75.2365102,15.4759592 73.3869184,15.4759592 M72.5383469,23.5998367 C72.053449,23.902898 71.6594694,24.3271837 71.6594694,24.7817755 C71.6594694,25.1757551 71.9019184,25.3575918 72.4777347,25.4172857 C74.1142653,25.5991224 75.023449,25.6909592 76.7518163,25.8718776 C79.146,26.145551 79.9036531,27.3274898 79.9036531,29.4489184 C79.9036531,32.6007551 78.7520204,33.8442245 73.2353878,33.8442245 C71.5373265,33.8442245 69.2037551,33.6017755 67.5369184,33.0865714 L67.9915102,30.3287143 C69.5683469,30.7226939 71.2342653,30.9642245 72.9626327,30.9642245 C75.9023265,30.9642245 76.4781429,30.753 76.4781429,29.7822857 C76.4781429,28.873102 76.2053878,28.7215714 75.0849796,28.6003469 C73.3869184,28.4185102 72.6898776,28.3275918 70.8099796,28.115449 C68.7188571,27.873 67.9005918,27.1759592 67.9005918,25.2960612 C67.9005918,24.0838163 68.7188571,23.2967755 69.4462041,22.7806531 C68.0833469,21.9623878 67.446,20.5986122 67.446,18.810551 L67.446,17.415551 C67.5066122,14.3546327 69.1137551,12.5059592 73.3869184,12.5059592 C74.3870204,12.5059592 75.1749796,12.6262653 75.9023265,12.8090204 L80.4491633,12.8090204 L80.4491633,14.6576939 C79.9339592,14.8092245 79.3278367,14.9598367 78.8126327,15.1122857 C79.146,15.7487143 79.3278367,16.5669796 79.3278367,17.415551 L79.3278367,18.810551 C79.3278367,21.8108571 77.508551,23.6292245 73.3869184,23.6292245 C73.0838571,23.6292245 72.811102,23.6292245 72.5383469,23.5998367" id="Fill-5" fill="#FEFEFE" mask="url(#mask-2)"></path>
                        <path d="M83.817551,27.5698469 L87.514898,27.5698469 L87.514898,12.8089286 L83.817551,12.8089286 L83.817551,27.5698469 Z M83.817551,10.7168878 L87.514898,10.7168878 L87.514898,6.44372449 L83.817551,6.44372449 L83.817551,10.7168878 Z" id="Fill-6" fill="#FEFEFE" mask="url(#mask-2)"></path>
                        <path d="M100.29848,27.2972755 C99.5105204,27.6306429 97.9952143,27.8730918 97.0557245,27.8730918 C94.3575612,27.8730918 92.9937857,26.5993163 92.9937857,23.9626837 L92.9937857,15.7488061 L90.7814388,15.7488061 L90.7814388,12.8091122 L92.9937857,12.8091122 L92.9937857,9.14115306 L96.6911327,8.62594898 L96.6911327,12.8091122 L100.480316,12.8091122 L100.238786,15.7488061 L96.6911327,15.7488061 L96.6911327,23.4777857 C96.6911327,24.2657449 97.0557245,24.7818673 98.024602,24.7818673 C98.5710306,24.7818673 99.2377653,24.6606429 99.8741939,24.4788061 L100.29848,27.2972755 Z" id="Fill-7" fill="#FEFEFE" mask="url(#mask-2)"></path>
                        <path d="M111.141276,21.9924184 L108.413724,21.9924184 C107.20148,21.9924184 106.868112,22.3257857 106.868112,23.4480306 C106.868112,24.4784388 107.20148,24.9330306 108.353112,24.9330306 C109.444133,24.9330306 110.444235,24.5693571 111.141276,24.1753776 L111.141276,21.9924184 Z M114.838622,27.5696633 L111.808929,27.5696633 L111.536173,26.5695612 C110.202704,27.4484388 108.625867,27.8727245 107.140867,27.8727245 C104.442704,27.8727245 103.291071,26.024051 103.291071,23.4774184 C103.291071,20.4780306 104.594235,19.3254796 107.595459,19.3254796 L111.141276,19.3254796 L111.141276,17.7798673 C111.141276,16.1433367 110.686684,15.566602 108.322806,15.566602 C106.989337,15.566602 105.534643,15.7484388 104.23148,16.0211939 L103.775969,13.2027245 C105.170051,12.7784388 107.20148,12.5056837 108.83801,12.5056837 C113.475765,12.5056837 114.838622,14.1422143 114.838622,17.8404796 L114.838622,27.5696633 Z" id="Fill-8" fill="#FEFEFE" mask="url(#mask-2)"></path>
                        <polygon id="Fill-9" fill="#FEFEFE" mask="url(#mask-2)" points="119.083776 27.5699388 119.083776 6.77626531 122.781122 6.26197959 122.781122 27.5699388"></polygon>
                        <path d="M134.497745,18.9010102 L134.497745,17.5060102 C134.497745,16.5371327 133.982541,15.9613163 132.526929,15.9613163 C131.073153,15.9613163 130.557949,16.5371327 130.557949,17.5060102 L130.557949,18.9010102 C130.557949,19.9011122 131.103459,20.3557041 132.526929,20.3557041 C133.952235,20.3557041 134.497745,19.9011122 134.497745,18.9010102 L134.497745,18.9010102 Z M126.49601,17.3250918 C126.556622,14.3550918 128.194071,12.5055 132.526929,12.5055 C133.497643,12.5055 134.315908,12.6267245 135.044173,12.8085612 L139.650704,12.8085612 L139.650704,14.8693776 L138.165704,15.4148878 C138.408153,15.9916224 138.529378,16.6583571 138.559684,17.3250918 L138.559684,19.1131531 C138.559684,21.9325408 136.588867,23.8115204 132.526929,23.8115204 L132.073255,23.8115204 C131.770194,23.9933571 131.436827,24.2055 131.436827,24.6297857 C131.436827,24.9631531 131.648051,25.205602 131.921724,25.2359082 C133.891622,25.448051 134.497745,25.5086633 135.588765,25.5995816 C138.074786,25.8117245 139.165806,26.6602959 139.165806,29.2069286 C139.165806,32.7527449 136.953459,33.8437653 132.375398,33.8437653 C130.920704,33.8437653 128.435602,33.6022347 126.49601,33.0861122 L127.132439,29.903051 C128.891112,30.3282551 130.679173,30.5100918 131.982337,30.5100918 C134.255296,30.5100918 135.165398,30.4191735 135.165398,29.4484592 C135.165398,28.8726429 134.892643,28.7211122 134.013765,28.6311122 C132.34601,28.4795816 132.073255,28.4483571 130.254888,28.2665204 C128.253765,28.0552959 127.102133,27.6310102 127.102133,25.5995816 C127.102133,24.4176429 127.647643,23.6287653 128.37499,22.9014184 C127.102133,22.1437653 126.49601,20.8718265 126.49601,19.1131531 L126.49601,17.3250918 Z" id="Fill-10" fill="#FEFEFE" mask="url(#mask-2)"></path>
                        <path d="M150.111827,17.8095306 C150.111827,16.7791224 149.808765,15.930551 148.293459,15.930551 C146.777235,15.930551 146.293255,16.7791224 146.293255,17.8095306 L146.293255,18.4459592 L150.111827,18.4459592 L150.111827,17.8095306 Z M146.293255,21.7199388 L146.293255,22.1442245 C146.293255,23.8413673 146.959071,24.2959592 148.960194,24.2959592 C150.323969,24.2959592 152.142337,24.0544286 153.446418,23.6595306 L154.081929,26.9335102 C152.748459,27.4184082 150.596724,27.873 148.535908,27.873 C143.746622,27.873 141.928255,25.5091224 141.928255,21.8714694 L141.928255,18.4156531 C141.928255,15.2335102 143.352643,12.5059592 148.262235,12.5059592 C153.173663,12.5059592 154.233459,15.4153469 154.233459,18.6287143 L154.233459,21.7199388 L146.293255,21.7199388 Z" id="Fill-11" fill="#FEFEFE" mask="url(#mask-2)"></path>
                        <path d="M164.898092,22.266 L162.806969,22.266 C161.866561,22.266 161.503806,22.508449 161.503806,23.3257959 C161.503806,24.1449796 161.837173,24.4783469 162.685745,24.4783469 C163.594929,24.4783469 164.231357,24.2662041 164.898092,23.9631429 L164.898092,22.266 Z M165.686051,27.5695714 L165.38299,26.6300816 C163.685847,27.5695714 162.169622,27.8726327 161.16952,27.8726327 C158.441969,27.8726327 157.320643,25.9027347 157.320643,23.3873265 C157.320643,20.4164082 158.684418,19.2344694 161.715031,19.2344694 L164.898092,19.2344694 L164.898092,18.1131429 C164.898092,16.5978367 164.625337,16.0826327 162.291765,16.0826327 C160.987684,16.0826327 159.68452,16.2341633 158.290439,16.5069184 L157.714622,13.2329388 C159.108704,12.8086531 161.321051,12.5055918 163.019112,12.5055918 C168.140847,12.5055918 169.263092,14.0521224 169.263092,18.143449 L169.263092,27.5695714 L165.686051,27.5695714 Z" id="Fill-12" fill="#FEFEFE" mask="url(#mask-2)"></path>
                        <path d="M177.526561,18.5673673 L177.526561,27.5701224 L173.161561,27.5701224 L173.161561,12.8082857 L176.798296,12.8082857 L177.101357,14.2326735 C178.010541,13.626551 179.890439,12.7476735 181.072378,12.5052245 L181.436051,16.6277755 C180.132888,17.1429796 178.465133,17.9006327 177.526561,18.5673673" id="Fill-13" fill="#FEFEFE" mask="url(#mask-2)"></path>
                        <path d="M18.8803469,9.92268367 C18.6599388,10.9576837 18.2907551,12.7457449 17.6947347,15.6340102 C15.4502449,15.6900306 11.475551,16.5303367 11.3194286,20.0807449 C11.2092245,22.5373776 13.3526939,24.2868673 15.8506531,24.6670714 C15.7413673,25.6515612 15.3611633,27.6049286 14.2673878,28.1642143 C11.5912653,29.5289082 3.8485102,27.2541122 2.07514286,26.0740102 C0.321061224,24.9049286 -0.000367346939,22.9322755 -0.000367346939,20.2827857 C-0.000367346939,17.771051 0.486367347,15.7341122 2.33504082,14.4676837 C4.81738776,12.7677857 12.5151429,12.1772755 14.3463673,11.8282959 C18.3559592,11.0614592 16.228102,6.33462245 16.6413673,3.14605102 C16.9113673,1.05217347 18.620449,-0.0360918367 21.2175918,0.000642857143 C23.542898,0.0355408163 24.8837143,2.00360204 24.6458571,3.42982653 C24.0792245,6.83054082 19.8042245,5.61645918 18.8803469,9.92268367" id="Fill-14" fill="#FEFEFE" mask="url(#mask-2)"></path>
                        <path d="M21.3000612,31.0981224 C20.7260816,33.9698571 23.3764898,35.0305714 22.6096531,39.2899592 C22.2450612,41.326898 19.9610816,44.2941429 14.3911837,44.2941429 C9.32546939,44.2941429 6.78802041,41.2277143 7.317,38.0878163 C8.35567347,31.949449 17.8451633,33.6723061 19.0978163,30.9162857 C19.6286327,29.7462857 18.7864898,29.0850612 18.2988367,28.7223061 C17.1637347,27.8700612 17.424551,26.4282245 17.694551,24.7062857 C19.9417959,24.6493469 23.4077143,24.1148571 23.769551,20.5736327 C23.9908776,18.4430204 22.8961837,16.3675102 19.674551,15.6576122 C20.2705714,13.6335306 20.5754694,12.8391429 21.2449592,12.4378163 C23.0614898,11.3431224 30.7555714,12.5847551 33.5327143,14.4949592 C35.2812857,15.6961837 35.3905714,17.4548571 35.3905714,19.9555714 C35.3905714,22.5784286 35.2574082,24.9074082 33.5327143,25.8560816 C26.279449,29.8473061 21.7950612,28.6203673 21.3000612,31.0981224" id="Fill-15" fill="#FEFEFE" mask="url(#mask-2)"></path>
                    </g>
                </g>
            </g>
        </g>
    </g>
</svg>