<?xml version="1.0" encoding="UTF-8"?>
<svg width="75px" height="50px" viewBox="0 0 75 50" version="1.1" xmlns="http://www.w3.org/2000/svg" xmlns:xlink="http://www.w3.org/1999/xlink">
    <title>logo-intel</title>
    <defs>
        <polygon id="path-1" points="0.502537313 0.234626866 58.6932836 0.234626866 58.6932836 33.0174627 0.502537313 33.0174627"></polygon>
        <polygon id="path-3" points="0 49.7653731 74.3649254 49.7653731 74.3649254 0.745970149 0 0.745970149"></polygon>
    </defs>
    <g id="----▶-About" stroke="none" stroke-width="1" fill="none" fill-rule="evenodd">
        <g id="About" transform="translate(-1113.000000, -1419.000000)">
            <g id="Block-/-Experience" transform="translate(0.000000, 1251.000000)">
                <g id="1/4" transform="translate(1012.000000, 168.000000)">
                    <g id="logo-intel" transform="translate(101.000000, 0.000000)">
                        <path d="M0,29.5009701 L0,31.483806 C0,34.9830597 1.38731343,38.0927612 2.8,40.2099254 C4.4,42.6069403 6.53134328,44.0241045 8.97313433,45.5636567 C10.8992537,46.7778358 14.7902985,48.125597 17.4186567,48.645 C20.6589552,49.2852985 23.9283582,49.7651493 27.8246269,49.7651493 L29.7455224,49.7651493 C41.7208955,49.7651493 53.888806,46.2882836 61.7223881,42.1420149 L61.7223881,36.5039552 C59.6029851,37.625597 56.9932836,39.106194 54.5462687,39.8621642 C54.0261194,40.0226119 53.2067164,40.3778358 52.661194,40.5800746 C51.9902985,40.8278358 51.3320896,40.9905224 50.6679104,41.2509701 C49.6746269,41.6427612 47.6716418,42.1778358 46.5641791,42.4166418 C45.138806,42.7218657 43.7835821,43.1084328 42.2895522,43.4084328 C40.7492537,43.7166418 39.3768657,43.8823134 37.7776119,44.1629104 C36.2977612,44.4233582 34.5462687,44.5129104 32.9679104,44.6218657 C31.319403,44.7352985 29.6089552,44.8076866 27.8246269,44.8076866 L27.4529851,44.8076866 C21.1022388,44.8076866 15.0440299,43.8091791 10.8037313,41.6882836 C6.72537313,39.6487313 2.91268657,35.8673881 2.91268657,29.8106716 L2.91268657,29.253209 C2.91268657,26.4039552 3.78731343,24.214403 4.61044776,22.1509701 C4.97164179,21.2457463 5.65298507,20.0912687 6.17238806,19.3129104 C6.49701493,18.8263433 6.76044776,18.4726119 7.10074627,18.0106716 C7.40522388,17.5972388 7.87985075,17.1524627 8.11791045,16.7972388 L8.11791045,14.8136567 C7.12985075,15.475597 6.09179104,16.7770896 5.25373134,17.6502239 C4.30223881,18.6412687 3.59701493,19.7464925 2.81343284,20.9114179 C1.65,22.6412687 0,26.6658955 0,29.5009701" id="Fill-1" fill="#FFFFFF"></path>
                        <g id="Group-5" transform="translate(15.671642, 0.511642)">
                            <mask id="mask-2" fill="white">
                                <use xlink:href="#path-1"></use>
                            </mask>
                            <g id="Clip-4"></g>
                            <path d="M58.6935821,18.268209 L58.6935821,16.471194 C58.6726866,16.4383582 58.4047761,14.4607463 58.3592537,14.2025373 C58.2420896,13.5547761 58.0070149,12.7271642 57.7831343,12.1756716 C57.2234328,10.798806 56.7577612,9.86820896 55.921194,8.76970149 C54.3741791,6.73761194 52.5301493,5.26820896 50.2241791,3.99358209 C45.9920896,1.65253731 39.5510448,0.234626866 32.9749254,0.234626866 L32.418209,0.234626866 C25.6331343,0.234626866 20.0226866,1.36298507 14.7189552,2.86223881 C13.3189552,3.25850746 12.179403,3.66746269 10.8749254,4.09955224 C9.79507463,4.45776119 8.21298507,5.05626866 7.23537313,5.54208955 C6.07716418,6.11820896 4.92119403,6.61298507 3.78686567,7.17492537 C3.1861194,7.47268657 0.878656716,8.88537313 0.502537313,8.97268657 L0.502537313,10.46 C1.01373134,10.340597 2.89731343,9.30029851 3.62119403,8.99283582 C4.62567164,8.56522388 5.8861194,7.93089552 6.8980597,7.62119403 C7.35626866,7.48089552 8.11447761,7.19432836 8.56895522,7.00029851 C9.1219403,6.76447761 9.69955224,6.62119403 10.2861194,6.42343284 C11.4047761,6.04880597 12.6555224,5.62641791 13.8391045,5.32940299 C16.3891045,4.68985075 18.6346269,4.17044776 21.4234328,3.67940299 C23.798806,3.26074627 27.1413433,2.83761194 29.8152239,2.83761194 L32.6032836,2.83761194 C38.0331343,2.83761194 43.9107463,4.08462687 47.3935821,6.01895522 C49.5062687,7.19358209 50.9264179,8.18164179 52.3838806,10.0152239 C53.4816418,11.3965672 54.8510448,14.1532836 54.8510448,16.5950746 L54.8510448,17.6480597 C54.8510448,20.2226866 53.5137313,22.9898507 52.3973134,24.490597 C51.7204478,25.4010448 51.0510448,26.2122388 50.2197015,26.96 C49.8159701,27.3249254 47.9301493,28.8219403 47.4764179,28.9271642 L47.4764179,33.0174627 C48.3510448,32.9443284 50.9786567,31.251791 51.6540299,30.7502985 C52.898806,29.8241791 54.0137313,28.76 54.9644776,27.5525373 C56.0443284,26.1808955 56.6264179,25.1749254 57.4129851,23.4943284 C57.7689552,22.7338806 57.9734328,21.9525373 58.2338806,21.0928358 C58.3376119,20.7435821 58.6853731,18.2801493 58.6935821,18.268209" id="Fill-3" fill="#FFFFFF" mask="url(#mask-2)"></path>
                        </g>
                        <path d="M44.8052239,24.1714179 L44.8052239,24.605 L50.6298507,24.605 L50.6298507,24.2952985 C50.6298507,22.7564925 49.5231343,21.3826119 47.9029851,21.3826119 L47.5932836,21.3826119 C46.1664179,21.3826119 44.8052239,22.774403 44.8052239,24.1714179 M40.9634328,25.6587313 L40.9634328,26.4020149 C40.9634328,30.663209 43.5768657,33.7766418 47.8410448,33.7766418 L48.6462687,33.7766418 C49.938806,33.7766418 50.8597015,33.4639552 51.7843284,33.0714179 C52.7895522,32.6445522 53.3014925,31.9154478 54.0552239,31.4057463 L51.6223881,29.1296269 C51.1425373,29.8452985 49.8149254,30.555 48.5843284,30.555 L47.9029851,30.555 C46.2895522,30.555 44.8052239,29.1826119 44.8052239,27.6415672 L44.8052239,27.2079851 L54.4723881,27.2079851 L54.4723881,25.5348507 C54.4723881,23.5639552 53.7671642,21.6654478 52.9059701,20.5318657 C52.088806,19.4564925 50.4298507,18.2221642 48.5843284,18.2221642 L47.4067164,18.2221642 C45.458209,18.2221642 43.6947761,19.4452985 42.7425373,20.4990299 C41.7716418,21.5736567 40.9634328,23.6214179 40.9634328,25.6587313" id="Fill-6" fill="#FFFFFF"></path>
                        <path d="M18.0951493,33.5288806 L21.875,33.5288806 L21.875,21.5684328 L25.2839552,21.5684328 C26.0354478,21.5684328 26.6473881,22.1497761 26.6473881,22.8699254 L26.6473881,33.5288806 L30.4891791,33.5288806 L30.4891791,22.9318657 C30.4891791,20.4176866 28.7779851,18.4699254 26.275,18.4699254 L18.0951493,18.4699254 L18.0951493,33.5288806 Z" id="Fill-8" fill="#FFFFFF"></path>
                        <path d="M33.2781343,29.0665672 C33.2781343,31.6120896 34.9326119,33.5285075 37.4303731,33.5285075 L40.0333582,33.5285075 L40.0333582,30.3061194 L38.1117164,30.3061194 C37.5430597,30.3061194 37.1206716,29.6479104 37.1206716,29.0665672 L37.1206716,21.568806 L40.0333582,21.568806 L40.0333582,18.4695522 L37.1206716,18.4695522 L37.1206716,14.3180597 L33.2781343,14.3180597 L33.2781343,29.0665672 Z" id="Fill-10" fill="#FFFFFF"></path>
                        <path d="M56.7032836,29.8726119 C56.7032836,30.9009701 57.3264179,31.833806 57.8644776,32.3688806 C58.1532836,32.6547015 58.6092537,32.8912687 59.0323881,33.0599254 C59.6241791,33.295 59.9301493,33.2621642 60.5450746,33.4047015 L60.5450746,12.2106716 L56.7032836,12.2106716 L56.7032836,29.8726119 Z" id="Fill-12" fill="#FFFFFF"></path>
                        <path d="M10.7676866,22.001791 L10.7826119,29.5010448 C10.7826119,32.0413433 12.2721642,33.6607463 14.6863433,33.7144776 L14.6863433,18.4697015 L10.8587313,18.4704478 L10.7676866,22.001791 Z" id="Fill-14" fill="#FFFFFF"></path>
                        <mask id="mask-4" fill="white">
                            <use xlink:href="#path-3"></use>
                        </mask>
                        <g id="Clip-17"></g>
                        <polygon id="Fill-16" fill="#FFFFFF" mask="url(#mask-4)" points="10.8447761 16.3631343 14.6865672 16.3631343 14.6865672 12.7064179 10.8447761 12.7064179"></polygon>
                        <path d="M64.2840299,13.6518657 L64.6079104,13.6518657 C64.7623881,13.6518657 64.8676119,13.6279851 64.9243284,13.5824627 C64.9810448,13.536194 65.009403,13.475 65.009403,13.3988806 C65.009403,13.3503731 64.9952239,13.3063433 64.9676119,13.266791 C64.9407463,13.2287313 64.9034328,13.1996269 64.8556716,13.1809701 C64.8064179,13.1615672 64.7168657,13.1526119 64.5870149,13.1526119 L64.2840299,13.1526119 L64.2840299,13.6518657 Z M64.0161194,14.583209 L64.0161194,12.9279851 L64.5840299,12.9279851 C64.778806,12.9279851 64.9198507,12.9429104 65.0071642,12.9735075 C65.0944776,13.0041045 65.1631343,13.0578358 65.2146269,13.133209 C65.2661194,13.2100746 65.2922388,13.2906716 65.2922388,13.3764925 C65.2922388,13.4973881 65.2489552,13.6026119 65.1631343,13.6921642 C65.0765672,13.7824627 64.9616418,13.8324627 64.8191045,13.8436567 C64.8773134,13.8675373 64.9243284,13.8966418 64.959403,13.9309701 C65.0265672,13.9958955 65.1079104,14.105597 65.2041791,14.2593284 L65.4064179,14.583209 L65.0795522,14.583209 L64.9332836,14.3220149 C64.8176119,14.1175373 64.7250746,13.9884328 64.6541791,13.9369403 C64.6056716,13.8988806 64.5332836,13.8802239 64.44,13.8802239 L64.2840299,13.8802239 L64.2840299,14.583209 L64.0161194,14.583209 Z M64.6907463,12.4488806 C64.4750746,12.4488806 64.2646269,12.5041045 64.059403,12.6145522 C63.8556716,12.7257463 63.6952239,12.8847015 63.5795522,13.0899254 C63.4638806,13.2958955 63.4056716,13.5100746 63.4056716,13.733209 C63.4056716,13.9548507 63.4631343,14.166791 63.5765672,14.3697761 C63.6907463,14.5735075 63.8489552,14.7317164 64.0519403,14.8451493 C64.2571642,14.9585821 64.4691045,15.0160448 64.6907463,15.0160448 C64.9123881,15.0160448 65.1250746,14.9585821 65.328806,14.8451493 C65.5332836,14.7317164 65.6907463,14.5735075 65.8034328,14.3697761 C65.9168657,14.166791 65.9728358,13.9548507 65.9728358,13.733209 C65.9728358,13.5100746 65.9161194,13.2958955 65.801194,13.0899254 C65.6862687,12.8847015 65.5258209,12.7257463 65.320597,12.6145522 C65.1153731,12.5041045 64.9056716,12.4488806 64.6907463,12.4488806 L64.6907463,12.4488806 Z M64.6907463,12.1936567 C64.9497015,12.1936567 65.201194,12.2600746 65.4474627,12.3929104 C65.6937313,12.525 65.8855224,12.7145522 66.0220896,12.9615672 C66.159403,13.2078358 66.2273134,13.4652985 66.2273134,13.733209 C66.2273134,13.9981343 66.1608955,14.2533582 66.0250746,14.4973881 C65.89,14.7421642 65.6997015,14.9324627 65.4564179,15.0675373 C65.2123881,15.2033582 64.9571642,15.2705224 64.6907463,15.2705224 C64.4243284,15.2705224 64.1691045,15.2033582 63.9258209,15.0675373 C63.6810448,14.9324627 63.4914925,14.7421642 63.3556716,14.4973881 C63.2191045,14.2533582 63.151194,13.9981343 63.151194,13.733209 C63.151194,13.4652985 63.2198507,13.2078358 63.3586567,12.9615672 C63.4959701,12.7145522 63.6877612,12.525 63.9340299,12.3929104 C64.1795522,12.2600746 64.4325373,12.1936567 64.6907463,12.1936567 L64.6907463,12.1936567 Z" id="Fill-18" fill="#FFFFFF" mask="url(#mask-4)"></path>
                    </g>
                </g>
            </g>
        </g>
    </g>
</svg>