<?xml version="1.0" encoding="UTF-8"?>
<svg width="222px" height="46px" viewBox="0 0 222 46" version="1.1" xmlns="http://www.w3.org/2000/svg" xmlns:xlink="http://www.w3.org/1999/xlink">
    <title>logo-aisac</title>
    <g id="----▶-About" stroke="none" stroke-width="1" fill="none" fill-rule="evenodd">
        <g id="About" transform="translate(-756.000000, -1423.000000)" fill="#FFFFFF">
            <g id="Block-/-Experience" transform="translate(0.000000, 1251.000000)">
                <g id="1/4" transform="translate(727.000000, 172.000000)">
                    <g id="logo-aisac" transform="translate(29.000000, 0.000000)">
                        <polygon id="Fill-4" points="51.8662705 5.68928881 51.8662705 7.54729267 49.185581 7.54729267 49.185581 16.8727507 46.7769262 16.8727507 46.7769262 7.54729267 44.0964055 7.54729267 44.0964055 5.68928881"></polygon>
                        <g id="Group-75" transform="translate(0.000000, 0.055689)">
                            <path d="M56.9722203,16.8168081 L56.9722203,11.4264031 C56.9722203,10.7289344 56.844472,10.1872276 56.1267527,10.1872276 C55.4090333,10.1872276 55.281285,10.7289344 55.281285,11.4264031 L55.281285,16.8168081 L53.0321046,16.8168081 L53.0321046,5.63334619 L55.281285,5.63334619 L55.281285,9.78474446 L55.3128423,9.78474446 C55.5356003,9.42782546 55.8064537,9.19612343 56.1103833,9.05706847 C56.4293322,8.90130665 56.7975579,8.83937319 57.2113476,8.83937319 C58.279742,8.83937319 59.2214007,9.45938284 59.2214007,10.5427965 L59.2214007,16.8168081 L56.9722203,16.8168081 Z" id="Fill-5"></path>
                            <path d="M65.3003472,12.030499 C65.3003472,11.2710969 65.3319045,10.1876832 64.2636789,10.1876832 C63.2259981,10.1876832 63.2423521,11.3647565 63.2423521,12.030499 L65.3003472,12.030499 Z M63.2423674,13.2543177 C63.2423674,14.1834884 63.2739248,15.5780882 64.2636789,15.5780882 C65.0612199,15.5780882 65.2205256,14.8340429 65.2205256,14.1834884 L67.5026133,14.1834884 C67.4697059,15.0352001 67.1823144,15.7325 66.6406075,16.2122734 C66.1140887,16.6932281 65.3167165,16.9716755 64.2636789,16.9716755 C61.3590501,16.9716755 60.9768177,15.2528954 60.9768177,12.8050892 C60.9768177,10.6674566 61.2957666,8.83982883 64.2636789,8.83982883 C67.2950434,8.83982883 67.6291803,10.7445781 67.5495275,13.2543177 L63.2423674,13.2543177 Z" id="Fill-7"></path>
                            <path d="M76.8827146,7.78621745 L76.8511572,7.78621745 L75.7500241,12.6185463 L78.0471311,12.6185463 L76.8827146,7.78621745 Z M72.2402363,16.8168587 L75.4309065,5.63339682 L78.6065574,5.63339682 L81.7327628,16.8168587 L79.1963597,16.8168587 L78.5584619,14.3386765 L75.2716008,14.3386765 L74.6171649,16.8168587 L72.2402363,16.8168587 Z" id="Fill-9"></path>
                            <path d="M85.0516369,8.99445998 L85.0516369,10.0019335 L85.0831943,10.0019335 C85.4983341,9.10330762 86.264149,8.84004822 87.1729002,8.84004822 L87.1729002,10.7917117 C85.1959233,10.667676 85.1630159,11.7826471 85.1630159,12.5572372 L85.1630159,16.8163018 L82.9140043,16.8163018 L82.9140043,8.99445998 L85.0516369,8.99445998 Z" id="Fill-11"></path>
                            <path d="M87.4765092,8.99445998 L88.3866104,8.99445998 L88.3866104,7.75528447 L90.635622,6.77953713 L90.635622,8.99445998 L91.8000386,8.99445998 L91.8000386,10.3423144 L90.635622,10.3423144 L90.635622,14.5242575 C90.635622,15.1127097 90.6192527,15.5000048 91.3533414,15.5000048 C91.4976278,15.5000048 91.6405641,15.5000048 91.7519431,15.4696287 L91.7519431,16.8163018 C91.4493635,16.848028 91.1304147,16.8947734 90.5875265,16.8947734 C88.6409257,16.8947734 88.3866104,15.6392285 88.3866104,15.1594552 L88.3866104,10.3423144 L87.4765092,10.3423144 L87.4765092,8.99445998 Z" id="Fill-13"></path>
                            <polygon id="Fill-15" points="96.7933944 16.8165381 99.2018804 16.8165381 99.2018804 5.63307618 96.7933944 5.63307618"></polygon>
                            <path d="M103.526625,9.78442382 L103.558182,9.78442382 C103.78229,9.42885487 104.053144,9.19597155 104.356905,9.05674783 C104.674503,8.90098602 105.042898,8.83905256 105.456856,8.83905256 C106.526263,8.83905256 107.466572,9.45923095 107.466572,10.5438259 L107.466572,16.8164875 L105.21756,16.8164875 L105.21756,11.4260824 C105.21756,10.7299638 105.089643,10.188257 104.372093,10.188257 C103.654373,10.188257 103.526625,10.7299638 103.526625,11.4260824 L103.526625,16.8164875 L101.277445,16.8164875 L101.277445,8.99464561 L103.526625,8.99464561 L103.526625,9.78442382 Z" id="Fill-17"></path>
                            <path d="M111.184672,14.3074735 C111.168134,14.6630424 111.184672,15.0047734 111.296051,15.2530135 C111.423799,15.4997348 111.663095,15.6237705 112.109793,15.6237705 C112.556659,15.6237705 112.938891,15.345323 112.938891,14.8188042 C112.938891,13.1607763 108.983756,13.5328833 108.983756,11.039513 C108.983756,9.35110897 110.706249,8.83977821 112.158057,8.83977821 C113.689349,8.83977821 115.077874,9.55226615 114.949957,11.240839 L112.74769,11.240839 C112.74769,10.6977821 112.684576,10.3737705 112.524932,10.2331967 C112.380646,10.095323 112.189614,10.0637657 111.950487,10.0637657 C111.455526,10.0637657 111.184672,10.3737705 111.184672,10.9002893 C111.184672,12.139296 115.141157,12.0773626 115.141157,14.5859209 C115.141157,15.9491321 113.993279,16.9717936 112.124981,16.9717936 C110.163192,16.9717936 108.855839,16.4920203 108.983756,14.3074735 L111.184672,14.3074735 Z" id="Fill-18"></path>
                            <path d="M115.747514,8.99445998 L116.657616,8.99445998 L116.657616,7.75528447 L118.906627,6.77953713 L118.906627,8.99445998 L120.071044,8.99445998 L120.071044,10.3423144 L118.906627,10.3423144 L118.906627,14.5242575 C118.906627,15.1127097 118.890258,15.5000048 119.624347,15.5000048 C119.767283,15.5000048 119.911569,15.5000048 120.022948,15.4696287 L120.022948,16.8163018 C119.720369,16.848028 119.400239,16.8947734 118.858532,16.8947734 C116.911931,16.8947734 116.657616,15.6392285 116.657616,15.1594552 L116.657616,10.3423144 L115.747514,10.3423144 L115.747514,8.99445998 Z" id="Fill-19"></path>
                            <path d="M121.442237,16.8165381 L123.692599,16.8165381 L123.692599,8.99469624 L121.442237,8.99469624 L121.442237,16.8165381 Z M121.442237,7.35320636 L123.692599,7.35320636 L123.692599,5.63442623 L121.442237,5.63442623 L121.442237,7.35320636 Z" id="Fill-20"></path>
                            <path d="M124.936567,8.99445998 L125.846668,8.99445998 L125.846668,7.75528447 L128.09568,6.77953713 L128.09568,8.99445998 L129.260096,8.99445998 L129.260096,10.3423144 L128.09568,10.3423144 L128.09568,14.5242575 C128.09568,15.1127097 128.079311,15.5000048 128.81323,15.5000048 C128.957517,15.5000048 129.101803,15.5000048 129.213182,15.4696287 L129.213182,16.8163018 C128.909421,16.848028 128.590473,16.8947734 128.047584,16.8947734 C126.102165,16.8947734 125.846668,15.6392285 125.846668,15.1594552 L125.846668,10.3423144 L124.936567,10.3423144 L124.936567,8.99445998 Z" id="Fill-21"></path>
                            <path d="M134.381791,16.0269286 L134.350234,16.0269286 C133.903368,16.7242285 133.297027,16.9722999 132.45156,16.9722999 C131.382153,16.9722999 130.441676,16.3521215 130.441676,15.2675265 L130.441676,8.994865 L132.690687,8.994865 L132.690687,14.4156461 C132.690687,15.1131148 132.818604,15.6244455 133.536155,15.6244455 C134.253874,15.6244455 134.381791,15.1131148 134.381791,14.4156461 L134.381791,8.994865 L136.632153,8.994865 L136.632153,15.2675265 C136.632153,15.7788573 136.66371,16.3053761 136.711974,16.8167068 L134.381791,16.8167068 L134.381791,16.0269286 Z" id="Fill-22"></path>
                            <path d="M137.668247,8.99445998 L138.578349,8.99445998 L138.578349,7.75528447 L140.827529,6.77953713 L140.827529,8.99445998 L141.991777,8.99445998 L141.991777,10.3423144 L140.827529,10.3423144 L140.827529,14.5242575 C140.827529,15.1127097 140.812341,15.5000048 141.546261,15.5000048 C141.689366,15.5000048 141.832471,15.5000048 141.945031,15.4696287 L141.945031,16.8163018 C141.64127,16.848028 141.322322,16.8947734 140.780615,16.8947734 C138.834014,16.8947734 138.578349,15.6392285 138.578349,15.1594552 L138.578349,10.3423144 L137.668247,10.3423144 L137.668247,8.99445998 Z" id="Fill-23"></path>
                            <path d="M147.305145,12.030499 C147.305145,11.2710969 147.338052,10.1876832 146.268476,10.1876832 C145.230627,10.1876832 145.247149,11.3647565 145.247149,12.030499 L147.305145,12.030499 Z M145.247165,13.2543177 C145.247165,14.1834884 145.278722,15.5780882 146.268476,15.5780882 C147.065849,15.5780882 147.225323,14.8340429 147.225323,14.1834884 L149.507411,14.1834884 C149.474335,15.0352001 149.187112,15.7325 148.645405,16.2122734 C148.118886,16.6932281 147.321683,16.9716755 146.268476,16.9716755 C143.365029,16.9716755 142.981615,15.2528954 142.981615,12.8050892 C142.981615,10.6674566 143.300564,8.83982883 146.268476,8.83982883 C149.299841,8.83982883 149.635328,10.7445781 149.554156,13.2543177 L145.247165,13.2543177 Z" id="Fill-24"></path>
                            <path d="M49.9686765,39.5820636 C50.1281509,39.5820636 50.1521143,39.5655256 50.1597083,39.3908631 L50.2319359,38.0443587 C50.2395299,37.8683462 50.2319359,37.7493732 50.2395299,37.5581726 L50.2243419,37.5581726 C50.1686524,37.6530135 50.0572734,37.821432 49.8407594,38.1391996 L48.9725096,39.4377772 C48.8928568,39.5579315 48.9092261,39.5820636 49.116796,39.5820636 L49.9686765,39.5820636 Z M48.8776688,39.9401639 C48.6383727,39.9401639 48.6383727,39.949108 48.5030304,40.1629219 L47.9523795,41.0477097 C47.7537536,41.3742527 47.6980641,41.4868129 47.6980641,41.5425024 C47.6980641,41.5981919 47.7537536,41.629918 47.89669,41.6538814 L48.1523554,41.7021456 C48.2156389,41.748891 48.1992695,41.8854147 48.128392,41.9323288 C47.792905,41.9171408 47.5385897,41.9083655 47.2120468,41.9083655 C46.9170612,41.9083655 46.6463766,41.9171408 46.3829484,41.9323288 C46.3108896,41.8854147 46.3108896,41.748891 46.3753544,41.7021456 L46.574149,41.6690694 C46.8930979,41.622324 47.0284402,41.5261331 47.3144817,41.1197686 C47.4196167,40.9768322 48.1764875,39.9325699 48.4713042,39.502242 L49.7459185,37.6695516 C50.0483293,37.2392237 50.2153978,36.9607763 50.2395299,36.8164899 C50.5267527,36.8013018 50.8217382,36.5937319 50.9570805,36.5215043 C51.020364,36.5215043 51.0849976,36.5545805 51.0849976,36.61027 C51.0849976,36.736837 51.0684595,37.0721553 51.0444961,37.7569672 C51.01277,38.7769286 50.9888067,39.8046528 50.9722686,40.824783 C50.9570805,41.5500964 50.9888067,41.629918 51.3874084,41.6780135 L51.578609,41.7021456 C51.6267044,41.7578351 51.6101663,41.8930087 51.5468828,41.9323288 C51.2115646,41.9171408 50.8926157,41.9083655 50.5103833,41.9083655 C50.1040188,41.9083655 49.7774759,41.9171408 49.5307546,41.9323288 C49.4345636,41.8930087 49.443339,41.748891 49.5066225,41.7021456 L49.7217864,41.6690694 C50.0572734,41.6133799 50.0964248,41.5576905 50.1129629,41.1830521 L50.1597083,40.1237705 C50.1686524,39.956702 50.1281509,39.9401639 49.9217623,39.9401639 L48.8776688,39.9401639 Z" id="Fill-25"></path>
                            <path d="M54.3570757,41.143715 C54.3570757,40.6171962 54.6836186,39.8287681 55.2582329,39.2629291 C55.6796167,38.8489706 56.1025193,38.6581075 56.5252531,38.6581075 C56.9390429,38.6581075 57.2174904,38.8806967 57.2098963,39.1996456 C57.2098963,39.5096504 56.9150796,39.6375675 56.731473,39.6375675 C56.5961307,39.6375675 56.4999397,39.5579147 56.4923457,39.4148095 C56.4771577,39.2389658 56.4999397,38.9755376 56.2935511,38.9755376 C56.1340767,38.9755376 55.9265068,39.1363621 55.7037488,39.4856871 C55.4570275,39.8766948 55.2025434,40.4664971 55.2025434,41.0475241 C55.2025434,41.4069744 55.3378857,41.5259474 55.5290863,41.5259474 C55.7670323,41.5259474 56.0544238,41.3752483 56.3809667,41.0399301 C56.4771577,41.0399301 56.5404412,41.1045636 56.5252531,41.1994045 C56.2302676,41.589231 55.6480593,42.0195588 55.058257,42.0195588 C54.6279291,42.0195588 54.3570757,41.7183293 54.3570757,41.143715" id="Fill-26"></path>
                            <path d="M58.9859185,39.4464344 C58.5404026,39.9324518 58.1252628,40.833609 58.1087247,41.3589465 C58.1087247,41.4463621 58.1404508,41.5182522 58.2050844,41.5182522 C58.3328327,41.5182522 58.6669696,41.2310294 59.0174759,40.8805231 C59.4162464,40.4577893 59.7819407,39.749014 59.8933197,39.3818009 C59.8313862,39.1921191 59.7034691,39.1035222 59.5441635,39.1035222 C59.3681509,39.1035222 59.2415839,39.1757498 58.9859185,39.4464344 L58.9859185,39.4464344 Z M60.3084595,38.5300892 C60.3401856,38.5137199 60.4046504,38.4985318 60.4679339,38.4985318 C60.6199831,38.4985318 60.8425723,38.5452772 60.9134499,38.6897324 C60.6908607,39.2073071 60.1807112,40.5222541 59.8870757,41.3513525 C59.8465743,41.4539561 59.8783004,41.4942888 59.9262271,41.4942888 C60.0452001,41.4942888 60.3730931,41.310851 60.722418,40.9765453 C60.7868828,40.9765453 60.8501663,41.0234595 60.8501663,41.1272445 C60.4996601,41.5739417 59.8783004,42.0196263 59.3681509,42.0196263 C59.1769503,42.0196263 59.1048915,41.8601519 59.1048915,41.7651422 C59.1048915,41.6854894 59.1290236,41.5980738 59.1858944,41.4385993 L59.4719359,40.6817285 L59.4478038,40.6817285 C58.8897276,41.4385993 58.0935366,42.0196263 57.6316514,42.0196263 C57.375986,42.0196263 57.2013235,41.7968684 57.2013235,41.5423843 C57.2013235,41.2310294 57.5202724,40.4272445 58.1342068,39.7338259 C58.4909571,39.3350554 58.8580014,39.0869841 59.1290236,38.943879 C59.3681509,38.8162994 59.5591827,38.7692165 59.7517334,38.7692165 C59.8150169,38.7692165 59.8783004,38.8009426 59.9338211,38.824906 C59.9743226,38.8490381 60.0541442,38.9123216 60.1022396,38.9756051 L60.3084595,38.5300892 Z" id="Fill-27"></path>
                            <path d="M63.024284,39.0716779 L62.5623987,40.2512825 L62.5787681,40.2512825 C63.0799735,39.4778737 63.7900988,38.6578881 64.4038645,38.6578881 C64.8898819,38.6578881 64.8659185,39.1045853 64.801285,39.3513067 C64.7543708,39.5183751 64.570933,39.9804291 64.4430159,40.2830087 L64.459554,40.2830087 C65.1050458,39.2387464 65.7505376,38.6578881 66.3074325,38.6578881 C66.6579388,38.6578881 66.8023939,38.8804773 66.8023939,39.1197734 C66.8023939,39.2704725 66.7377604,39.5183751 66.6579388,39.7337078 C66.5150024,40.1233655 66.13277,40.9929653 65.9974277,41.3107329 C65.9567575,41.4069238 65.9567575,41.4702073 66.021391,41.4702073 C66.1643274,41.4702073 66.5301905,41.1841659 66.7542985,40.9285005 C66.8491393,40.9119624 66.8972348,40.9765959 66.8972348,41.0726181 C66.6579388,41.5258968 65.9884836,42.0195082 65.3669552,42.0195082 C65.2240188,42.0195082 65.0810824,41.8764031 65.0810824,41.7650241 C65.0810824,41.6700145 65.1278279,41.5574542 65.2392068,41.2955448 C65.4467768,40.8171215 65.7176302,40.1716297 65.908662,39.6856123 C65.9732956,39.5259691 66.0365791,39.3351061 66.0365791,39.214783 C66.0365791,39.1363115 66.021391,39.0716779 65.9176061,39.0716779 C65.7657257,39.0716779 65.4709089,39.3033799 65.0885077,39.7893973 C64.6747179,40.3145661 64.2987295,41.0878062 63.8925338,41.8764031 C63.8368443,41.9877821 63.7735608,42.0195082 63.6469937,42.0195082 C63.4228857,42.0195082 63.1837584,41.972594 63.248392,41.7815622 C63.2634113,41.733298 63.8849397,40.1083462 64.0609523,39.6856123 C64.108879,39.5742334 64.2038886,39.3513067 64.2038886,39.2311524 C64.2038886,39.1363115 64.1721625,39.0716779 64.0849156,39.0716779 C63.9090718,39.0716779 63.5988983,39.2944359 63.2001278,39.8045853 C62.801526,40.3145661 62.4268877,41.0878062 62.0522493,41.8764031 C62.0041538,41.9877821 61.9408703,42.0195082 61.8129532,42.0195082 C61.5738259,42.0195082 61.3600121,41.972594 61.4155328,41.7815622 C61.4384836,41.7017406 62.1801663,39.6690743 62.2508751,39.4463163 C62.3231027,39.2387464 62.3079147,39.1754629 62.1951856,39.1754629 C61.9408703,39.1754629 61.6863862,39.4311283 61.5269118,39.6209788 C61.4472589,39.6209788 61.3826254,39.5576953 61.3826254,39.4778737 C61.6067334,39.0401205 62.0686186,38.6578881 62.7699687,38.6578881 C63.0571914,38.6578881 63.0965116,38.8882401 63.024284,39.0716779" id="Fill-28"></path>
                            <path d="M68.5209547,41.2951736 C68.4893973,41.3911958 68.4893973,41.4862054 68.5450868,41.5748023 C68.5854195,41.6380858 68.6728351,41.7330955 68.7842141,41.7330955 C68.9031871,41.7330955 69.237324,41.6141225 69.5093587,41.215352 C69.8359016,40.7293346 70.0195082,40.1560704 70.0195082,39.7167985 C70.0195082,39.2876519 69.7486548,39.1043828 69.4778014,39.1043828 C69.3979797,39.1043828 69.350053,39.1118081 69.3017888,39.1194021 L68.5209547,41.2951736 Z M69.3816104,38.8004532 C69.4612633,38.7852652 69.5410849,38.7852652 69.6372758,38.7852652 C70.3384571,38.7852652 70.8636258,39.1194021 70.8636258,39.8129894 C70.8636258,40.3938476 70.5131196,40.992594 70.0346962,41.4381099 C69.5891803,41.8610125 68.999378,42.0203182 68.6323337,42.0203182 C68.5538621,42.0203182 68.4576712,41.9885921 68.3614802,41.9570347 C68.2981967,41.9722228 68.2666393,42.0203182 68.2335632,42.1001398 L67.8918322,43.1113259 C67.7401205,43.5504291 67.7325265,43.6935342 68.0183992,43.7174976 L68.3538862,43.7492237 C68.4171697,43.7973192 68.4019817,43.9328303 68.3057907,43.9643877 C67.6527049,43.9643877 66.9832498,43.9885198 66.3301639,44.0442093 C66.2503423,43.9961138 66.2338042,43.8695468 66.2984378,43.8138573 L66.5211958,43.7807811 C66.9034282,43.7250916 66.9591176,43.5580231 67.1109981,43.1276953 L68.4893973,39.2383751 C68.2335632,39.2876519 67.9627097,39.4142189 67.6918563,39.5586741 C67.5970154,39.542136 67.54892,39.430757 67.5970154,39.3661234 C67.8513308,39.1750916 68.2666393,38.9599277 68.6171456,38.8650868 L68.8550916,38.2676905 C68.9031871,38.2030569 69.0159161,38.1878689 69.1588525,38.1878689 C69.350053,38.1878689 69.5245468,38.2676905 69.557623,38.330974 L69.3816104,38.8004532 Z" id="Fill-29"></path>
                            <path d="M72.4324325,39.4380304 C72.480528,39.3102821 72.4715839,39.2318105 72.4083004,39.2318105 C72.2488259,39.2318105 71.8907257,39.5418153 71.6755617,39.764742 C71.5957401,39.749554 71.5324566,39.7014585 71.5476446,39.6064489 C71.8021287,39.2394045 72.480528,38.6585463 73.0627363,38.6585463 C73.2208607,38.6585463 73.3651471,38.8003014 73.3651471,38.944419 C73.3651471,38.9761451 73.3487777,39.070986 73.3170516,39.1597517 L72.4968973,41.2074373 C72.4400265,41.3505424 72.4715839,41.430364 72.5525868,41.430364 C72.6475964,41.430364 72.8551663,41.2631268 73.1336138,41.0000362 C73.7954749,40.3621384 74.3208124,39.3355955 74.6321673,38.6889224 C74.6954508,38.6647903 74.7751037,38.6585463 74.8712946,38.6585463 C75.0459571,38.6585463 75.2295636,38.7370178 75.268715,38.8166707 C75.0700892,39.3355955 74.6561307,40.3785077 74.3284065,41.2467575 C74.2890863,41.3746745 74.2890863,41.4631027 74.3689079,41.4631027 C74.5118443,41.4631027 74.9269841,41.1112464 75.1333727,40.8810632 C75.2130256,40.8810632 75.2776591,40.9126205 75.2776591,41.0239995 C75.0535511,41.415176 74.2890863,42.0201663 73.7310101,42.0201663 C73.5563476,42.0201663 73.4208365,41.8605231 73.4917141,41.6694913 L73.9866755,40.3861017 L73.9701374,40.3861017 C73.468932,41.0557257 72.5362175,42.0201663 72.0096986,42.0201663 C71.7869407,42.0201663 71.6274662,41.8289658 71.6274662,41.6377652 C71.6274662,41.5263862 71.6679677,41.3910439 71.7236572,41.2467575 L72.4324325,39.4380304 Z" id="Fill-30"></path>
                            <path d="M75.435176,41.5021528 C75.435176,41.3274904 75.5629243,41.1199204 75.7375868,41.1199204 C75.8022203,41.1199204 75.8579098,41.1681847 75.9135993,41.2314682 C76.1199879,41.4540574 76.2958317,41.5895685 76.5185897,41.5895685 C76.6868394,41.5895685 76.8375386,41.4705955 76.8375386,41.3033582 C76.8375386,41.0402676 76.5908173,40.7616514 76.4389368,40.5694383 C76.2160101,40.2832281 76.1047999,40.0125434 76.1047999,39.8123987 C76.1047999,39.4784306 76.2806437,39.2074084 76.5666851,38.9606871 C76.7894431,38.7696553 77.0768346,38.6581075 77.2844045,38.6581075 C77.6500988,38.6581075 77.9209523,38.9277797 77.9209523,39.2074084 C77.9209523,39.4227411 77.7462898,39.5417141 77.6666369,39.5417141 C77.5944094,39.5417141 77.5387199,39.5099879 77.4919744,39.4467044 C77.2678664,39.1910391 77.1401181,39.1036234 76.9337295,39.1036234 C76.757717,39.1036234 76.6628761,39.2391345 76.6628761,39.3505135 C76.6628761,39.6139417 76.9261355,39.8441249 77.0692406,40.0365068 C77.2994238,40.3465116 77.4273409,40.5694383 77.4109716,40.8806244 C77.4109716,41.1516466 77.2678664,41.4540574 76.9652869,41.7021287 C76.7261596,41.9007546 76.4072107,42.0197276 76.0730738,42.0197276 C75.7375868,42.0197276 75.435176,41.7806003 75.435176,41.5021528" id="Fill-31"></path>
                            <path d="M82.063474,41.2631943 C82.3508655,40.8494045 82.7330979,39.8925579 82.7330979,39.3749831 C82.7330979,39.1596504 82.7013717,38.9444865 82.4774325,38.9444865 C82.3343274,38.9444865 82.1672589,39.0317334 81.9610391,39.2951615 C81.5850506,39.7811789 81.1712608,40.7290815 81.1712608,41.3188838 C81.1712608,41.5581798 81.2750458,41.7326736 81.4584836,41.7326736 C81.6496842,41.7326736 81.8243467,41.6061066 82.063474,41.2631943 M81.2750458,39.1913766 C81.729337,38.7610487 82.1281075,38.6572637 82.4862078,38.6572637 C83.1949831,38.6572637 83.4823746,39.1431123 83.4658365,39.7406774 C83.4658365,40.2354701 83.2191152,40.9607835 82.6850024,41.4707642 C82.2229484,41.9252242 81.7774325,42.0200651 81.4255762,42.0200651 C80.7573023,42.0200651 80.4218153,41.5581798 80.4383534,40.9759716 C80.4535415,40.3949446 80.7814344,39.6380738 81.2750458,39.1913766" id="Fill-32"></path>
                            <path d="M85.7045034,39.119959 C85.43365,39.9159812 85.0666056,41.366608 84.8197155,42.1472734 C84.6197396,42.7688018 84.4045757,43.2472252 84.2059499,43.5030593 C84.0388814,43.7167044 83.6161475,44.0523602 83.1225362,44.0523602 C82.7403038,44.0523602 82.4529122,43.7978761 82.4529122,43.5180786 C82.4529122,43.3029147 82.5960174,43.1434402 82.7554918,43.1434402 C82.8668708,43.1434402 82.9389296,43.1991297 83.0022131,43.3029147 C83.1540935,43.5422107 83.328756,43.7015164 83.4654484,43.7015164 C83.5844214,43.7015164 83.6958004,43.5739368 83.8552748,43.024636 C84.1261283,42.0676205 84.5083607,40.5223216 84.9071311,39.119959 L84.1983558,39.119959 C84.1185342,39.00858 84.1818177,38.8161982 84.2931967,38.769284 L85.0033221,38.769284 C85.1867599,38.1555183 85.3614224,37.6060487 85.6879653,37.1353881 C86.0867358,36.5543611 86.5891225,36.2114489 87.2106509,36.2114489 C87.7042623,36.2114489 88.0066731,36.4986716 88.0066731,36.8252146 C88.0066731,37.1593515 87.7523578,37.3669214 87.5763452,37.3669214 C87.4649662,37.3669214 87.4182208,37.3188259 87.4016827,37.207447 C87.3372179,36.6657401 87.106866,36.4986716 86.9473915,36.4986716 C86.771379,36.4986716 86.5803472,36.6974662 86.4132787,37.0316032 C86.1500193,37.558122 85.9753568,38.1631123 85.7993443,38.769284 L86.7485969,38.769284 C86.8118804,38.8641249 86.780323,39.0553255 86.652406,39.119959 L85.7045034,39.119959 Z" id="Fill-33"></path>
                            <path d="M91.4161692,39.5820636 C91.5756437,39.5820636 91.599607,39.5655256 91.6072011,39.3908631 L91.6794286,38.0443587 C91.6870227,37.8683462 91.6794286,37.7493732 91.6870227,37.5581726 L91.6704846,37.5581726 C91.6149638,37.6530135 91.5035849,37.821432 91.2884209,38.1391996 L90.4201712,39.4377772 C90.3403496,39.5579315 90.3568877,39.5820636 90.5631075,39.5820636 L91.4161692,39.5820636 Z M90.3238115,39.9401639 C90.0860342,39.9401639 90.0860342,39.949108 89.9493419,40.1629219 L89.400041,41.0477097 C89.2012464,41.3742527 89.1455569,41.4868129 89.1455569,41.5425024 C89.1455569,41.5981919 89.2012464,41.629918 89.3443515,41.6538814 L89.5986668,41.7021456 C89.6631316,41.748891 89.6467623,41.8854147 89.5758848,41.9323288 C89.2403978,41.9171408 88.9860824,41.9083655 88.6583582,41.9083655 C88.3633727,41.9083655 88.0925193,41.9171408 87.8304412,41.9323288 C87.7583824,41.8854147 87.7583824,41.748891 87.8216659,41.7021456 L88.0216418,41.6690694 C88.3405906,41.622324 88.4747517,41.5261331 88.7619744,41.1197686 C88.8659282,40.9768322 89.6227989,39.9325699 89.9176157,39.502242 L91.1934113,37.6695516 C91.4959908,37.2392237 91.6628905,36.9607763 91.6870227,36.8164899 C91.9744142,36.8013018 92.269231,36.5937319 92.403392,36.5215043 C92.4678568,36.5215043 92.5311403,36.5545805 92.5311403,36.61027 C92.5311403,36.736837 92.516121,37.0721553 92.4919889,37.7569672 C92.4602628,38.7769286 92.4362994,39.8046528 92.4199301,40.824783 C92.403392,41.5500964 92.4362994,41.629918 92.8350699,41.6780135 L93.0261017,41.7021456 C93.0728472,41.7578351 93.0578279,41.8930087 92.9931943,41.9323288 C92.6590574,41.9171408 92.3401085,41.9083655 91.9578761,41.9083655 C91.5516803,41.9083655 91.2251374,41.9171408 90.9782473,41.9323288 C90.8820564,41.8930087 90.8896504,41.748891 90.954284,41.7021456 L91.1694479,41.6690694 C91.5035849,41.6133799 91.5439176,41.5576905 91.5592743,41.1830521 L91.6072011,40.1237705 C91.6149638,39.956702 91.5756437,39.9401639 91.3680738,39.9401639 L90.3238115,39.9401639 Z" id="Fill-34"></path>
                            <path d="M95.0084957,39.4863115 L94.7300482,40.3064658 L94.7767936,40.3064658 C95.0174397,39.8685439 95.2869431,39.4140839 95.486919,39.1673626 C95.7414031,38.8484137 95.956567,38.6573819 96.1956943,38.6573819 C96.4513597,38.6573819 96.5627387,38.8813211 96.5627387,39.1040791 C96.5627387,39.3508004 96.3793009,39.7407956 96.1324108,39.7407956 C96.0362199,39.7407956 96.0046625,39.6533799 95.9729364,39.5104436 C95.9400289,39.3508004 95.8932835,39.2713163 95.8134619,39.2713163 C95.718621,39.2713163 95.5338332,39.4471601 95.2717551,39.8849132 C94.9769383,40.3621553 94.6414513,41.1353954 94.3149084,41.8924349 C94.275757,41.9884571 94.1718033,42.0201832 94.044055,42.0201832 C93.8845805,42.0201832 93.6061331,41.9720878 93.6783607,41.7493298 C93.8530231,41.2317551 94.2516249,40.1242093 94.4743828,39.3988959 C94.5148843,39.2713163 94.5059402,39.1914947 94.4276374,39.1914947 C94.2516249,39.1914947 93.9973095,39.4140839 93.8049277,39.6381919 C93.7264561,39.6381919 93.6618226,39.5737271 93.6783607,39.4787175 C93.8845805,39.1192671 94.283351,38.6573819 94.7767936,38.6573819 C95.2072903,38.6573819 95.1364127,39.1192671 95.0084957,39.4863115" id="Fill-35"></path>
                            <path d="M98.5379436,38.944284 C98.4101953,38.944284 98.2507208,39.0403062 98.0431509,39.2871962 C97.7722975,39.6139079 97.4379918,40.2833631 97.4379918,40.6578327 C97.4379918,40.8098819 97.5343515,40.9212608 97.6772878,40.9212608 C97.820393,40.9212608 98.0114248,40.7617864 98.2265887,40.4668009 C98.5215743,40.0606051 98.7607015,39.4542647 98.7607015,39.2239127 C98.7607015,39.055663 98.6493226,38.944284 98.5379436,38.944284 M98.6177652,43.2716948 C98.6177652,43.0956823 98.4898481,42.920851 98.2341827,42.7450072 C97.9241779,42.5387874 97.6367864,42.3943322 97.5495395,42.3943322 C97.4621239,42.3943322 97.1824952,42.4982859 97.0154267,42.6260342 C96.8078568,42.7856774 96.6812898,42.9525771 96.6812898,43.1437777 C96.6812898,43.5182473 97.1673071,43.7411741 97.6924759,43.7411741 C98.1076157,43.7411741 98.6177652,43.5828809 98.6177652,43.2716948 M95.9002869,43.2880641 C95.9002869,42.6817237 96.8242261,42.3388115 97.2634981,42.2122445 C97.0635222,42.0843274 96.9685125,41.9805424 96.9685125,41.813474 C96.9685125,41.6465743 97.2634981,41.3350506 97.4064344,41.1919455 C97.150769,41.1276495 96.7609426,40.9212608 96.7609426,40.3706099 C96.7609426,39.9809523 96.9912946,39.4542647 97.4216225,39.0873891 C97.7481654,38.8087729 98.1393419,38.6582425 98.6012271,38.6582425 C98.7126061,38.6582425 98.816391,38.6808558 98.9367141,38.7291201 C99.0479243,38.7772155 99.1353399,38.832905 99.1986234,38.832905 C99.278445,38.832905 99.4227314,38.8163669 99.5492985,38.7848095 C99.6770468,38.7530834 99.8365212,38.7049879 99.9161741,38.7049879 C100.044091,38.7049879 100.139101,38.7848095 100.139101,38.9758414 C100.139101,39.1985993 99.9959957,39.2542888 99.9161741,39.2542888 C99.8365212,39.2542888 99.7568684,39.2391008 99.6770468,39.2149687 C99.5973939,39.1910053 99.4860149,39.1682232 99.4227314,39.1682232 C99.389824,39.1682232 99.3580979,39.1985993 99.3580979,39.2239127 C99.374636,39.2871962 99.4061933,39.4151133 99.4061933,39.4859908 C99.4061933,40.1718153 98.9367141,40.7528423 98.3062416,41.0567719 C98.1557112,41.1276495 97.9481413,41.1757449 97.7253833,41.2073023 C97.6609185,41.255229 97.5810969,41.3515887 97.5810969,41.4464296 C97.5810969,41.5338452 97.7329773,41.6933197 97.9962367,41.8364248 C98.2026254,41.9489851 98.4987922,42.1084595 98.7531075,42.2677652 C99.1353399,42.5146553 99.2948144,42.7615453 99.2948144,43.0639561 C99.2948144,43.6942599 98.2670902,44.0525289 97.2937054,44.0525289 C96.7128472,44.0525289 95.9002869,43.8614971 95.9002869,43.2880641" id="Fill-36"></path>
                            <path d="M101.700145,41.2631943 C101.987367,40.8494045 102.3696,39.8925579 102.3696,39.3749831 C102.3696,39.1596504 102.338042,38.9444865 102.115284,38.9444865 C101.970998,38.9444865 101.80393,39.0317334 101.59636,39.2951615 C101.221721,39.7811789 100.807763,40.7290815 100.807763,41.3188838 C100.807763,41.5581798 100.911548,41.7326736 101.095154,41.7326736 C101.286186,41.7326736 101.461017,41.6061066 101.700145,41.2631943 M100.911548,39.1913766 C101.366008,38.7610487 101.763428,38.6572637 102.122878,38.6572637 C102.831654,38.6572637 103.118877,39.1431123 103.102507,39.7406774 C103.102507,40.2354701 102.855617,40.9607835 102.321673,41.4707642 C101.859619,41.9252242 101.412753,42.0200651 101.062247,42.0200651 C100.392623,42.0200651 100.058486,41.5581798 100.075024,40.9759716 C100.090212,40.3949446 100.416755,39.6380738 100.911548,39.1913766" id="Fill-37"></path>
                            <path d="M103.364636,41.5021528 C103.364636,41.3274904 103.492384,41.1199204 103.667047,41.1199204 C103.73168,41.1199204 103.78737,41.1681847 103.843059,41.2314682 C104.049279,41.4540574 104.225292,41.5895685 104.44805,41.5895685 C104.615118,41.5895685 104.766999,41.4705955 104.766999,41.3033582 C104.766999,41.0402676 104.520108,40.7616514 104.368228,40.5694383 C104.14547,40.2832281 104.034091,40.0125434 104.034091,39.8123987 C104.034091,39.4784306 104.208754,39.2074084 104.496145,38.9606871 C104.718903,38.7696553 105.006295,38.6581075 105.213865,38.6581075 C105.579559,38.6581075 105.850412,38.9277797 105.850412,39.2074084 C105.850412,39.4227411 105.67575,39.5417141 105.595928,39.5417141 C105.523869,39.5417141 105.46818,39.5099879 105.420084,39.4467044 C105.197326,39.1910391 105.069578,39.1036234 104.863189,39.1036234 C104.687177,39.1036234 104.590986,39.2391345 104.590986,39.3505135 C104.590986,39.6139417 104.854245,39.8441249 104.997351,40.0365068 C105.228884,40.3465116 105.356801,40.5694383 105.340432,40.8806244 C105.340432,41.1516466 105.197326,41.4540574 104.894747,41.7021287 C104.65562,41.9007546 104.336671,42.0197276 104.002534,42.0197276 C103.667047,42.0197276 103.364636,41.7806003 103.364636,41.5021528" id="Fill-38"></path>
                            <path d="M107.754351,40.0599807 C107.761946,40.5940935 107.737813,41.1673578 107.650567,41.7178399 L107.682124,41.7178399 C107.986054,41.2078592 108.208643,40.5699614 108.383474,39.9334137 C108.470721,39.614296 108.551724,39.1195034 108.559318,38.9600289 C108.574506,38.7207329 108.678291,38.6726374 108.79102,38.6726374 C108.885861,38.6726374 109.006015,38.7057136 109.084486,38.7538091 C109.156714,38.8005545 109.18844,38.865188 109.18844,38.9600289 C109.18844,39.1358727 108.949144,40.1232642 108.247963,41.3344262 C107.8821,41.957136 107.450591,42.6735053 106.893696,43.2874397 C106.327857,43.9089682 105.873566,44.0517358 105.554617,44.0517358 C105.276169,44.0517358 105.044467,43.8694793 105.036873,43.6290019 C105.036873,43.3594986 105.22048,43.1836548 105.435644,43.1836548 C105.563561,43.1836548 105.626844,43.2482883 105.706497,43.3507232 C105.810282,43.4874156 105.873566,43.5657184 105.984945,43.5657184 C106.103918,43.5657184 106.287524,43.5100289 106.431811,43.3672613 C106.622842,43.1760608 106.813874,42.8253857 106.917659,42.4102459 C107.021444,42.0280135 107.084728,41.4471553 107.05317,40.657377 C107.037982,39.7408631 106.932847,39.2865718 106.758185,39.2865718 C106.591116,39.2865718 106.415272,39.5979267 106.272167,39.9005063 C106.192514,39.9486017 106.081135,39.9005063 106.064597,39.8206847 C106.216478,39.3346673 106.574747,38.6574494 107.124048,38.6574494 C107.546782,38.6574494 107.737813,39.2384764 107.754351,40.0599807" id="Fill-39"></path>
                            <path d="M114.732751,36.8806509 C114.374482,36.9285776 114.287235,37.0235873 114.039163,37.7969961 L113.467081,39.6295178 C113.37089,39.9334474 113.298662,40.2915477 113.282293,40.5624012 C113.282293,41.2318563 113.593648,41.677541 114.406208,41.677541 C115.426338,41.677541 115.927543,40.7446577 116.22236,39.772623 L116.605943,38.5778303 C116.765417,38.0437175 116.900759,37.4778785 116.932486,37.3033848 C116.980581,37.0323626 116.908353,36.9285776 116.565441,36.8806509 L116.359053,36.8490935 C116.310957,36.78446 116.310957,36.6818563 116.390779,36.6261668 C116.717322,36.6413549 117.004544,36.6489489 117.346275,36.6489489 C117.665224,36.6489489 117.912114,36.6413549 118.231063,36.6261668 C118.286753,36.673081 118.301941,36.8008293 118.231063,36.8490935 L118.023493,36.8882449 C117.784366,36.9285776 117.609535,36.9918611 117.474192,37.2476953 C117.394371,37.3906316 117.251434,37.8133655 117.012138,38.5778303 L116.621131,39.8207184 C116.42993,40.4181148 116.190803,41.0636066 115.704785,41.4863404 C115.313609,41.8444407 114.702375,42.0356413 114.150542,42.0356413 C113.06831,42.0356413 112.350759,41.6142575 112.382317,40.63446 C112.389911,40.3863886 112.44695,40.0915718 112.541791,39.7889923 L113.16332,37.7969961 C113.378484,37.1032401 113.394853,36.9285776 112.972119,36.8728881 L112.773493,36.8490935 C112.716454,36.78446 112.740586,36.665487 112.820239,36.6261668 C113.211415,36.6413549 113.537958,36.6489489 113.92019,36.6489489 C114.311198,36.6489489 114.621372,36.6413549 114.971878,36.6261668 C115.027568,36.673081 115.027568,36.8173674 114.95669,36.8490935 L114.732751,36.8806509 Z" id="Fill-40"></path>
                            <path d="M121.027823,39.1039778 C121.027823,39.254677 120.96454,39.5267117 120.884718,39.7331003 C120.740432,40.124108 120.359549,40.9923578 120.231632,41.3113067 C120.191131,41.4063163 120.183537,41.4707811 120.24817,41.4707811 C120.374737,41.4707811 120.75697,41.1833896 120.980909,40.9290743 C121.075919,40.9127049 121.124014,40.9759884 121.124014,41.0720106 C120.853161,41.5188766 120.215263,42.020082 119.593734,42.020082 C119.450798,42.020082 119.322881,41.8771456 119.322881,41.7655979 C119.322881,41.6694069 119.354607,41.5581967 119.465986,41.2947686 C119.673556,40.8176953 119.944409,40.1556654 120.135441,39.6848361 C120.198725,39.5267117 120.263358,39.3355111 120.263358,39.2077628 C120.263358,39.1355352 120.24817,39.0710704 120.151979,39.0710704 C120.015287,39.0710704 119.673556,39.3191418 119.306512,39.7811958 C118.876184,40.3392719 118.486357,41.0720106 118.095181,41.8921649 C118.047085,41.9885246 117.952244,42.020082 117.824327,42.020082 C117.681391,42.020082 117.402944,41.9733365 117.475002,41.7492285 C117.506729,41.6454436 118.239467,39.6698168 118.319289,39.4468901 C118.366034,39.3191418 118.382572,39.2077628 118.287563,39.2077628 C118.128088,39.2077628 117.824327,39.4141514 117.601569,39.6215526 C117.521917,39.6215526 117.475002,39.558269 117.475002,39.4938042 C117.729486,39.0874397 118.302751,38.6584619 118.844458,38.6584619 C119.131849,38.6584619 119.155812,38.8964079 119.083585,39.0710704 L118.597736,40.3063645 L118.629294,40.3063645 C119.131849,39.5975892 119.864588,38.6584619 120.5494,38.6584619 C120.901256,38.6584619 121.027823,38.8812199 121.027823,39.1039778" id="Fill-41"></path>
                            <path d="M123.129932,37.3186909 C123.129932,37.0478375 123.322314,36.7376639 123.671639,36.7376639 C123.912117,36.7376639 124.055053,36.8730063 124.055053,37.1274904 C124.055053,37.4299012 123.832464,37.7085174 123.513346,37.7085174 C123.257681,37.7085174 123.129932,37.5260921 123.129932,37.3186909 L123.129932,37.3186909 Z M122.684417,41.310446 C122.651509,41.3902676 122.643915,41.4624952 122.70838,41.4624952 C122.834947,41.4624952 123.274219,41.1599156 123.505921,40.9118443 C123.591818,40.9118443 123.656451,40.9928472 123.639913,41.0725 C123.417324,41.4068057 122.651509,42.0205714 122.046519,42.0205714 C121.911008,42.0205714 121.792035,41.8445588 121.792035,41.7736813 C121.792035,41.6852531 121.807392,41.5978375 121.864262,41.4624952 L122.7477,39.3665453 C122.779257,39.2867237 122.779257,39.2386283 122.731331,39.2386283 C122.636321,39.2386283 122.302184,39.4461982 122.046519,39.6689561 C121.966697,39.6689561 121.911008,39.5739465 121.93514,39.5094817 C122.365468,39.0082763 123.042517,38.65777 123.401967,38.65777 C123.513346,38.65777 123.639913,38.769149 123.664045,38.880528 C123.680583,38.9438115 123.656451,39.0551905 123.57663,39.2234402 L122.684417,41.310446 Z" id="Fill-42"></path>
                            <path d="M124.452794,41.5186403 C124.452794,41.3426278 124.49954,41.1035005 124.612269,40.817459 L125.146381,39.4618419 C125.20089,39.3264995 125.193296,39.2075265 125.113474,39.2075265 C124.970369,39.2075265 124.619863,39.485974 124.404699,39.7326953 C124.325046,39.7326953 124.260412,39.6530424 124.260412,39.5897589 C124.491946,39.2075265 125.10588,38.6582257 125.679313,38.6582257 C125.91844,38.6582257 126.061545,38.8975217 126.014631,39.1201109 C125.998262,39.2314899 125.910846,39.4618419 125.871695,39.5582015 L125.376733,40.8326471 C125.312269,40.9921215 125.25776,41.168134 125.250166,41.2947011 C125.250166,41.4072613 125.312269,41.5262343 125.472924,41.5262343 C125.632399,41.5262343 125.958942,41.3350338 126.269115,40.944026 C126.604433,40.5226422 126.795634,39.9328399 126.795634,39.6694118 C126.803228,39.4468226 126.771502,39.2390839 126.708218,39.0720154 C126.731,38.81635 126.906844,38.6582257 127.122008,38.6582257 C127.463908,38.689783 127.528373,38.9923626 127.520779,39.2075265 C127.513185,39.7973288 126.891825,40.8655545 126.166512,41.4464127 C125.527432,41.9565622 125.146381,42.0198457 124.881772,42.0198457 C124.612269,42.0198457 124.452794,41.7020781 124.452794,41.5186403" id="Fill-43"></path>
                            <path d="M129.344896,39.2633341 C129.049911,39.573339 128.858879,39.9962416 128.771632,40.2834643 C129.177828,40.1390092 129.424549,40.0038356 129.679033,39.7417575 C129.879009,39.5416128 129.97385,39.2709282 129.97385,39.1430111 C129.97385,39.0393949 129.927105,38.9443852 129.823151,38.9443852 C129.711941,38.9443852 129.543522,39.0393949 129.344896,39.2633341 M127.790653,41.1515453 C127.790653,40.554149 128.165292,39.6619359 128.922162,39.0873216 C129.361266,38.7607787 129.735904,38.6583438 130.038484,38.6583438 C130.420716,38.6583438 130.675031,38.9443852 130.675031,39.2076446 C130.675031,39.924014 129.591618,40.3150217 128.706999,40.554149 C128.667678,40.6656967 128.634771,40.8491345 128.634771,41.0720612 C128.634771,41.366878 128.763869,41.5263525 128.986627,41.5263525 C129.272669,41.5263525 129.56006,41.359284 129.927105,41.0239658 C130.006757,41.0239658 130.070041,41.1036186 130.053672,41.1832715 C129.624694,41.7806678 129.066449,42.0199638 128.53993,42.0199638 C128.014593,42.0199638 127.790653,41.589636 127.790653,41.1515453" id="Fill-44"></path>
                            <path d="M132.387534,39.4863115 L132.109255,40.3064658 L132.157182,40.3064658 C132.396478,39.8685439 132.667162,39.4140839 132.865957,39.1673626 C133.120441,38.8484137 133.335436,38.6573819 133.576082,38.6573819 C133.830398,38.6573819 133.941777,38.8813211 133.941777,39.1040791 C133.941777,39.3508004 133.758339,39.7407956 133.511449,39.7407956 C133.416608,39.7407956 133.383532,39.6533799 133.351974,39.5104436 C133.320248,39.3508004 133.272153,39.2713163 133.192669,39.2713163 C133.097659,39.2713163 132.914053,39.4471601 132.650962,39.8849132 C132.355976,40.3621553 132.020489,41.1353954 131.694115,41.8924349 C131.654626,41.9884571 131.55101,42.0201832 131.424443,42.0201832 C131.263619,42.0201832 130.985171,41.9720878 131.05723,41.7493298 C131.233243,41.2317551 131.630663,40.1242093 131.854771,39.3988959 C131.893922,39.2713163 131.886328,39.1914947 131.806676,39.1914947 C131.630663,39.1914947 131.376348,39.4140839 131.185147,39.6381919 C131.105325,39.6381919 131.041029,39.5737271 131.05723,39.4787175 C131.263619,39.1192671 131.66222,38.6573819 132.157182,38.6573819 C132.587678,38.6573819 132.515451,39.1192671 132.387534,39.4863115" id="Fill-45"></path>
                            <path d="M133.733464,41.5021528 C133.733464,41.3274904 133.861381,41.1199204 134.036044,41.1199204 C134.100509,41.1199204 134.156198,41.1681847 134.211888,41.2314682 C134.419458,41.4540574 134.59412,41.5895685 134.818228,41.5895685 C134.985297,41.5895685 135.135827,41.4705955 135.135827,41.3033582 C135.135827,41.0402676 134.889106,40.7616514 134.738406,40.5694383 C134.515649,40.2832281 134.403088,40.0125434 134.403088,39.8123987 C134.403088,39.4784306 134.578932,39.2074084 134.864973,38.9606871 C135.087731,38.7696553 135.375123,38.6581075 135.582693,38.6581075 C135.948387,38.6581075 136.219241,38.9277797 136.219241,39.2074084 C136.219241,39.4227411 136.044578,39.5417141 135.964925,39.5417141 C135.892698,39.5417141 135.837008,39.5099879 135.790263,39.4467044 C135.566155,39.1910391 135.439588,39.1036234 135.232018,39.1036234 C135.056174,39.1036234 134.961164,39.2391345 134.961164,39.3505135 C134.961164,39.6139417 135.224424,39.8441249 135.367529,40.0365068 C135.597881,40.3465116 135.725629,40.5694383 135.709091,40.8806244 C135.709091,41.1516466 135.566155,41.4540574 135.263575,41.7021287 C135.024448,41.9007546 134.706849,42.0197276 134.371362,42.0197276 C134.036044,42.0197276 133.733464,41.7806003 133.733464,41.5021528" id="Fill-46"></path>
                            <path d="M137.940501,37.3186909 C137.940501,37.0478375 138.131533,36.7376639 138.482208,36.7376639 C138.721336,36.7376639 138.864441,36.8730063 138.864441,37.1274904 C138.864441,37.4299012 138.641514,37.7085174 138.322734,37.7085174 C138.067068,37.7085174 137.940501,37.5260921 137.940501,37.3186909 L137.940501,37.3186909 Z M137.493804,41.310446 C137.462078,41.3902676 137.454315,41.4624952 137.517599,41.4624952 C137.645516,41.4624952 138.084619,41.1599156 138.31514,40.9118443 C138.402387,40.9118443 138.46567,40.9928472 138.450482,41.0725 C138.227724,41.4068057 137.462078,42.0205714 136.857088,42.0205714 C136.720395,42.0205714 136.601254,41.8445588 136.601254,41.7736813 C136.601254,41.6852531 136.616442,41.5978375 136.673481,41.4624952 L137.5581,39.3665453 C137.589826,39.2867237 137.589826,39.2386283 137.541731,39.2386283 C137.44554,39.2386283 137.111403,39.4461982 136.857088,39.6689561 C136.777266,39.6689561 136.720395,39.5739465 136.745709,39.5094817 C137.176037,39.0082763 137.851905,38.65777 138.211186,38.65777 C138.322734,38.65777 138.450482,38.769149 138.473264,38.880528 C138.489802,38.9438115 138.46567,39.0551905 138.386017,39.2234402 L137.493804,41.310446 Z" id="Fill-47"></path>
                            <path d="M140.680812,39.1677507 L139.963262,41.2307932 C139.915166,41.3585415 139.931704,41.423175 140.011357,41.423175 C140.139106,41.423175 140.600991,41.0725 140.888382,40.7535511 C140.983392,40.7687392 141.031487,40.8168346 141.014949,40.9283824 C140.665624,41.4549012 139.88344,42.0205714 139.373459,42.0205714 C139.215166,42.0205714 139.086068,41.876285 139.086068,41.7497179 C139.086068,41.6371577 139.111381,41.5257787 139.182259,41.310446 L139.915166,39.1677507 L139.310176,39.1677507 C139.262081,39.0955231 139.310176,38.9603496 139.389998,38.9132666 L140.059284,38.7855183 L140.569433,38.0121095 C140.616348,37.9793708 140.680812,37.9729581 140.760634,37.9729581 C140.872013,37.9729581 140.983392,38.0121095 141.014949,38.075393 L140.792191,38.8172445 L141.589564,38.8172445 C141.684573,38.9132666 141.62129,39.1196553 141.525099,39.1677507 L140.680812,39.1677507 Z" id="Fill-48"></path>
                            <path d="M143.182148,40.0599807 C143.189742,40.5940935 143.16561,41.1673578 143.078532,41.7178399 L143.110089,41.7178399 C143.41385,41.2078592 143.635427,40.5699614 143.81127,39.9334137 C143.898517,39.614296 143.979689,39.1195034 143.987283,38.9600289 C144.002302,38.7207329 144.106256,38.6726374 144.217635,38.6726374 C144.313657,38.6726374 144.43263,38.7057136 144.512452,38.7538091 C144.584679,38.8005545 144.616237,38.865188 144.616237,38.9600289 C144.616237,39.1358727 144.376941,40.1232642 143.675928,41.3344262 C143.308715,41.957136 142.878387,42.6735053 142.321492,43.2874397 C141.755822,43.9089682 141.301362,44.0517358 140.982413,44.0517358 C140.703966,44.0517358 140.472264,43.8694793 140.46467,43.6290019 C140.46467,43.3594986 140.647095,43.1836548 140.863609,43.1836548 C140.991357,43.1836548 141.053459,43.2482883 141.132944,43.3507232 C141.238079,43.4874156 141.301362,43.5657184 141.41291,43.5657184 C141.531883,43.5657184 141.715321,43.5100289 141.858257,43.3672613 C142.050639,43.1760608 142.241839,42.8253857 142.345624,42.4102459 C142.449409,42.0280135 142.512693,41.4471553 142.479785,40.657377 C142.464597,39.7408631 142.360812,39.2865718 142.18615,39.2865718 C142.018913,39.2865718 141.843069,39.5979267 141.700133,39.9005063 C141.620311,39.9486017 141.508932,39.9005063 141.492394,39.8206847 C141.643093,39.3346673 142.002712,38.6574494 142.552013,38.6574494 C142.974747,38.6574494 143.16561,39.2384764 143.182148,40.0599807" id="Fill-49"></path>
                            <path d="M51.0865164,26.6226302 C51.0865164,24.9963284 51.0066948,24.174824 50.0498481,24.174824 C49.0918202,24.174824 49.0119986,24.9963284 49.0119986,26.6226302 C49.0119986,29.0085029 49.2195685,29.5198337 50.0498481,29.5198337 C50.8789465,29.5198337 51.0865164,29.0085029 51.0865164,26.6226302 M46.762987,26.7466659 C46.762987,24.6090333 47.0819359,22.7814055 50.0498481,22.7814055 C53.0165791,22.7814055 53.335528,24.6090333 53.335528,26.7466659 C53.335528,29.194472 52.9532956,30.9134209 50.0498481,30.9134209 C47.1464007,30.9134209 46.762987,29.194472 46.762987,26.7466659" id="Fill-50"></path>
                            <path d="M58.5530593,20.9224904 C57.6443081,20.8605569 57.4519262,21.2009378 57.4519262,21.990716 L57.4519262,22.936256 L58.5061451,22.936256 L58.5061451,24.2841104 L57.4519262,24.2841104 L57.4519262,30.7579291 L55.2027459,30.7579291 L55.2027459,24.2841104 L54.1978038,24.2841104 L54.1978038,22.936256 L55.219284,22.936256 C55.2027459,20.689607 55.0117141,19.4973457 57.7556871,19.4973457 C58.0265405,19.4973457 58.2822059,19.5125338 58.5530593,19.5290718 L58.5530593,20.9224904 Z" id="Fill-51"></path>
                            <path d="M63.387177,25.1666032 C63.387177,22.207635 63.387177,19.3889031 67.3600313,19.3889031 C69.8167816,19.3889031 70.8053544,20.7052001 70.7103447,23.1060921 L68.3486041,23.1060921 C68.3486041,21.619014 68.0777507,21.0621191 67.3600313,21.0621191 C66.0032329,21.0621191 65.8285704,22.3012946 65.8285704,25.1666032 C65.8285704,28.0320805 66.0032329,29.271256 67.3600313,29.271256 C68.4763525,29.271256 68.428257,27.8776688 68.4611644,26.994231 L70.8380931,26.994231 C70.8380931,29.983744 69.6092117,30.944472 67.3600313,30.944472 C63.387177,30.944472 63.387177,28.0941827 63.387177,25.1666032" id="Fill-52"></path>
                            <path d="M74.3801302,28.326661 C74.3801302,28.884906 74.4763211,29.5658365 75.2092285,29.5658365 C76.5329508,29.5658365 76.326731,27.8305183 76.326731,26.9788067 C75.2092285,27.0255521 74.3801302,26.9330738 74.3801302,28.326661 L74.3801302,28.326661 Z M78.5278158,29.3024084 C78.5278158,29.7821818 78.5922806,30.2783245 78.6403761,30.7579291 L76.5494889,30.7579291 L76.4544793,29.7202483 L76.4217406,29.7202483 C75.9431485,30.5263959 75.2902314,30.9136909 74.3168467,30.9136909 C72.7524783,30.9136909 72.177864,29.7821818 72.177864,28.4191393 C72.177864,25.8332907 74.2358438,25.7244431 76.326731,25.7548192 L76.326731,25.1511789 C76.326731,24.4852676 76.23054,24.0044817 75.4167985,24.0044817 C74.6344455,24.0044817 74.571162,24.5777459 74.571162,25.1979243 L72.3690646,25.1979243 C72.3690646,24.2523843 72.6726567,23.648744 73.1991755,23.293175 C73.709325,22.921068 74.4434137,22.7818443 75.3052507,22.7818443 C78.1606027,22.7818443 78.5278158,23.9739368 78.5278158,25.3990815 L78.5278158,29.3024084 Z" id="Fill-53"></path>
                            <polygon id="Fill-54" points="80.7446962 30.7579797 82.9950579 30.7579797 82.9950579 19.5743491 80.7446962 19.5743491"></polygon>
                            <path d="M85.3416104,30.7579797 L87.5907907,30.7579797 L87.5907907,22.9359691 L85.3416104,22.9359691 L85.3416104,30.7579797 Z M85.3416104,21.2944793 L87.5907907,21.2944793 L87.5907907,19.5756991 L85.3416104,19.5756991 L85.3416104,21.2944793 Z" id="Fill-55"></path>
                            <path d="M93.2063163,20.9224904 C92.296215,20.8605569 92.1051832,21.2009378 92.1051832,21.990716 L92.1051832,22.936256 L93.1582208,22.936256 L93.1582208,24.2841104 L92.1051832,24.2841104 L92.1051832,30.7579291 L89.8560029,30.7579291 L89.8560029,24.2841104 L88.8512295,24.2841104 L88.8512295,22.936256 L89.8713597,22.936256 C89.8560029,20.689607 89.6637898,19.4973457 92.4089441,19.4973457 C92.6797975,19.4973457 92.9354629,19.5125338 93.2063163,19.5290718 L93.2063163,20.9224904 Z" id="Fill-56"></path>
                            <path d="M98.4715381,26.6226302 C98.4715381,24.9963284 98.3905352,24.174824 97.4336885,24.174824 C96.4768419,24.174824 96.397189,24.9963284 96.397189,26.6226302 C96.397189,29.0085029 96.6045902,29.5198337 97.4336885,29.5198337 C98.2639682,29.5198337 98.4715381,29.0085029 98.4715381,26.6226302 M94.1480087,26.7466659 C94.1480087,24.6090333 94.4669576,22.7814055 97.4336885,22.7814055 C100.40177,22.7814055 100.720718,24.6090333 100.720718,26.7466659 C100.720718,29.194472 100.337136,30.9134209 97.4336885,30.9134209 C94.5302411,30.9134209 94.1480087,29.194472 94.1480087,26.7466659" id="Fill-57"></path>
                            <path d="M104.613987,22.9361885 L104.613987,23.943662 L104.645545,23.943662 C105.060685,23.0450362 105.8265,22.7817768 106.736432,22.7817768 L106.736432,24.7334402 C104.756924,24.6094045 104.725366,25.7243756 104.725366,26.4989658 L104.725366,30.7580304 L102.476186,30.7580304 L102.476186,22.9361885 L104.613987,22.9361885 Z" id="Fill-58"></path>
                            <path d="M110.197854,23.7260849 L110.229412,23.7260849 C110.45217,23.3705159 110.724373,23.1376326 111.028134,22.9984089 C111.345733,22.8426471 111.714127,22.7805448 112.128086,22.7805448 C113.196311,22.7805448 114.137801,23.4007232 114.137801,24.485487 L114.137801,30.7581485 L111.88879,30.7581485 L111.88879,25.3677435 C111.88879,24.6716249 111.760873,24.129918 111.043322,24.129918 C110.325603,24.129918 110.197854,24.6716249 110.197854,25.3677435 L110.197854,30.7581485 L107.947493,30.7581485 L107.947493,22.9363067 L110.197854,22.9363067 L110.197854,23.7260849 Z" id="Fill-59"></path>
                            <path d="M116.27459,30.7579797 L118.524952,30.7579797 L118.524952,22.9359691 L116.27459,22.9359691 L116.27459,30.7579797 Z M116.27459,21.2944793 L118.524952,21.2944793 L118.524952,19.5756991 L116.27459,19.5756991 L116.27459,21.2944793 Z" id="Fill-60"></path>
                            <path d="M122.641873,28.326661 C122.641873,28.884906 122.738064,29.5658365 123.472153,29.5658365 C124.796044,29.5658365 124.588474,27.8305183 124.588474,26.9788067 C123.472153,27.0255521 122.641873,26.9330738 122.641873,28.326661 L122.641873,28.326661 Z M126.789559,29.3024084 C126.789559,29.7821818 126.854024,30.2783245 126.902119,30.7579291 L124.811232,30.7579291 L124.715041,29.7202483 L124.684665,29.7202483 C124.20506,30.5263959 123.551974,30.9136909 122.577408,30.9136909 C121.014221,30.9136909 120.439607,29.7821818 120.439607,28.4191393 C120.439607,25.8332907 122.498937,25.7244431 124.588474,25.7548192 L124.588474,25.1511789 C124.588474,24.4852676 124.492283,24.0044817 123.679723,24.0044817 C122.896357,24.0044817 122.834255,24.5777459 122.834255,25.1979243 L120.630808,25.1979243 C120.630808,24.2523843 120.934568,23.648744 121.460919,23.293175 C121.972418,22.921068 122.705157,22.7818443 123.568344,22.7818443 C126.422514,22.7818443 126.789559,23.9739368 126.789559,25.3990815 L126.789559,29.3024084 Z" id="Fill-61"></path>
                            <path d="M146.422635,30.9445227 C143.439535,30.9445227 142.880108,29.2407618 143.008026,27.3044552 L145.417693,27.3044552 C145.417693,28.3726808 145.464607,29.2713067 146.789848,29.2713067 C147.60224,29.2713067 148.002191,28.7599759 148.002191,28.0019238 C148.002191,25.9881581 143.152143,25.8641225 143.152143,22.5340598 C143.152143,20.7837223 144.014149,19.388785 146.949154,19.388785 C149.294525,19.388785 150.458942,20.4116152 150.299467,22.750405 L147.954096,22.750405 C147.954096,21.9138814 147.809978,21.062001 146.837775,21.062001 C146.055591,21.062001 145.592355,21.4798409 145.592355,22.2544311 C145.592355,24.3768756 150.442404,24.1907377 150.442404,27.7081196 C150.442404,30.603973 148.256676,30.9445227 146.422635,30.9445227" id="Fill-62"></path>
                            <path d="M154.176519,28.326661 C154.176519,28.884906 154.272541,29.5658365 155.006798,29.5658365 C156.330689,29.5658365 156.122951,27.8305183 156.122951,26.9788067 C155.006798,27.0255521 154.176519,26.9330738 154.176519,28.326661 L154.176519,28.326661 Z M158.324036,29.3024084 C158.324036,29.7821818 158.388669,30.2783245 158.436765,30.7579291 L156.345709,30.7579291 L156.250868,29.7202483 L156.219142,29.7202483 C155.739537,30.5263959 155.08662,30.9136909 154.111885,30.9136909 C152.548698,30.9136909 151.974084,29.7821818 151.974084,28.4191393 C151.974084,25.8332907 154.033414,25.7244431 156.122951,25.7548192 L156.122951,25.1511789 C156.122951,24.4852676 156.026929,24.0044817 155.2142,24.0044817 C154.430834,24.0044817 154.367551,24.5777459 154.367551,25.1979243 L152.165284,25.1979243 C152.165284,24.2523843 152.469045,23.648744 152.995564,23.293175 C153.506895,22.921068 154.239802,22.7818443 155.102821,22.7818443 C157.956991,22.7818443 158.324036,23.9739368 158.324036,25.3990815 L158.324036,29.3024084 Z" id="Fill-63"></path>
                            <path d="M164.451348,25.7242912 C164.451348,24.562406 164.147587,24.1751109 163.446405,24.1751109 C162.488378,24.1751109 162.408725,24.9966152 162.408725,26.6229171 C162.408725,29.0087898 162.616126,29.5187705 163.446405,29.5187705 C164.147587,29.5187705 164.482905,28.8997734 164.482905,27.8772806 L166.732254,27.8772806 C166.732254,29.9997252 165.551299,30.9135391 163.446405,30.9135391 C160.542958,30.9135391 160.159544,29.1935776 160.159544,26.7471215 C160.159544,24.6093202 160.478493,22.7816924 163.446405,22.7816924 C165.519573,22.7816924 166.700528,23.6803182 166.700528,25.7242912 L164.451348,25.7242912 Z" id="Fill-64"></path>
                            <path d="M170.625776,22.9361885 L170.625776,23.943662 L170.657334,23.943662 C171.072473,23.0450362 171.838288,22.7817768 172.748221,22.7817768 L172.748221,24.7334402 C170.768881,24.6094045 170.737155,25.7243756 170.737155,26.4989658 L170.737155,30.7580304 L168.487975,30.7580304 L168.487975,22.9361885 L170.625776,22.9361885 Z" id="Fill-65"></path>
                            <path d="M175.92264,28.326661 C175.92264,28.884906 176.017481,29.5658365 176.751738,29.5658365 C178.075629,29.5658365 177.867891,27.8305183 177.867891,26.9788067 C176.751738,27.0255521 175.92264,26.9330738 175.92264,28.326661 L175.92264,28.326661 Z M180.070325,29.3024084 C180.070325,29.7821818 180.133609,30.2783245 180.182886,30.7579291 L178.091999,30.7579291 L177.995808,29.7202483 L177.96425,29.7202483 C177.485827,30.5263959 176.831391,30.9136909 175.858175,30.9136909 C174.294988,30.9136909 173.720374,29.7821818 173.720374,28.4191393 C173.720374,25.8332907 175.778522,25.7244431 177.867891,25.7548192 L177.867891,25.1511789 C177.867891,24.4852676 177.77305,24.0044817 176.959308,24.0044817 C176.177124,24.0044817 176.11384,24.5777459 176.11384,25.1979243 L173.911574,25.1979243 C173.911574,24.2523843 174.215335,23.648744 174.741854,23.293175 C175.251835,22.921068 175.985923,22.7818443 176.846748,22.7818443 C179.703281,22.7818443 180.070325,23.9739368 180.070325,25.3990815 L180.070325,29.3024084 Z" id="Fill-66"></path>
                            <path d="M184.170422,23.7260849 L184.203329,23.7260849 C184.648845,23.0286162 185.255186,22.7805448 186.101835,22.7805448 C186.897857,22.7805448 187.537105,23.1528206 187.904149,23.7728303 C188.430668,23.0907184 189.068566,22.7805448 189.993855,22.7805448 C191.063262,22.7805448 192.003739,23.4007232 192.003739,24.485487 L192.003739,30.7581485 L189.754559,30.7581485 L189.754559,25.3677435 C189.754559,24.6716249 189.626642,24.129918 188.909091,24.129918 C188.19019,24.129918 188.063623,24.6716249 188.063623,25.3677435 L188.063623,30.7581485 L185.862539,30.7581485 L185.862539,25.3677435 C185.862539,24.6716249 185.733609,24.129918 185.01589,24.129918 C184.298339,24.129918 184.170422,24.6716249 184.170422,25.3677435 L184.170422,30.7581485 L181.92141,30.7581485 L181.92141,22.9363067 L184.170422,22.9363067 L184.170422,23.7260849 Z" id="Fill-67"></path>
                            <path d="M197.90723,25.9721601 C197.90723,25.212758 197.940137,24.1293443 196.870562,24.1293443 C195.832881,24.1293443 195.849235,25.3064176 195.849235,25.9721601 L197.90723,25.9721601 Z M195.84925,27.1959788 C195.84925,28.1251495 195.880808,29.5197493 196.870562,29.5197493 C197.668103,29.5197493 197.827408,28.7755352 197.827408,28.1251495 L200.109496,28.1251495 C200.076589,28.9768611 199.790547,29.674161 199.24749,30.1539344 C198.720972,30.6348891 197.923768,30.9133365 196.870562,30.9133365 C193.967114,30.9133365 193.583701,29.1945564 193.583701,26.7467502 C193.583701,24.6091176 193.902818,22.7814899 196.870562,22.7814899 C199.901926,22.7814899 200.237413,24.6862392 200.15641,27.1959788 L195.84925,27.1959788 Z" id="Fill-68"></path>
                            <path d="M204.161092,23.7260849 L204.192649,23.7260849 C204.416757,23.3705159 204.687611,23.1376326 204.991372,22.9984089 C205.310321,22.8426471 205.677196,22.7805448 206.092336,22.7805448 C207.160562,22.7805448 208.10222,23.4007232 208.10222,24.485487 L208.10222,30.7581485 L205.852027,30.7581485 L205.852027,25.3677435 C205.852027,24.6716249 205.724279,24.129918 205.00791,24.129918 C204.289009,24.129918 204.161092,24.6716249 204.161092,25.3677435 L204.161092,30.7581485 L201.911912,30.7581485 L201.911912,22.9363067 L204.161092,22.9363067 L204.161092,23.7260849 Z" id="Fill-69"></path>
                            <path d="M209.139057,22.9361885 L210.049159,22.9361885 L210.049159,21.697013 L212.29817,20.7212657 L212.29817,22.9361885 L213.462587,22.9361885 L213.462587,24.2840429 L212.29817,24.2840429 L212.29817,28.465986 C212.29817,29.0544383 212.281632,29.4417334 213.01589,29.4417334 C213.158826,29.4417334 213.303112,29.4417334 213.414491,29.4113573 L213.414491,30.7580304 C213.111912,30.7895878 212.792963,30.8363332 212.250075,30.8363332 C210.303474,30.8363332 210.049159,29.5809571 210.049159,29.1011837 L210.049159,24.2840429 L209.139057,24.2840429 L209.139057,22.9361885 Z" id="Fill-70"></path>
                            <path d="M218.775465,26.6226302 C218.775465,24.9963284 218.695644,24.174824 217.738797,24.174824 C216.780938,24.174824 216.701116,24.9963284 216.701116,26.6226302 C216.701116,29.0085029 216.908517,29.5198337 217.738797,29.5198337 C218.568064,29.5198337 218.775465,29.0085029 218.775465,26.6226302 M214.451936,26.7466659 C214.451936,24.6090333 214.772066,22.7814055 217.738797,22.7814055 C220.706878,22.7814055 221.025827,24.6090333 221.025827,26.7466659 C221.025827,29.194472 220.642413,30.9134209 217.738797,30.9134209 C214.834337,30.9134209 214.451936,29.194472 214.451936,26.7466659" id="Fill-71"></path>
                            <polygon id="Fill-72" points="132.873939 27.2507232 140.852724 27.2507232 140.852724 26.0269045 132.873939 26.0269045"></polygon>
                            <path d="M129.347546,23.0467743 L129.56271,23.0467743 C129.75121,23.0467743 129.8096,22.8721119 129.8096,22.7354195 C129.8096,22.5354436 129.712059,22.4583221 129.56271,22.4583221 L129.347546,22.4583221 L129.347546,23.0467743 Z M129.347546,24.2150723 L128.870304,24.2150723 L128.870304,22.1078158 L129.75121,22.1078158 C130.077922,22.1078158 130.286673,22.3025603 130.286673,22.6620106 C130.286673,22.9305014 130.175294,23.1289585 129.863939,23.1784041 L129.863939,23.1885294 C129.965193,23.192242 130.277729,23.2177242 130.277729,23.5974253 C130.277729,23.7339489 130.286673,24.1276567 130.331056,24.2150723 L129.863939,24.2150723 C129.800656,24.0885053 129.800656,23.9479315 129.800656,23.8061765 C129.800656,23.5581051 129.839807,23.3442912 129.46905,23.3442912 L129.347546,23.3442912 L129.347546,24.2150723 Z M131.042194,23.1696287 C131.042194,22.3557184 130.379151,21.6975699 129.576716,21.6975699 C128.757743,21.6975699 128.100945,22.3557184 128.100945,23.1696287 C128.100945,23.982189 128.757743,24.6491128 129.576716,24.6491128 C130.379151,24.6491128 131.042194,23.982189 131.042194,23.1696287 L131.042194,23.1696287 Z M131.382743,23.1696287 C131.382743,24.1769335 130.578959,24.9896625 129.576716,24.9896625 C128.569243,24.9896625 127.759045,24.1769335 127.759045,23.1696287 C127.759045,22.1608052 128.569243,21.3570203 129.576716,21.3570203 C130.578959,21.3570203 131.382743,22.1608052 131.382743,23.1696287 L131.382743,23.1696287 Z" id="Fill-73"></path>
                            <path d="M10.9554556,17.1296818 C11.084554,16.8309836 12.6970178,12.8593105 13.4830834,11.0772469 C14.296825,9.23561234 14.6588067,9.45330762 14.6588067,9.45330762 L16.7839513,14.602054 C13.7665935,15.666567 11.924959,16.5373481 10.9554556,17.1296818 M39.2659667,28.323269 C39.2659667,28.323269 39.2571914,13.4997396 39.2597228,13.1947975 C39.2634354,12.8883365 38.9635559,12.7099614 38.6673891,12.8883365 C37.4914971,13.7883124 31.8212946,15.2070444 31.3897854,15.2792719 C30.9594576,15.3526808 31.0441731,16.1323337 31.0441731,16.1323337 L31.0441731,27.0550675 C31.0441731,27.0550675 31.0278038,27.5031148 30.6683534,27.5272469 C30.3872059,27.5397348 30.2684016,27.1866972 30.2265501,27.0879749 C30.144366,26.8944118 24.8828905,14.8565381 24.8828905,14.8565381 C26.9371577,14.3084185 35.1690767,14.0743539 39.1685945,10.2559113 C40.0405569,9.42681292 40.5645444,8.3622999 40.5645444,7.20176471 C40.5645444,4.55904532 37.8472348,2.41753134 34.4957401,2.41753134 C31.1428954,2.41753134 28.4267671,4.55904532 28.4267671,7.20176471 C28.4267671,8.73322565 29.3419311,10.0937367 30.760663,10.9683992 C31.602418,11.7796095 28.5862416,12.1822613 23.9665453,12.7580569 L18.5292261,0.312637416 L17.9331798,0.312637416 C16.9041056,2.2415188 14.6664007,2.97307618 14.6664007,2.97307618 C14.6664007,2.97307618 8.42664658,16.8765477 5.56505063,23.9491128 C2.91203713,30.5064658 0.614930087,30.2722324 0.614930087,30.2722324 L0.614930087,30.7709065 L12.7160873,30.7709065 L12.7160873,30.2470878 C12.1893997,30.1787416 7.91278447,29.5065863 7.62421167,26.2158438 C7.31673819,22.7252941 11.769366,18.627054 17.5509474,16.7081292 L17.5636041,16.7069479 C19.3341924,20.8164947 22.1706437,27.4094552 22.1706437,27.4094552 C22.1706437,27.4094552 23.4059378,29.840892 20.149284,30.2445564 L20.149284,30.7709065 L42.0150024,30.7709065 L42.0264778,30.2722324 C39.2710294,30.2229556 39.2659667,28.323269 39.2659667,28.323269" id="Fill-74"></path>
                        </g>
                    </g>
                </g>
            </g>
        </g>
    </g>
</svg>