<?xml version="1.0" encoding="UTF-8"?>
<svg width="141px" height="50px" viewBox="0 0 141 50" version="1.1" xmlns="http://www.w3.org/2000/svg" xmlns:xlink="http://www.w3.org/1999/xlink">
    <title>logo-t29</title>
    <g id="----▶-About" stroke="none" stroke-width="1" fill="none" fill-rule="evenodd">
        <g id="About" transform="translate(-227.000000, -1419.000000)" fill="#FFFFFF">
            <g id="Block-/-Experience" transform="translate(0.000000, 1251.000000)">
                <g id="1/4" transform="translate(157.000000, 168.000000)">
                    <g id="logo-t29" transform="translate(70.000000, 0.000000)">
                        <path d="M11.3513164,31.8181818 L11.2941176,31.7607891 C12.5238098,28.685954 16.6991581,27.7376973 19.5590159,27.4503218 C20.8623782,27.3008701 22.3207836,27.0866148 23.7176471,26.7045455 L22.9685723,30.3173244 C21.3516819,29.679005 19.6201482,28.7434291 17.5285406,28.7434291 C15.0690743,28.7434291 12.8384032,29.9216685 11.3513164,31.8181818 Z M22.1861183,32.1802239 C22.1861183,30.0053896 24.2927563,28.8343618 26.2869597,28.8343618 C27.607039,28.8343618 29.1237378,29.5313698 29.1237378,31.0091961 C29.1237378,32.9887659 27.2699769,33.4349821 27.2699769,34.3829417 C27.2699769,35.2194472 28.3092516,35.2194472 28.8709413,35.3030977 C32.3538355,35.3030977 32.8594286,31.4274489 33.5896493,28.8064783 L34.3761275,25.8230221 C33.2806757,27.1893143 31.5392688,27.8863223 29.8259505,27.8863223 C26.8205608,27.8863223 23.7871632,26.1018572 23.7871632,22.8395658 C23.7871632,20.0774999 25.650421,18.0394466 28.0263545,16.7904409 C26.4295753,15.56061 24.019839,15.0698122 22.1985127,15.0698122 C18.5751759,15.0698122 12.9015392,16.6591726 12.9015392,21.2039459 C12.9015392,22.9884909 14.3339725,24.2152857 16.0754599,24.2152857 C18.2942909,24.2152857 20.4290173,22.2635195 20.4290173,20.0329182 C20.4290173,18.7990926 19.6569456,17.8374709 18.417993,17.7989612 C18.3397637,17.7916109 18.2598442,17.7924098 18.1831441,17.802237 C18.1827417,17.8023169 18.1023393,17.8150202 18.0646734,17.8253267 C17.7305892,17.9170467 17.45236,18.2236855 17.595539,18.4190299 C17.7214946,18.5909649 18.0511523,18.5419091 18.1367055,18.0904199 C18.1502266,18.0194727 18.1961018,17.9884733 18.2593613,17.981043 C18.2987174,18.0914585 18.3224599,18.2059487 18.3224599,18.3321036 C18.3224599,19.0848787 17.8168667,19.9492676 16.9742116,19.9492676 C16.44053,19.9492676 16.0192829,19.5588984 16.0192829,19.001308 C16.0192829,17.0774253 18.1258403,15.9342012 19.8672472,15.9342012 C21.4963,15.9342012 22.6198403,17.1331924 22.6198403,18.7502765 C22.6198403,22.7375393 19.8672472,25.1633252 16.44053,26.6410717 C13.4352208,28.0630511 9.83997254,30.5167205 9.83997254,34.2808353 C9.83997254,34.9221562 10.1209381,35.7028147 10.8792473,35.7028147 C11.1882208,35.7028147 11.4129289,35.5076301 11.4129289,35.2009913 C11.4129289,34.3644859 10.5983622,34.8106221 10.5983622,34.0857306 C10.5983622,33.3607592 11.2163093,32.9425065 11.8904335,32.9425065 C13.6037518,32.9425065 16.609061,35.7028147 21.1873265,35.7028147 C21.4067227,35.7028147 21.6250726,35.6940262 21.8419738,35.6776476 C21.5999619,36.6880056 21.257427,37.9644954 21.257427,38.9580753 C21.257427,41.0660371 22.895494,41.8489327 24.7762166,41.8489327 C28.1736381,41.8489327 30.7824084,40.0421768 32.26957,35.9722222 C32.2853446,35.9289988 32.4993485,35.9253236 32.6694087,35.8659612 C32.8682012,35.796612 32.5451432,35.8901696 33.0001126,35.7560251 C32.8052637,37.150121 31.5634137,39.1560563 30.7824084,40.0421768 C27.8702983,43.4148039 23.2594373,44.3181818 19.0126806,44.3181818 C14.1592443,44.3181818 6.75764132,43.4148039 6.75764132,37.0309169 C6.75764132,35.7059306 7.18226871,34.320783 7.4250049,32.9957168 L11.3684219,16.7950748 L9.48769922,16.7950748 C8.97550652,16.7950748 8.52496367,16.7949949 8.13019541,16.7899615 L5.64705882,16.7899615 L5.90074069,15.7466067 L7.55442129,15.7213597 C14.2460048,15.7213597 22.7405645,10.3393619 27.4455905,2.34086759 C27.6882462,1.97950042 28.05227,1.13636364 28.5983459,1.13636364 C28.9016857,1.13636364 29.1550456,1.28792532 28.9560116,2.14983754 L26.1108633,15.3496061 L33.3318628,15.3496061 C33.4851021,15.3429748 33.6368122,15.3392197 33.7862688,15.3392197 C38.6735079,15.3392197 42.3529412,18.4063265 42.3529412,23.3972361 C42.3529412,30.7024775 35.9209148,35.9722222 28.8429333,35.9722222 C26.3993137,35.9722222 22.1861183,35.3309013 22.1861183,32.1802239 Z M42.8795086,11.1868198 C39.6631118,7.09542023 35.1445305,4.12166697 30.1420764,2.80065898 C30.2951234,2.12136831 30.4028827,1.30350588 29.8762114,0.642439891 C29.6849427,0.402548564 29.2490076,0 28.478553,0 C27.2532935,0 26.6344406,1.06385541 26.3018483,1.63540372 C26.2616193,1.7046896 26.2160906,1.78304768 26.1900742,1.822307 C26.1093752,1.95606167 26.0684235,2.02494613 26.0273112,2.0937503 C25.34414,2.03650716 24.6625748,2.0075243 23.9999599,2.0075243 C17.5893285,2.0075243 11.5624388,4.50358231 7.02940394,9.03582634 C2.49644934,13.5681507 3.55271368e-15,19.5940955 3.55271368e-15,26.003722 C3.55271368e-15,32.4133485 2.49644934,38.4393736 7.02940394,42.9716177 C11.5624388,47.503942 17.5893285,50 23.9999599,50 C30.4105912,50 36.4375612,47.503942 40.9705158,42.9716177 C45.5035507,38.4393736 48,32.4133485 48,26.003722 C48,23.2680938 47.5432678,20.5848114 46.6425707,18.0282988 C45.7719049,15.5572897 44.5057739,13.2554409 42.8795086,11.1868198 Z M34.4470588,17.0643879 C34.8429595,17.0217879 35.1939583,17.0643879 34.9066547,17.0643879 L34.4470588,17.0643879 Z M32.4476523,18.7560012 C32.0044091,20.1801758 31.0588235,24.3388409 31.0588235,25.7915824 C31.0588235,26.5605991 31.3247695,27.2727273 32.270355,27.2727273 C35.2842396,27.2727273 36.1411765,18.9553154 36.1411765,17.8444771 C36.1411765,17.0184085 35.6388342,16.4772727 34.7524324,16.4772727 C33.274955,16.4772727 32.8022469,17.6735664 32.4476523,18.7560012 Z" id="three29-logo"></path>
                        <polygon id="Fill-8" points="63.9704 14.0534 63.4394 17.4294 60.5924 17.4294 58.2544 32.2384 54.6594 32.2384 56.9994 17.4294 54.1784 17.4294 54.7094 14.0534"></polygon>
                        <polygon id="Fill-10" points="70.4059 14.0534 69.2969 21.1674 72.9389 21.1674 74.0479 14.0534 77.6419 14.0534 74.7709 32.2384 71.1789 32.2384 72.4079 24.5434 68.7659 24.5434 67.5369 32.2384 63.9429 32.2384 66.8139 14.0534"></polygon>
                        <path d="M84.2487,21.8676 L84.8757,21.8916 C86.5157,21.8916 87.3357,20.7826 87.5757,19.2856 C87.7937,17.9836 87.3357,16.9226 85.5037,17.0186 L85.0197,17.0186 L84.2487,21.8676 Z M79.0147,32.2376 L81.8847,14.0536 L85.5037,14.0536 C87.7937,14.0536 91.8707,14.2936 91.0737,19.2626 C90.7587,21.2636 89.6997,22.9766 87.7447,23.9656 L89.6027,32.2376 L85.8157,32.2376 L83.9837,23.8456 L83.9337,23.8456 L82.6087,32.2376 L79.0147,32.2376 Z" id="Fill-12"></path>
                        <polygon id="Fill-14" points="102.9856 14.0534 102.4566 17.4294 98.8126 17.4294 98.1876 21.3834 101.3946 21.3834 100.8636 24.7624 97.6566 24.7624 97.0066 28.8614 100.6946 28.8614 100.1636 32.2384 92.8806 32.2384 95.7516 14.0534"></polygon>
                        <polygon id="Fill-16" points="114.5848 14.0534 114.0558 17.4294 110.4118 17.4294 109.7868 21.3834 112.9938 21.3834 112.4628 24.7624 109.2558 24.7624 108.6058 28.8614 112.2938 28.8614 111.7628 32.2384 104.4798 32.2384 107.3508 14.0534"></polygon>
                        <path d="M118.083,20.3711 L118.179,19.3821 C118.734,16.0061 120.035,13.7391 123.823,13.7391 C126.837,13.7391 128.5,15.2591 127.995,18.3951 C127.706,20.2511 126.813,21.7221 125.702,23.3381 L121.772,29.1011 L125.994,29.1011 L125.486,32.2381 L115.936,32.2381 L121.217,24.7131 C122.448,22.9761 124.232,20.5171 124.546,18.5151 C124.69,17.5731 124.619,16.2711 123.461,16.2711 C122.086,16.2711 121.699,18.2261 121.555,19.2151 L121.41,20.3711 L118.083,20.3711 Z" id="Fill-18"></path>
                        <path d="M133.5636,20.0586 C133.4176,20.9256 133.3216,22.9036 134.5506,22.9036 C135.9276,22.9036 136.5286,20.6606 136.6746,19.7436 C136.8176,18.8766 136.8436,16.8516 135.6126,16.8756 C134.2376,16.8756 133.7066,19.1426 133.5636,20.0586 L133.5636,20.0586 Z M130.6436,32.2376 L135.2506,25.1236 L135.2036,25.0746 C134.4306,25.6786 133.7306,26.0876 132.7676,26.0876 C130.0186,26.0876 129.6566,22.5916 130.0186,20.4206 C130.5236,17.1646 132.3326,13.7646 136.1436,13.7646 C139.7846,13.7646 140.6046,16.9476 140.0996,20.1546 C139.5926,23.4346 137.9286,26.2326 136.0946,29.1276 L134.1176,32.2376 L130.6436,32.2376 Z" id="Fill-20"></path>
                    </g>
                </g>
            </g>
        </g>
    </g>
</svg>