<?xml version="1.0" encoding="UTF-8"?>
<svg width="265px" height="129px" viewBox="0 0 265 129" version="1.1" xmlns="http://www.w3.org/2000/svg" xmlns:xlink="http://www.w3.org/1999/xlink">
    <!-- Generator: Sketch 53.2 (72643) - https://sketchapp.com -->
    <title>the-lovely-geek-logo</title>
    <desc>Created with Sketch.</desc>
    <defs>
        <polygon id="path-1" points="0.0690331649 0.208810681 58.8531246 0.208810681 58.8531246 62.7671642 0.0690331649 62.7671642"></polygon>
        <polygon id="path-3" points="0.168285299 0.256382687 51.2356477 0.256382687 51.2356477 56.2507545 0.168285299 56.2507545"></polygon>
    </defs>
    <g id="Symbols" stroke="none" stroke-width="1" fill="none" fill-rule="evenodd">
        <g id="Logo">
            <g id="the-lovely-geek-logo">
                <path d="M25.988361,70.9098752 C42.0025386,67.4680782 48.7814469,49.6730096 37.3849039,49.6730096 C30.7807336,49.6730096 26.6888559,54.4567916 25.988361,70.9098752 M19.6765779,93.5480275 C18.3905371,93.2561409 17.1044964,93.1394633 15.8192271,93.1394633 C7.81213828,93.1394633 7.86999854,100.840956 13.0724076,100.840956 C16.1116143,100.840956 18.4483974,98.9744991 19.6765779,93.5480275 M132.825792,102.767099 C131.94863,108.192416 113.246651,116.360619 92.8493654,116.360619 C57.9576987,116.360619 39.6638268,100.607986 23.4749112,94.6566573 C20.7280917,100.432777 16.1694745,102.650036 12.4290015,102.650036 C5.24005677,102.650036 5.47342649,91.2730066 16.344984,91.2730066 C17.5716215,91.2730066 18.7994163,91.3896842 20.0268253,91.6226543 C20.4357045,88.9979857 20.66946,85.7876185 20.66946,81.8205797 C20.66946,80.8286275 20.66946,74.061326 20.7280917,73.1271349 C14.7086958,73.2441976 7.92901601,71.4347319 0.564561863,66.5928036 C-0.720707424,65.7760603 0.447684134,64.3755439 1.50035517,65.0759946 C8.57165066,69.7430991 15.1168035,71.4936484 20.7871092,71.4347319 C21.8976405,52.4736573 29.9043435,47.8053976 37.6772911,47.8053976 C51.4121601,47.8053976 43.7557045,68.6930006 25.9297293,72.5437469 L25.9297293,81.8205797 C25.9297293,86.2550991 25.2870946,89.8143439 24.2930553,92.6727528 C41.4763959,98.3318096 60.7045182,113.443293 93.492,113.443293 C111.375836,113.443293 130.370202,107.95983 131.189504,102.35815 C131.598383,99.557117 133.293689,99.7908573 132.825792,102.767099" id="Fill-1" fill="#5B6770"></path>
                <path d="M49.0164367,69.6268066 C44.1064148,69.6268066 42.5283726,73.3608752 42.5283726,82.2287588 C42.5283726,91.1559439 43.8144134,95.1237528 48.4316623,95.1237528 L48.4906798,95.1237528 C53.3409127,95.1237528 54.9772009,91.3896842 54.9772009,82.5795618 C54.9772009,73.6527618 53.6332999,69.6268066 49.0164367,69.6268066 M48.6654178,96.8150006 L48.606786,96.8150006 C39.6654469,96.8150006 37.2681033,89.1135081 37.2681033,82.2287588 C37.2681033,74.0024096 42.7625138,67.817726 48.7822955,67.817726 L48.8401557,67.817726 C57.7830378,67.817726 60.2374702,75.5192185 60.2374702,82.4043528 C60.2374702,90.630317 54.7438311,96.8150006 48.6654178,96.8150006" id="Fill-3" fill="#5B6770"></path>
                <path d="M80.6346783,79.1949869 C80.8688195,77.3281451 80.9856972,75.3442406 80.9856972,73.4188675 C80.9856972,69.5681212 79.8165342,65.4844048 77.4793654,65.4844048 C71.6925677,65.4844048 74.2060175,77.3866764 80.6346783,79.1949869 M90.3957045,76.9777272 C87.7067453,79.6039361 85.194067,80.7707122 82.9730044,80.9455361 C81.3367162,90.0479301 77.0697147,96.8152316 72.9199767,96.8152316 C67.4263377,96.8152316 63.8023566,90.3394316 63.7444964,79.5454048 L63.7444964,71.6683182 C63.7444964,68.5769391 63.9200058,68.3428137 65.556294,67.1175063 C68.7702387,64.6672764 68.9465197,67.5268406 68.9465197,72.7773331 L68.9465197,79.1949869 C68.9465197,87.771754 69.4726623,94.7727958 73.85577,94.7727958 C76.3688341,94.7727958 79.2317598,88.5888824 80.4599403,80.7707122 C72.3352023,78.6697451 68.8292562,63.7920018 77.4793654,63.7920018 C80.4599403,63.7920018 83.6160247,67.7598107 83.6160247,73.4188675 C83.6160247,75.4613033 83.4401295,77.4444376 83.2067598,79.3698107 C85.017786,79.1372257 87.0641106,78.0859719 89.2851732,75.8687122 C90.336687,74.8189988 91.5062358,75.810951 90.3957045,76.9777272" id="Fill-5" fill="#5B6770"></path>
                <path d="M93.4927329,82.4041988 C93.4927329,83.3376197 93.4927329,84.1539779 93.5505932,84.9711063 C104.188781,78.261566 102.901969,69.4510585 99.0446179,69.4510585 C94.8956514,69.4510585 93.4927329,73.4773988 93.4927329,82.4041988 M107.753745,87.0713033 C107.753745,91.6225003 105.415033,96.8152316 99.3956368,96.8152316 C93.3758552,96.8152316 88.2324636,93.4308107 88.2324636,82.4041988 C88.2324636,73.1858973 91.5061972,67.8175719 99.9800255,67.8175719 C106.525564,67.8175719 112.194713,75.1694167 93.6096106,86.4886854 C94.1353675,92.3807122 95.9471652,94.9483899 99.9800255,94.9483899 C103.019232,94.9483899 104.772398,93.3149033 104.772398,89.7560436 C104.772398,88.6470287 103.837376,87.7128376 102.201088,87.2468973 C100.213781,86.6635093 100.5648,82.5794078 103.720884,82.5794078 C106.584196,82.5794078 107.753745,85.1459301 107.753745,87.0713033" id="Fill-7" fill="#5B6770"></path>
                <path d="M115.409583,59.4159367 C135.163076,54.7488322 141.592894,32.9863397 126.863986,32.9863397 C119.909568,32.9863397 116.343833,44.2463069 115.409583,59.4159367 M115.176213,67.8174949 L115.176213,82.4041218 C115.176213,92.14728 115.70197,94.9483128 119.149285,94.9483128 C121.428979,94.9483128 123.942429,93.1392322 125.169066,84.6791427 C125.578717,81.87888 127.331883,82.1122352 126.806126,85.0880919 C125.227698,94.7727188 121.662734,96.8151546 118.623528,96.8151546 C114.006664,96.8151546 109.915944,94.3649248 109.915944,82.4041218 L109.915944,67.8174949 C109.915944,65.8343606 110.03205,63.8508412 110.149314,61.9836143 C106.175471,62.2169696 101.791206,61.8665516 97.0578508,60.583483 C95.5970721,60.2330651 96.2389352,58.5406621 97.46673,58.8914651 C102.083593,60.1160024 106.408841,60.4660352 110.266191,60.1741487 C111.90248,42.9047069 118.974547,31.1194979 127.156373,31.1194979 C143.75494,31.1194979 137.091752,56.3234024 115.350951,61.2250173 C115.234074,63.3845158 115.176213,65.542474 115.176213,67.8174949" id="Fill-9" fill="#5B6770"></path>
                <g id="Group-13" transform="translate(98.362445, 66.021045)">
                    <mask id="mask-2" fill="white">
                        <use xlink:href="#path-1"></use>
                    </mask>
                    <g id="Clip-12"></g>
                    <path d="M46.5021769,41.8796767 C46.5021769,56.174417 46.9700735,60.900823 51.1201972,60.900823 C59.5353937,60.900823 60.5888362,48.2973304 46.5021769,41.8796767 M50.1847897,62.7672797 C44.8658886,62.7672797 42.2355611,57.691611 41.5350662,40.0713663 C32.6512016,37.56222 19.6766164,37.1540409 1.50000801,41.3552051 C0.272213246,41.5881752 -0.662037118,40.01322 0.856987627,39.6628021 C18.9749643,35.5201693 32.2423224,35.7531394 41.4178028,38.2622857 C41.300925,34.8774797 41.242679,31.0860349 41.242679,26.8274946 L41.242679,24.7261424 C39.6642511,28.63542 37.2090473,30.7941484 34.1127518,30.7941484 C29.0276063,30.7941484 25.111238,28.5768887 25.0533777,16.849826 L25.0533777,5.64723493 C25.0533777,2.55585582 25.2288872,2.32173045 26.8651754,1.09642299 C30.1381376,-1.35342179 30.255401,1.50575731 30.255401,6.75624985 L30.255401,16.4994081 C30.3128755,26.0099812 31.0727737,29.1025155 34.9891419,29.1025155 C38.2624898,29.1025155 40.7173079,23.3252409 41.242679,14.8073901 C41.242679,11.8323036 41.300925,6.69848866 41.300925,5.64723493 C41.300925,2.55585582 41.4768202,2.32173045 43.1127227,1.09642299 C46.3852991,-1.35342179 46.5021769,1.50575731 46.5021769,6.75624985 C46.5021769,8.27344388 46.4443166,14.0495633 46.4443166,16.4994081 C46.4443166,16.6172409 46.5021769,26.8274946 46.5021769,26.8274946 L46.5021769,39.9543036 C63.2766383,47.1305543 61.4065946,62.7672797 50.1847897,62.7672797" id="Fill-11" fill="#5B6770" mask="url(#mask-2)"></path>
                </g>
                <path d="M167.658402,62.8007427 C190.802507,78.3200203 211.200178,47.5136651 185.777151,47.688874 C178.880593,47.7474054 171.10726,50.8391696 167.658402,62.8007427 M150.183446,46.8139845 C148.196525,48.3311785 146.268235,50.0224263 144.455666,51.8315069 C148.371648,52.5315725 153.047143,54.2239755 158.540782,57.198677 C158.132675,55.0992501 156.963126,52.8819904 154.742449,50.6647307 C153.457566,49.3808919 151.87798,48.0392919 150.183446,46.8139845 M158.716678,59.3577904 C152.288017,55.6822531 147.202871,53.8146412 143.228257,53.173877 C142.937027,53.4068472 142.703271,53.6987337 142.468359,53.9902352 C138.611394,58.3662233 134.754043,61.3413099 131.130448,63.1503904 C131.364975,64.0248949 131.656976,64.8424084 132.065469,65.4843278 C138.961641,76.8032113 158.248395,69.8599307 158.716678,59.3577904 M130.897078,61.1672561 C134.053162,59.5337696 137.38437,56.8490293 140.832071,52.9401367 C140.890317,52.9401367 140.890317,52.9401367 140.890317,52.8819904 C133.52702,52.5315725 130.83806,57.0246233 130.897078,61.1672561 M128.967631,62.0995218 C128.325768,56.4408501 132.299225,50.6061994 142.175586,51.5396203 C144.163279,49.3808919 146.32571,47.4555188 148.605018,45.764271 C139.195782,39.5784322 125.694669,36.2533128 117.220841,47.5136651 C109.857158,57.2575934 117.279472,66.8844591 128.967631,62.0995218 M160.703599,60.5249516 C159.301452,71.8438352 137.500091,78.0858949 130.487813,66.4755099 C130.019916,65.6595367 129.611037,64.8424084 129.377282,63.9667487 C115.876554,69.510283 106.64167,58.5995785 115.408657,46.9884233 C124.17603,35.3198919 138.845535,37.4790054 149.891059,44.83008 C180.867129,22.5419606 231.479814,33.4526651 221.602682,47.3977576 C217.921612,52.5901039 212.252078,49.9638949 213.479487,47.9226143 C214.649036,45.8220322 218.388737,47.7474054 219.5579,46.5806293 C229.201277,36.9537636 181.802922,24.0595397 151.411241,45.8801785 C153.047143,47.105871 154.625186,48.4478561 156.027718,49.8479875 C159.009065,52.8234591 160.411212,55.6822531 160.703599,58.3662233 C161.872376,59.0659039 163.099785,59.7663546 164.326809,60.583483 C169.587078,50.1984054 179.230455,45.8801785 186.069152,45.8220322 C213.771874,45.6464382 192.731183,80.8283964 167.191277,64.6675845 C166.373519,68.2264442 165.905237,72.4853696 165.905237,77.5036621 L165.905237,78.3200203 C165.963097,91.1560979 168.419072,95.1235218 173.269691,95.1235218 C177.301779,95.1235218 178.997471,91.8553934 179.522842,88.7640143 C179.580702,88.0635636 179.580702,87.1305278 179.580702,86.0215128 C179.580702,82.9289785 179.815229,82.6382472 181.3925,81.4121696 C184.665462,78.9619397 184.841743,81.87888 184.841743,87.0712263 C184.841743,91.3309218 184.72448,90.0478531 184.72448,90.1056143 C184.549356,107.725859 176.60167,112.860444 168.476547,112.860444 C159.476576,112.860444 158.132675,101.016319 163.626314,98.4486412 C167.833912,96.466277 169.820448,101.249674 166.022114,102.18348 C160.646124,103.466549 161.872376,111.226958 169.411954,111.226958 C175.081103,111.226958 178.938453,106.617999 179.463825,92.9644084 C177.945571,95.1816681 175.665491,96.8151546 172.333897,96.8151546 C166.373519,96.8151546 160.761845,93.7226203 160.646124,78.6696681 L160.646124,77.678486 C160.646124,71.61048 161.755113,66.4755099 163.568068,62.2755009 C162.5748,61.6335815 161.639392,61.0494233 160.703599,60.5249516" id="Fill-14" fill="#5B6770"></path>
                <path d="M193.726032,82.4041988 C193.726032,83.3376197 193.726032,84.1539779 193.783121,84.9711063 C204.420537,78.261566 203.135268,69.4510585 199.277917,69.4510585 C195.127408,69.4510585 193.726032,73.4773988 193.726032,82.4041988 M207.985886,87.0713033 C207.985886,91.6225003 205.64756,96.8152316 199.628164,96.8152316 C193.607997,96.8152316 188.464606,93.4308107 188.464606,82.4041988 C188.464606,73.1858973 191.738725,67.8175719 200.212553,67.8175719 C206.757706,67.8175719 212.427626,75.1694167 193.842138,86.4886854 C194.367895,92.3807122 196.179307,94.9483899 200.212553,94.9483899 C203.251374,94.9483899 205.004926,93.3149033 205.004926,89.7560436 C205.004926,88.6470287 204.069904,87.7128376 202.433616,87.2468973 C200.445923,86.6635093 200.797328,82.5794078 203.952255,82.5794078 C206.816723,82.5794078 207.985886,85.1459301 207.985886,87.0713033" id="Fill-16" fill="#5B6770"></path>
                <path d="M215.291053,82.4041988 C215.291053,83.3376197 215.291053,84.1539779 215.349685,84.9711063 C225.98633,78.261566 224.70106,69.4510585 220.84371,69.4510585 C216.693586,69.4510585 215.291053,73.4773988 215.291053,82.4041988 M229.551293,87.0713033 C229.551293,91.6225003 227.214124,96.8152316 221.194343,96.8152316 C215.17379,96.8152316 210.030398,93.4308107 210.030398,82.4041988 C210.030398,73.1858973 213.30336,67.8175719 221.778731,67.8175719 C228.32427,67.8175719 233.993033,75.1694167 215.408317,86.4886854 C215.934459,92.3807122 217.7451,94.9483899 221.778731,94.9483899 C224.818324,94.9483899 226.570718,93.3149033 226.570718,89.7560436 C226.570718,88.6470287 225.636082,87.7128376 223.999794,87.2468973 C222.012873,86.6635093 222.361963,82.5794078 225.518819,82.5794078 C228.381745,82.5794078 229.551293,85.1459301 229.551293,87.0713033" id="Fill-18" fill="#5B6770"></path>
                <g id="Group-22" transform="translate(213.697234, 40.606119)">
                    <mask id="mask-4" fill="white">
                        <use xlink:href="#path-3"></use>
                    </mask>
                    <g id="Clip-21"></g>
                    <path d="M23.3934825,23.2445678 C47.7067504,22.8941499 42.2131114,2.12360955 30.231794,2.12360955 C26.433075,2.12360955 23.6268523,6.84963045 23.3934825,23.2445678 M51.1548362,44.4818185 C49.5771798,54.1668304 46.0122162,56.2088812 42.9136063,56.2088812 C38.2975146,56.2088812 34.2654258,53.8749439 34.2654258,46.1156901 L34.2654258,45.88272 C34.2654258,40.3395707 34.7325509,37.8893409 31.2833079,37.8893409 C28.3031186,37.8893409 23.3934825,43.6654603 23.3934825,52.5333439 L23.3934825,52.7089379 C23.2187445,56.1499648 21.3487009,56.3840901 19.0690066,56.2088812 C17.1989629,56.0340573 18.0749672,55.1591678 18.0749672,50.8994722 C18.0749672,46.3490454 18.1332132,32.229129 18.1332132,24.9365857 L18.1332132,24.6450842 C13.2829803,24.2361349 7.61306041,23.1860364 1.00927584,21.3773409 C-0.451888646,20.9687767 0.190745997,19.2771439 1.41854076,19.6267916 C7.96407933,21.5521648 13.5171215,22.6022633 18.1922307,23.0112125 C18.6597416,4.69013194 25.6735626,0.256382687 30.582813,0.256382687 C44.7265611,0.256382687 51.5641012,24.7028454 23.3934825,24.8780543 L23.3934825,24.9365857 C23.3934825,29.3125737 23.3348508,34.1545021 23.3348508,39.7561827 C25.6735626,31.9376275 30.8752001,26.5704573 34.4401638,25.6947976 C40.9266849,24.061311 40.22619,32.1132215 35.0831841,29.9541081 C30.464778,28.0287349 26.0245815,34.5634513 24.3863646,41.6226394 C26.5507242,38.0056334 29.5891594,36.0798752 31.8680822,36.0798752 C36.4270852,36.0798752 39.4666776,38.1226961 39.4666776,45.88272 L39.4666776,46.1156901 C39.4666776,51.6588394 40.0495233,54.4005707 43.4983806,54.4005707 C45.719829,54.4005707 48.2915247,52.5333439 49.518548,44.0732543 C49.927813,41.2726066 51.6235044,41.5644931 51.1548362,44.4818185" id="Fill-20" fill="#5B6770" mask="url(#mask-4)"></path>
                </g>
                <path d="M65.2678028,48.1415678 C65.2678028,48.1400275 65.3237344,47.8593081 65.42904,47.3294454 C65.5011725,47.0672096 65.5011725,46.7310394 65.5239309,46.342114 C65.5706048,45.9531887 65.4984723,45.5049618 65.4529556,45.010911 C65.2882467,44.0316663 64.8866965,42.8706663 64.0901536,41.7824454 C63.3059541,40.6876782 62.1622496,39.6930304 60.8114054,38.828923 C60.1417693,38.3880125 59.3892001,38.0121797 58.6169585,37.6290304 C58.2319949,37.435723 57.8138581,37.2832334 57.4084505,37.0972424 C57.0015,36.9524543 56.5872205,36.8057409 56.1683122,36.6571021 C55.6961725,36.5180901 55.2174753,36.3775379 54.7326063,36.2346752 C54.2064636,36.0679379 53.6745349,35.8992752 53.1368202,35.727917 C52.1061361,35.3382215 51.0692802,34.9246513 50.0763981,34.4679528 C49.5726281,34.2453797 49.0638435,34.0216513 48.5515873,33.7956125 C48.0755902,33.5949887 47.4213836,33.2853887 46.9673734,33.0493379 C46.7297606,32.9291946 46.5226208,32.8302304 46.3652409,32.7751648 C46.2900226,32.7482096 46.2047751,32.7108573 46.1692875,32.7127827 C46.1453719,32.7077767 46.1226135,32.7000752 46.098698,32.6904484 C46.0863544,32.6865976 46.1310997,32.6946842 46.1453719,32.6823618 C46.1604156,32.6754304 46.1966747,32.6469349 46.1858741,32.6342275 L45.9787344,32.6950693 L45.8757431,32.7258752 L45.8244403,32.7412782 L45.7978246,32.7485946 L45.9721769,32.678511 C46.0134505,32.6588722 46.0277227,32.6353827 46.0940691,32.5830125 C46.1951317,32.487129 46.2884796,32.2938215 46.2884796,32.2329797 C46.2938799,32.1486484 46.2780648,32.187926 46.2765218,32.2576245 C46.271893,32.4139648 46.3108523,32.7100872 46.3382394,33.0635857 C46.3494258,33.2507319 46.3579119,33.4305618 46.3463399,33.6750842 C46.3397824,33.7936872 46.3231958,33.9927707 46.3096951,34.0324334 L46.2900226,34.1394842 L46.2672642,34.2577021 L46.2537635,34.3112275 C46.1145131,34.8822931 45.9733341,35.4548991 45.8333122,36.0290454 C45.536682,37.1738722 45.2350371,38.3160036 44.8766892,39.4346454 L44.3694476,41.1235827 L44.2498697,41.5467797 C44.1954811,41.7543349 44.1623079,41.8348155 44.1164054,41.9857648 L43.8641346,42.7940364 C43.5937344,43.8872633 43.466056,45.010911 43.5378028,46.1145349 C43.6238217,48.3468125 44.8253865,50.3503558 46.4331303,51.5510185 C47.2616892,52.1397976 48.1508086,52.5791678 49.0580575,52.9191887 C49.5190109,53.0766842 49.9151608,53.2052991 50.4004156,53.3377648 C50.6519148,53.4020722 50.9014854,53.4659946 51.1491274,53.5295319 L51.3346659,53.5792066 L51.4264709,53.6046215 L51.4731448,53.617329 C51.5275335,53.6335021 51.4249279,53.6030812 51.4430575,53.607317 L51.4650444,53.6111678 L51.812206,53.6781707 C53.6521623,54.0694066 55.3752409,54.2561678 56.9640837,54.2172752 C58.5475262,54.1741469 60.0059905,53.8418275 61.2071696,53.2422663 C62.4125917,52.6496364 63.3036397,51.7878394 63.9057722,50.9915051 C64.4874607,50.1678304 64.8164927,49.4546722 64.9997169,48.9352066 C65.1675116,48.4384603 65.2597023,48.1658275 65.2678028,48.1415678 L65.2678028,48.1415678 Z M65.5632758,48.2324454 C65.5632758,48.2324454 65.4726281,48.5120096 65.3040619,49.0349409 C65.1351099,49.5544066 64.8353937,50.3384185 64.3485961,51.269914 C63.8378828,52.1894722 63.1200298,53.2973319 61.9589672,54.3289469 C60.8106339,55.356326 59.1909323,56.2681827 57.2715146,56.6594185 C55.3578828,57.0406424 53.2151245,56.9058663 51.1433413,56.3001439 L50.752206,56.1896275 L50.6519148,56.1588215 L50.6067838,56.1426484 L50.5180648,56.109917 L50.3379265,56.0432991 C50.0991565,55.950111 49.8588435,55.856923 49.6169876,55.7633499 C49.1271041,55.5519439 48.5577591,55.2592872 48.0551463,54.9816484 C47.0591783,54.3851678 46.1256994,53.6308066 45.3129556,52.7482155 C43.7086834,50.9364394 42.7717329,48.5859439 42.5996951,46.1861588 C42.510976,44.9866513 42.5638217,43.772126 42.7354738,42.5703081 L42.8874534,41.671929 C42.9071259,41.537923 42.9510997,41.3357588 42.9530284,41.2560484 L43.0143603,40.8193737 L43.2280575,39.0649737 C43.3854374,37.8935767 43.4783996,36.7229499 43.569433,35.5634901 C43.6272933,34.9858782 43.6847678,34.4086513 43.7418566,33.83412 L43.7480284,33.7802096 C43.744171,33.8002334 43.7599862,33.6981887 43.7403137,33.8179469 L43.7418566,33.7906066 L43.7511143,33.6820155 C43.764615,33.5788155 43.7403137,33.6311857 43.7433996,33.6057707 L43.7071405,33.348926 C43.6712671,33.1255827 43.6002918,32.8525648 43.5536179,32.4332185 C43.5370313,32.2156513 43.5142729,31.9622722 43.5914199,31.5976066 C43.6515946,31.2568155 43.8834214,30.7924155 44.2066674,30.5128513 C44.371762,30.3526603 44.5194985,30.2694842 44.6838217,30.1743707 C44.7740837,30.1339379 44.5646295,30.2148036 44.9036907,30.0765618 L44.9283777,30.0669349 L44.978909,30.0480663 L45.0799716,30.010329 L45.2817111,29.9340842 C45.411318,29.8998125 45.5922278,29.8670812 45.7496077,29.8459021 C45.9066019,29.8266484 46.0940691,29.8089349 46.2244476,29.8139409 L46.5793239,29.8466722 C46.8308231,29.8674663 47.0163617,29.9225319 47.2150153,29.9737469 C47.6046077,30.0792573 47.920139,30.2113379 48.198254,30.3237797 C48.7714563,30.5663767 49.1514054,30.707314 49.7149643,30.9164096 C50.2391783,31.1112573 50.7591492,31.3053349 51.2752627,31.4978722 C52.2870459,31.8756304 53.2814709,32.2472275 54.2546805,32.6107379 C55.2402336,32.9380513 56.2045713,33.2580484 57.1434505,33.5691887 C57.6541638,33.767117 58.1887926,33.9981618 58.6802191,34.2222752 C59.1523588,34.4744991 59.631056,34.6882155 60.0680939,34.9727857 C60.9529702,35.5122752 61.758385,36.1233887 62.442679,36.8084364 C63.8409687,38.1473409 64.7794622,39.7034275 65.3144767,41.1439916 C65.8568202,42.5930275 65.9999279,43.9111379 66.0180575,44.9685528 C65.9972278,45.500726 66.0014709,45.9693618 65.927024,46.3733051 C65.8749498,46.7780185 65.8359905,47.12112 65.759615,47.3914424 L65.5648188,48.2266693 L65.5632758,48.2324454 Z" id="Fill-23" fill="#5B6770"></path>
                <path d="M65.2678028,48.1415678 C65.2678028,48.1400275 65.3237344,47.8593081 65.42904,47.3294454 C65.5011725,47.0672096 65.5011725,46.7310394 65.5239309,46.342114 C65.5706048,45.9531887 65.4984723,45.5049618 65.4529556,45.010911 C65.2882467,44.0316663 64.8866965,42.8706663 64.0901536,41.7824454 C63.3059541,40.6876782 62.1622496,39.6930304 60.8114054,38.828923 C60.1417693,38.3880125 59.3892001,38.0121797 58.6169585,37.6290304 C58.2319949,37.435723 57.8138581,37.2832334 57.4084505,37.0972424 C57.0015,36.9524543 56.5872205,36.8057409 56.1683122,36.6571021 C55.6961725,36.5180901 55.2174753,36.3775379 54.7326063,36.2346752 C54.2064636,36.0679379 53.6745349,35.8992752 53.1368202,35.727917 C52.1061361,35.3382215 51.0692802,34.9246513 50.0763981,34.4679528 C49.5726281,34.2453797 49.0638435,34.0216513 48.5515873,33.7956125 C48.0755902,33.5949887 47.4213836,33.2853887 46.9673734,33.0493379 C46.7297606,32.9291946 46.5226208,32.8302304 46.3652409,32.7751648 C46.2900226,32.7482096 46.2047751,32.7108573 46.1692875,32.7127827 C46.1453719,32.7077767 46.1226135,32.7000752 46.098698,32.6904484 C46.0863544,32.6865976 46.1310997,32.6946842 46.1453719,32.6823618 C46.1604156,32.6754304 46.1966747,32.6469349 46.1858741,32.6342275 L45.9787344,32.6950693 L45.8757431,32.7258752 L45.8244403,32.7412782 L45.7978246,32.7485946 L45.9721769,32.678511 C46.0134505,32.6588722 46.0277227,32.6353827 46.0940691,32.5830125 C46.1951317,32.487129 46.2884796,32.2938215 46.2884796,32.2329797 C46.2938799,32.1486484 46.2780648,32.187926 46.2765218,32.2576245 C46.271893,32.4139648 46.3108523,32.7100872 46.3382394,33.0635857 C46.3494258,33.2507319 46.3579119,33.4305618 46.3463399,33.6750842 C46.3397824,33.7936872 46.3231958,33.9927707 46.3096951,34.0324334 L46.2900226,34.1394842 L46.2672642,34.2577021 L46.2537635,34.3112275 C46.1145131,34.8822931 45.9733341,35.4548991 45.8333122,36.0290454 C45.536682,37.1738722 45.2350371,38.3160036 44.8766892,39.4346454 L44.3694476,41.1235827 L44.2498697,41.5467797 C44.1954811,41.7543349 44.1623079,41.8348155 44.1164054,41.9857648 L43.8641346,42.7940364 C43.5937344,43.8872633 43.466056,45.010911 43.5378028,46.1145349 C43.6238217,48.3468125 44.8253865,50.3503558 46.4331303,51.5510185 C47.2616892,52.1397976 48.1508086,52.5791678 49.0580575,52.9191887 C49.5190109,53.0766842 49.9151608,53.2052991 50.4004156,53.3377648 C50.6519148,53.4020722 50.9014854,53.4659946 51.1491274,53.5295319 L51.3346659,53.5792066 L51.4264709,53.6046215 L51.4731448,53.617329 C51.5275335,53.6335021 51.4249279,53.6030812 51.4430575,53.607317 L51.4650444,53.6111678 L51.812206,53.6781707 C53.6521623,54.0694066 55.3752409,54.2561678 56.9640837,54.2172752 C58.5475262,54.1741469 60.0059905,53.8418275 61.2071696,53.2422663 C62.4125917,52.6496364 63.3036397,51.7878394 63.9057722,50.9915051 C64.4874607,50.1678304 64.8164927,49.4546722 64.9997169,48.9352066 C65.1675116,48.4384603 65.2597023,48.1658275 65.2678028,48.1415678 Z M65.5632758,48.2324454 C65.5632758,48.2324454 65.4726281,48.5120096 65.3040619,49.0349409 C65.1351099,49.5544066 64.8353937,50.3384185 64.3485961,51.269914 C63.8378828,52.1894722 63.1200298,53.2973319 61.9589672,54.3289469 C60.8106339,55.356326 59.1909323,56.2681827 57.2715146,56.6594185 C55.3578828,57.0406424 53.2151245,56.9058663 51.1433413,56.3001439 L50.752206,56.1896275 L50.6519148,56.1588215 L50.6067838,56.1426484 L50.5180648,56.109917 L50.3379265,56.0432991 C50.0991565,55.950111 49.8588435,55.856923 49.6169876,55.7633499 C49.1271041,55.5519439 48.5577591,55.2592872 48.0551463,54.9816484 C47.0591783,54.3851678 46.1256994,53.6308066 45.3129556,52.7482155 C43.7086834,50.9364394 42.7717329,48.5859439 42.5996951,46.1861588 C42.510976,44.9866513 42.5638217,43.772126 42.7354738,42.5703081 L42.8874534,41.671929 C42.9071259,41.537923 42.9510997,41.3357588 42.9530284,41.2560484 L43.0143603,40.8193737 L43.2280575,39.0649737 C43.3854374,37.8935767 43.4783996,36.7229499 43.569433,35.5634901 C43.6272933,34.9858782 43.6847678,34.4086513 43.7418566,33.83412 L43.7480284,33.7802096 C43.744171,33.8002334 43.7599862,33.6981887 43.7403137,33.8179469 L43.7418566,33.7906066 L43.7511143,33.6820155 C43.764615,33.5788155 43.7403137,33.6311857 43.7433996,33.6057707 L43.7071405,33.348926 C43.6712671,33.1255827 43.6002918,32.8525648 43.5536179,32.4332185 C43.5370313,32.2156513 43.5142729,31.9622722 43.5914199,31.5976066 C43.6515946,31.2568155 43.8834214,30.7924155 44.2066674,30.5128513 C44.371762,30.3526603 44.5194985,30.2694842 44.6838217,30.1743707 C44.7740837,30.1339379 44.5646295,30.2148036 44.9036907,30.0765618 L44.9283777,30.0669349 L44.978909,30.0480663 L45.0799716,30.010329 L45.2817111,29.9340842 C45.411318,29.8998125 45.5922278,29.8670812 45.7496077,29.8459021 C45.9066019,29.8266484 46.0940691,29.8089349 46.2244476,29.8139409 L46.5793239,29.8466722 C46.8308231,29.8674663 47.0163617,29.9225319 47.2150153,29.9737469 C47.6046077,30.0792573 47.920139,30.2113379 48.198254,30.3237797 C48.7714563,30.5663767 49.1514054,30.707314 49.7149643,30.9164096 C50.2391783,31.1112573 50.7591492,31.3053349 51.2752627,31.4978722 C52.2870459,31.8756304 53.2814709,32.2472275 54.2546805,32.6107379 C55.2402336,32.9380513 56.2045713,33.2580484 57.1434505,33.5691887 C57.6541638,33.767117 58.1887926,33.9981618 58.6802191,34.2222752 C59.1523588,34.4744991 59.631056,34.6882155 60.0680939,34.9727857 C60.9529702,35.5122752 61.758385,36.1233887 62.442679,36.8084364 C63.8409687,38.1473409 64.7794622,39.7034275 65.3144767,41.1439916 C65.8568202,42.5930275 65.9999279,43.9111379 66.0180575,44.9685528 C65.9972278,45.500726 66.0014709,45.9693618 65.927024,46.3733051 C65.8749498,46.7780185 65.8359905,47.12112 65.759615,47.3914424 L65.5648188,48.2266693 L65.5632758,48.2324454 Z" id="Stroke-25" stroke="#5B6770" stroke-width="0.5"></path>
                <path d="M74.5932569,51.3872848 C74.5932569,51.3872848 74.6850619,51.1042549 74.8570997,50.5724669 C74.932318,50.3017594 75.0754258,49.9879236 75.2397489,49.6144012 C75.3843996,49.2297116 75.63127,48.8307743 75.8881696,48.3640639 C76.4494141,47.4676101 77.2540575,46.4121206 78.4671943,45.4502042 C79.670302,44.4925236 81.2788173,43.643049 83.1681477,43.2156161 C84.1085699,42.9811057 85.1134098,42.8728997 86.1518086,42.8663534 C86.6713937,42.8478699 87.1929076,42.910637 87.7279221,42.9379773 C88.2640939,42.9988191 88.8426965,43.0766042 89.3823399,43.1705624 C90.3474491,43.3869743 91.3380167,43.6091624 92.3521143,43.8367415 C93.3739265,44.0261982 94.4181114,44.2206609 95.4788828,44.417434 C96.0204549,44.5187087 96.5666557,44.6199833 97.116714,44.7224131 C97.7072744,44.8344699 98.1049672,44.9091743 98.7221434,44.9969713 C99.0180022,45.0431803 99.3570633,45.09324 99.7443413,45.2033713 C99.9418377,45.2619027 100.129305,45.3108072 100.355346,45.4224788 L100.675506,45.5772788 C100.790069,45.6396609 100.940892,45.7517176 101.06587,45.8487564 C101.190076,45.9477206 101.32817,46.068634 101.421517,46.1649027 L101.554596,46.3343355 L101.621714,46.4186669 L101.654887,46.4610251 L101.671474,46.4822042 C101.890186,46.7748609 101.752864,46.5977266 101.810338,46.6785922 C101.9006,46.8445594 101.985076,46.9916579 102.042937,47.214231 C102.17563,47.6200997 102.135513,48.1380251 102.009763,48.4603325 C101.887871,48.8126758 101.73782,49.0186907 101.611299,49.1958251 C101.3544,49.5319952 101.151889,49.7283833 101.005695,49.9012818 L100.841372,50.1026758 C100.830957,50.1261654 100.838286,50.0684042 100.796241,50.1642878 L100.748024,50.2620967 L100.734909,50.2867415 C100.779654,50.1735296 100.740309,50.2694131 100.748024,50.2505445 L100.724494,50.299449 C100.476852,50.8212251 100.228053,51.3449266 99.9796397,51.8690131 C99.4581259,52.9098699 98.932369,53.9599684 98.4613865,55.0439534 L97.7389047,56.6578012 L97.5657096,57.0628997 C97.5248217,57.1318281 97.4584753,57.327446 97.4067868,57.4533654 L97.0719687,58.3012997 C96.5975146,59.4191713 96.0150546,60.4865982 95.3188028,61.4685385 C93.9313137,63.4358848 91.9150764,64.9665564 89.6037518,65.692037 C88.4519469,66.0293624 87.2623399,66.1953296 86.1005058,66.1930191 C85.526532,66.1722251 84.887369,66.1290967 84.3585262,66.058243 C84.1031696,66.0135743 83.8493559,65.9700609 83.5963137,65.9265475 L83.408075,65.8911206 L83.3143413,65.872637 L83.2676674,65.8641654 L83.1662191,65.8387504 L82.7735408,65.7324699 C80.686714,65.1837385 78.7811827,64.1964072 77.3385335,62.8836878 C75.8966557,61.5598012 74.9805349,59.9447982 74.527682,58.473043 C74.0659571,56.9916609 74.0235262,55.6727803 74.0613282,54.6215266 C74.1261317,53.5733534 74.2738683,52.7469833 74.3973035,52.2151952 C74.5238246,51.6799415 74.591714,51.3949863 74.591714,51.3949863 L74.5932569,51.3872848 Z M74.8914301,51.4631445 C74.8914301,51.4631445 74.828941,51.7492549 74.7109061,52.286049 C74.5994287,52.8259236 74.5118668,53.6068549 74.584385,54.6115146 C74.6889192,55.6034669 75.0075364,56.801049 75.7331041,57.9297027 C76.4517285,59.0618221 77.5298581,60.0976728 78.8633443,60.949843 C80.2045451,61.8016281 81.7775728,62.528649 83.5554258,63.1413027 L83.8879294,63.2629863 L83.9079876,63.2703027 C83.9261172,63.2764639 83.8231259,63.2498937 83.8779003,63.2637564 L83.9238028,63.2764639 L84.0159934,63.3022639 L84.2003748,63.3550191 C84.4460881,63.4289534 84.6933443,63.5025027 84.9417576,63.5768221 C85.4254694,63.7135236 85.830877,63.8070967 86.3076456,63.9099116 C87.2607969,64.0855057 88.2490502,64.1671415 89.2631477,64.0885863 C91.260484,63.8891176 93.3257096,62.7916549 94.5535044,60.924043 C95.1849527,60.0156519 95.656321,58.9871176 95.9895961,57.9116042 L96.1913355,57.0894699 C96.2306805,56.9362101 96.2426383,56.8507236 96.3035844,56.6439385 L96.4204622,56.2199713 L96.8575,54.5117803 C97.1302147,53.369649 97.4615611,52.234834 97.7990793,51.1015594 C97.9753603,50.5374251 98.1516412,49.974831 98.3263792,49.4137773 L98.3429658,49.3610221 L98.3846252,49.2481952 L98.422813,49.1461504 C98.4328421,49.1053325 98.5207897,48.9258878 98.5767213,48.8203773 C98.6928275,48.6062758 98.7927329,48.4568669 98.9007387,48.3016818 C99.105564,48.0128758 99.2922598,47.7799057 99.3690211,47.642434 C99.4037373,47.5827475 99.409909,47.5411594 99.372107,47.616634 C99.3397052,47.6686191 99.3204185,47.8827206 99.3570633,48.0167266 C99.3863792,48.0952818 99.3871507,48.1226221 99.4129949,48.1611296 L99.5252438,48.3105385 L99.5063428,48.2905146 L99.4700837,48.2508519 L99.3979512,48.1715266 L99.2517576,48.0128758 C99.236714,48.0182669 99.2517576,48.0610101 99.2621725,48.0748728 C99.2675728,48.0922012 99.3096179,48.1079893 99.2976601,48.1060639 C99.2722016,48.1018281 99.2479003,48.096437 99.2243705,48.0883504 C99.1958261,48.0687116 99.1024782,48.0563893 99.0241739,48.0406012 C98.8613937,48.0074848 98.6322671,47.9851504 98.3672671,47.9655116 C97.8565539,47.9335504 97.1367722,47.8623116 96.624516,47.7891475 C96.0694432,47.7186788 95.5178421,47.6485952 94.9708697,47.5785116 C93.8846397,47.4591385 92.7829803,47.2796937 91.6982933,47.0829206 C91.149778,46.9523803 90.6058916,46.8229952 90.0693341,46.6951504 C89.5806077,46.5673057 89.0976674,46.4417713 88.6212846,46.3170072 C88.1850182,46.2288251 87.7549236,46.1417982 87.330615,46.0555415 C86.8885626,46.0058669 86.4507533,45.9219206 86.0214301,45.8891893 C85.1616266,45.8194907 84.3226528,45.7540281 83.5210953,45.7867594 C81.9175946,45.8306579 80.4228712,46.0936639 79.1858188,46.6281475 C77.9422089,47.1499236 76.9971579,47.9374012 76.3502802,48.6917624 C76.0563501,49.0914699 75.7624199,49.4384221 75.6011827,49.7953863 C75.4198872,50.1404131 75.2455349,50.4276788 75.172631,50.6899146 C74.9878639,51.1985982 74.8902729,51.4704609 74.8902729,51.4704609 L74.8914301,51.4631445 Z" id="Fill-27" fill="#5B6770"></path>
                <path d="M74.5932569,51.3872848 C74.5932569,51.3872848 74.6850619,51.1042549 74.8570997,50.5724669 C74.932318,50.3017594 75.0754258,49.9879236 75.2397489,49.6144012 C75.3843996,49.2297116 75.63127,48.8307743 75.8881696,48.3640639 C76.4494141,47.4676101 77.2540575,46.4121206 78.4671943,45.4502042 C79.670302,44.4925236 81.2788173,43.643049 83.1681477,43.2156161 C84.1085699,42.9811057 85.1134098,42.8728997 86.1518086,42.8663534 C86.6713937,42.8478699 87.1929076,42.910637 87.7279221,42.9379773 C88.2640939,42.9988191 88.8426965,43.0766042 89.3823399,43.1705624 C90.3474491,43.3869743 91.3380167,43.6091624 92.3521143,43.8367415 C93.3739265,44.0261982 94.4181114,44.2206609 95.4788828,44.417434 C96.0204549,44.5187087 96.5666557,44.6199833 97.116714,44.7224131 C97.7072744,44.8344699 98.1049672,44.9091743 98.7221434,44.9969713 C99.0180022,45.0431803 99.3570633,45.09324 99.7443413,45.2033713 C99.9418377,45.2619027 100.129305,45.3108072 100.355346,45.4224788 L100.675506,45.5772788 C100.790069,45.6396609 100.940892,45.7517176 101.06587,45.8487564 C101.190076,45.9477206 101.32817,46.068634 101.421517,46.1649027 L101.554596,46.3343355 L101.621714,46.4186669 L101.654887,46.4610251 L101.671474,46.4822042 C101.890186,46.7748609 101.752864,46.5977266 101.810338,46.6785922 C101.9006,46.8445594 101.985076,46.9916579 102.042937,47.214231 C102.17563,47.6200997 102.135513,48.1380251 102.009763,48.4603325 C101.887871,48.8126758 101.73782,49.0186907 101.611299,49.1958251 C101.3544,49.5319952 101.151889,49.7283833 101.005695,49.9012818 L100.841372,50.1026758 C100.830957,50.1261654 100.838286,50.0684042 100.796241,50.1642878 L100.748024,50.2620967 L100.734909,50.2867415 C100.779654,50.1735296 100.740309,50.2694131 100.748024,50.2505445 L100.724494,50.299449 C100.476852,50.8212251 100.228053,51.3449266 99.9796397,51.8690131 C99.4581259,52.9098699 98.932369,53.9599684 98.4613865,55.0439534 L97.7389047,56.6578012 L97.5657096,57.0628997 C97.5248217,57.1318281 97.4584753,57.327446 97.4067868,57.4533654 L97.0719687,58.3012997 C96.5975146,59.4191713 96.0150546,60.4865982 95.3188028,61.4685385 C93.9313137,63.4358848 91.9150764,64.9665564 89.6037518,65.692037 C88.4519469,66.0293624 87.2623399,66.1953296 86.1005058,66.1930191 C85.526532,66.1722251 84.887369,66.1290967 84.3585262,66.058243 C84.1031696,66.0135743 83.8493559,65.9700609 83.5963137,65.9265475 L83.408075,65.8911206 L83.3143413,65.872637 L83.2676674,65.8641654 L83.1662191,65.8387504 L82.7735408,65.7324699 C80.686714,65.1837385 78.7811827,64.1964072 77.3385335,62.8836878 C75.8966557,61.5598012 74.9805349,59.9447982 74.527682,58.473043 C74.0659571,56.9916609 74.0235262,55.6727803 74.0613282,54.6215266 C74.1261317,53.5733534 74.2738683,52.7469833 74.3973035,52.2151952 C74.5238246,51.6799415 74.591714,51.3949863 74.591714,51.3949863 L74.5932569,51.3872848 Z M74.8914301,51.4631445 C74.8914301,51.4631445 74.828941,51.7492549 74.7109061,52.286049 C74.5994287,52.8259236 74.5118668,53.6068549 74.584385,54.6115146 C74.6889192,55.6034669 75.0075364,56.801049 75.7331041,57.9297027 C76.4517285,59.0618221 77.5298581,60.0976728 78.8633443,60.949843 C80.2045451,61.8016281 81.7775728,62.528649 83.5554258,63.1413027 L83.8879294,63.2629863 L83.9079876,63.2703027 C83.9261172,63.2764639 83.8231259,63.2498937 83.8779003,63.2637564 L83.9238028,63.2764639 L84.0159934,63.3022639 L84.2003748,63.3550191 C84.4460881,63.4289534 84.6933443,63.5025027 84.9417576,63.5768221 C85.4254694,63.7135236 85.830877,63.8070967 86.3076456,63.9099116 C87.2607969,64.0855057 88.2490502,64.1671415 89.2631477,64.0885863 C91.260484,63.8891176 93.3257096,62.7916549 94.5535044,60.924043 C95.1849527,60.0156519 95.656321,58.9871176 95.9895961,57.9116042 L96.1913355,57.0894699 C96.2306805,56.9362101 96.2426383,56.8507236 96.3035844,56.6439385 L96.4204622,56.2199713 L96.8575,54.5117803 C97.1302147,53.369649 97.4615611,52.234834 97.7990793,51.1015594 C97.9753603,50.5374251 98.1516412,49.974831 98.3263792,49.4137773 L98.3429658,49.3610221 L98.3846252,49.2481952 L98.422813,49.1461504 C98.4328421,49.1053325 98.5207897,48.9258878 98.5767213,48.8203773 C98.6928275,48.6062758 98.7927329,48.4568669 98.9007387,48.3016818 C99.105564,48.0128758 99.2922598,47.7799057 99.3690211,47.642434 C99.4037373,47.5827475 99.409909,47.5411594 99.372107,47.616634 C99.3397052,47.6686191 99.3204185,47.8827206 99.3570633,48.0167266 C99.3863792,48.0952818 99.3871507,48.1226221 99.4129949,48.1611296 L99.5252438,48.3105385 L99.5063428,48.2905146 L99.4700837,48.2508519 L99.3979512,48.1715266 L99.2517576,48.0128758 C99.236714,48.0182669 99.2517576,48.0610101 99.2621725,48.0748728 C99.2675728,48.0922012 99.3096179,48.1079893 99.2976601,48.1060639 C99.2722016,48.1018281 99.2479003,48.096437 99.2243705,48.0883504 C99.1958261,48.0687116 99.1024782,48.0563893 99.0241739,48.0406012 C98.8613937,48.0074848 98.6322671,47.9851504 98.3672671,47.9655116 C97.8565539,47.9335504 97.1367722,47.8623116 96.624516,47.7891475 C96.0694432,47.7186788 95.5178421,47.6485952 94.9708697,47.5785116 C93.8846397,47.4591385 92.7829803,47.2796937 91.6982933,47.0829206 C91.149778,46.9523803 90.6058916,46.8229952 90.0693341,46.6951504 C89.5806077,46.5673057 89.0976674,46.4417713 88.6212846,46.3170072 C88.1850182,46.2288251 87.7549236,46.1417982 87.330615,46.0555415 C86.8885626,46.0058669 86.4507533,45.9219206 86.0214301,45.8891893 C85.1616266,45.8194907 84.3226528,45.7540281 83.5210953,45.7867594 C81.9175946,45.8306579 80.4228712,46.0936639 79.1858188,46.6281475 C77.9422089,47.1499236 76.9971579,47.9374012 76.3502802,48.6917624 C76.0563501,49.0914699 75.7624199,49.4384221 75.6011827,49.7953863 C75.4198872,50.1404131 75.2455349,50.4276788 75.172631,50.6899146 C74.9878639,51.1985982 74.8902729,51.4704609 74.8902729,51.4704609 L74.8914301,51.4631445 Z" id="Stroke-29" stroke="#5B6770" stroke-width="0.5"></path>
                <g id="Group-34" transform="translate(65.189229, 46.767313)">
                    <path d="M0.156917031,0.178443582 C0.156917031,0.178443582 4.65150218,0.788786866 5.74313246,1.10570328 C6.67391121,1.37525552 10.3553668,3.00874209 10.3553668,3.00874209" id="Fill-31" fill="#5B6770"></path>
                    <path d="M0.156917031,0.178443582 C0.156917031,0.178443582 4.65150218,0.788786866 5.74313246,1.10570328 C6.67391121,1.37525552 10.3553668,3.00874209 10.3553668,3.00874209" id="Stroke-33" stroke="#5B6770" stroke-width="1.54029851"></path>
                </g>
                <path d="M122.737817,3.98810239 C124.262627,13.6465442 124.907576,26.4071472 102.977766,26.4071472 L98.5225255,26.4071472 C81.9868341,26.4071472 77.179032,27.4607113 77.7649636,30.972977 C78.5275619,35.7144009 73.8370233,33.1390218 73.250706,29.5682248 C71.7258952,19.9105531 71.0809461,7.14918 93.0107569,7.14918 C93.5380568,7.14918 96.7624163,7.20809642 97.4659971,7.20809642 C114.001689,7.20809642 118.809491,6.0960009 118.223559,2.58373522 C117.402329,-2.15768866 122.151499,0.418075522 122.737817,3.98810239" id="Fill-35" fill="#009CA6"></path>
                <path d="M92.8538785,12.7752743 C92.5900357,13.1360893 92.5344898,13.2050176 91.8262802,13.2050176 C91.340254,13.2050176 90.6737038,13.1907699 89.951222,13.1495669 C89.9654942,13.2608534 89.9654942,13.3990952 89.9654942,13.5793101 C89.8960619,16.1034743 89.4227649,21.9277281 89.1176485,22.0247669 C88.8117606,22.1352833 88.7010546,21.6778146 88.7010546,21.1094445 C88.7010546,20.5129639 88.714941,14.6190116 88.714941,13.8423161 C88.714941,13.5519699 88.714941,13.2878087 88.7284418,13.0660057 C87.1588857,12.9554893 85.7004214,12.789137 85.6309891,12.6227848 C85.5337838,12.3312833 85.9507635,12.2207669 86.4923355,12.1926564 C87.075567,12.1787937 90.8121827,12.0540296 91.5489367,12.0405519 C92.7289003,11.9985788 93.396222,12.0263042 92.8538785,12.7752743" id="Fill-37" fill="#FFFFFF"></path>
                <path d="M100.603219,13.0802534 C100.533015,15.6040325 100.060876,21.6778146 99.7692598,21.7748534 C99.4641434,21.8715072 99.3526659,21.4282863 99.3526659,20.859531 L99.3526659,16.9903012 C99.1304825,17.2952803 99.0332773,17.3653639 98.3806135,17.3653639 C97.3522438,17.3653639 96.1583937,17.2121042 95.3942525,17.0465221 C95.2133428,19.4035639 94.9633865,21.7194027 94.7824767,21.7748534 C94.4765888,21.8715072 94.3658828,21.4282863 94.3658828,20.859531 L94.3658828,13.3440296 C94.3658828,12.0956176 94.4075422,11.416346 95.1855699,11.9985788 C95.5601186,12.2893101 95.6438231,12.345531 95.6156645,13.0802534 C95.6021638,13.898537 95.5327314,15.0772504 95.4494127,16.2971669 C96.0330298,16.2833042 97.366516,16.2005131 98.1021128,16.1862654 C98.6579571,16.1720176 99.1023239,16.1589251 99.3526659,16.2421012 L99.3526659,13.3440296 C99.3526659,12.0956176 99.3947111,11.416346 100.172353,11.9985788 C100.547287,12.2893101 100.630221,12.345531 100.603219,13.0802534" id="Fill-39" fill="#FFFFFF"></path>
                <path d="M109.087886,21.3589728 C108.851431,21.746743 108.795499,21.8715072 108.10079,21.8715072 C106.184459,21.8715072 103.614691,21.746743 102.822777,21.7748534 C102.516889,21.788331 102.420456,21.4144236 102.420456,20.859531 C102.420456,20.2495728 102.433956,14.12034 102.433956,13.3440296 C102.433956,12.0956176 102.47523,11.416346 103.253643,11.9985788 C103.350849,12.0678922 103.420281,12.1375907 103.489328,12.1926564 C104.253469,12.1653161 107.031147,12.0540296 107.725856,12.0263042 C108.906977,11.9985788 109.55964,12.0128266 109.031955,12.7752743 C108.768498,13.1360893 108.712566,13.2050176 108.004357,13.2050176 C106.809735,13.2050176 104.906518,13.0802534 103.683738,12.9139012 L103.683738,13.0802534 C103.655965,13.898537 103.586533,15.0772504 103.5036,16.2971669 C104.086831,16.2833042 105.420317,16.2005131 106.170958,16.1862654 C107.337035,16.1589251 108.004357,16.1720176 107.462013,16.9217579 C107.198556,17.2952803 107.142624,17.3653639 106.447916,17.3653639 C105.406817,17.3653639 104.225696,17.2121042 103.448054,17.0465221 C103.323076,18.7516325 103.155667,20.4432654 103.003687,21.261549 C103.128665,21.2342087 103.267144,21.2064833 103.406009,21.1922355 C103.989626,21.1367848 106.990645,20.8044654 107.725856,20.7209042 C108.906977,20.5965251 109.55964,20.5680296 109.087886,21.3589728" id="Fill-41" fill="#FFFFFF"></path>
            </g>
        </g>
    </g>
</svg>