<?xml version="1.0" encoding="UTF-8"?>
<svg width="264px" height="129px" viewBox="0 0 264 129" version="1.1" xmlns="http://www.w3.org/2000/svg" xmlns:xlink="http://www.w3.org/1999/xlink">
    <!-- Generator: Sketch 49.3 (51167) - http://www.bohemiancoding.com/sketch -->
    <title>the-lovely-geek-logo</title>
    <desc>Created with Sketch.</desc>
    <defs></defs>
    <g id="Symbols" stroke="none" stroke-width="1" fill="none" fill-rule="evenodd">
        <g id="Header-/-Desktop-/-Left" transform="translate(-158.000000, -10.000000)">
            <g id="Header-/-Desktop">
                <g id="the-lovely-geek-logo" transform="translate(158.000000, 10.000000)">
                    <path d="M132.30314,102.799946 C131.430558,108.2095 112.825465,116.352625 92.5350698,116.352625 C57.8252093,116.352625 39.6276279,100.646875 23.5228605,94.7136429 C20.79,100.472571 16.255186,102.683232 12.5346279,102.683232 C5.38283721,102.683232 5.61537209,91.3396786 16.4301628,91.3396786 C17.6503953,91.3396786 18.8721628,91.455625 20.0931628,91.6882857 C20.499907,89.0714286 20.7324419,85.871 20.7324419,81.9157679 C20.7324419,80.9267679 20.7324419,74.1788393 20.79,73.2481964 C14.8024186,73.3649107 8.05813953,71.5604464 0.732139535,66.7329286 C-0.546418605,65.919 0.615488372,64.5222679 1.66304651,65.22025 C8.6974186,69.8742321 15.2083953,71.6188036 20.849093,71.5604464 C21.9534419,52.6558036 29.9187209,48.0018214 37.6506977,48.0018214 C51.3142326,48.0018214 43.6973721,68.8276429 25.9648605,72.6669286 L25.9648605,81.9157679 C25.9648605,86.3363214 25.3255814,89.8853571 24.3371163,92.734875 C41.4303488,98.3778571 60.5580698,113.443982 93.1743488,113.443982 C110.965186,113.443982 129.860372,107.976839 130.674628,102.392214 C131.08214,99.5995179 132.768209,99.8329464 132.30314,102.799946 L132.30314,102.799946 Z M19.7439767,93.6079286 C18.4646512,93.3169107 17.186093,93.2009643 15.9067674,93.2009643 C7.94225581,93.2009643 7.99981395,100.879536 13.1746744,100.879536 C16.1976279,100.879536 18.5222093,99.01825 19.7439767,93.6079286 L19.7439767,93.6079286 Z M26.023186,71.0375357 C41.9537442,67.6059821 48.6972558,49.8631071 37.3606047,49.8631071 C30.7905349,49.8631071 26.7200233,54.6330357 26.023186,71.0375357 L26.023186,71.0375357 Z" id="Fill-1" fill="#4D4D4D"></path>
                    <path d="M48.5821395,96.8651786 L48.5230465,96.8651786 C39.6283953,96.8651786 37.2439535,89.1866071 37.2439535,82.3227321 C37.2439535,74.1204821 42.7096744,67.9545893 48.6980233,67.9545893 L48.7555814,67.9545893 C57.6517674,67.9545893 60.0937674,75.6331607 60.0937674,82.4970357 C60.0937674,90.6992857 54.628814,96.8651786 48.5821395,96.8651786 L48.5821395,96.8651786 Z M48.9305581,69.7582857 C44.0465581,69.7582857 42.4771395,73.4808571 42.4771395,82.3227321 C42.4771395,91.2237321 43.7556977,95.1789643 48.3496047,95.1789643 L48.4079302,95.1789643 C53.2328372,95.1789643 54.8605814,91.455625 54.8605814,82.6721071 C54.8605814,73.771875 53.5236977,69.7582857 48.9305581,69.7582857 L48.9305581,69.7582857 Z" id="Fill-2" fill="#4D4D4D"></path>
                    <path d="M90.0938372,77.0874821 C87.4193023,79.705875 84.9197442,80.8684107 82.7102791,81.0434821 C81.0825349,90.1180179 76.837814,96.8651786 72.7097442,96.8651786 C67.2447907,96.8651786 63.6401163,90.4090357 63.5817907,79.6475179 L63.5817907,71.793875 C63.5817907,68.7109286 63.7567674,68.4782679 65.3845116,67.2566071 C68.5816744,64.8132857 68.7574186,67.6643393 68.7574186,72.8988214 L68.7574186,79.297375 C68.7574186,87.849 69.2800465,94.8295893 73.6406512,94.8295893 C76.1409767,94.8295893 78.9889535,88.6636964 80.2099535,80.8684107 C72.1280233,78.7744643 68.64,63.9402321 77.2453256,63.9402321 C80.2099535,63.9402321 83.3495581,67.897 83.3495581,73.5384464 C83.3495581,75.5755714 83.1753488,77.5528036 82.942814,79.4724464 C84.7447674,79.2397857 86.7800233,78.1924286 88.9894884,75.9817679 C90.0355116,74.9351786 91.1989535,75.9241786 90.0938372,77.0874821 L90.0938372,77.0874821 Z M80.3841628,79.297375 C80.6174651,77.4368571 80.7333488,75.4580893 80.7333488,73.5384464 C80.7333488,69.6991607 79.569907,65.6279821 77.2453256,65.6279821 C71.4887442,65.6279821 73.9890698,77.4952143 80.3841628,79.297375 L80.3841628,79.297375 Z" id="Fill-3" fill="#4D4D4D"></path>
                    <path d="M107.361279,87.1510179 C107.361279,91.6882857 105.035163,96.8651786 99.046814,96.8651786 C93.0592326,96.8651786 87.9426977,93.4912143 87.9426977,82.4970357 C87.9426977,73.3065536 91.1989535,67.9545893 99.6285349,67.9545893 C106.140279,67.9545893 111.779442,75.2845536 93.291,86.56975 C93.8143953,92.444625 95.6163488,95.0046607 99.6285349,95.0046607 C102.652256,95.0046607 104.395884,93.3752679 104.395884,89.827 C104.395884,88.7220536 103.465744,87.7906429 101.838,87.3260893 C99.8610698,86.7440536 100.210256,82.6721071 103.34986,82.6721071 C106.198605,82.6721071 107.361279,85.231375 107.361279,87.1510179 L107.361279,87.1510179 Z M93.1751163,82.4970357 C93.1751163,83.4276786 93.1751163,84.242375 93.2326744,85.0563036 C103.81493,78.3675 102.534837,69.5832143 98.6976279,69.5832143 C94.5703256,69.5832143 93.1751163,73.5975714 93.1751163,82.4970357 L93.1751163,82.4970357 Z" id="Fill-4" fill="#4D4D4D"></path>
                    <path d="M114.744837,67.9545893 L114.744837,82.4970357 C114.744837,92.2119643 115.268233,95.0046607 118.69793,95.0046607 C120.965721,95.0046607 123.466047,93.2009643 124.686279,84.7660536 C125.093791,81.974125 126.837419,82.2067857 126.314791,85.1737857 C124.744605,94.8295893 121.198256,96.8651786 118.174535,96.8651786 C113.582163,96.8651786 109.512419,94.422625 109.512419,82.4970357 L109.512419,67.9545893 C109.512419,65.9773571 109.627535,63.9993571 109.744953,62.1380714 C105.79186,62.3707321 101.430488,62.0205893 96.7214651,60.7413393 C95.2686977,60.3919643 95.9072093,58.7049821 97.1289767,59.0543571 C101.721349,60.2760179 106.023628,60.624625 109.860837,60.3336071 C111.488581,43.1151786 118.523721,31.3654286 126.663209,31.3654286 C143.175488,31.3654286 136.547093,56.4943214 114.919047,61.3809643 C114.803163,63.5340357 114.744837,65.6863393 114.744837,67.9545893 L114.744837,67.9545893 Z M114.977372,59.5780357 C134.628488,54.9240536 141.023581,33.2267143 126.372349,33.2267143 C119.45386,33.2267143 115.906744,44.4535536 114.977372,59.5780357 L114.977372,59.5780357 Z" id="Fill-5" fill="#4D4D4D"></path>
                    <path d="M147.94207,128.743536 C142.651326,128.743536 140.034349,123.682589 139.337512,106.114786 C130.500419,103.613875 117.592814,103.206143 99.5118837,107.394804 C98.2901163,107.627464 97.3607442,106.057196 98.8718372,105.707821 C116.895209,101.577518 130.092907,101.810179 139.22086,104.311857 C139.104977,100.937125 139.047419,97.1561964 139.047419,92.9107143 L139.047419,90.8152321 C137.477233,94.7136429 135.034465,96.8651786 131.953953,96.8651786 C126.894977,96.8651786 122.999442,94.6545179 122.941884,82.963125 L122.941884,71.793875 C122.941884,68.7109286 123.11686,68.4782679 124.744605,67.2566071 C128.000093,64.8132857 128.116744,67.6643393 128.116744,72.8988214 L128.116744,82.61375 C128.174302,92.09525 128.930233,95.1789643 132.825767,95.1789643 C136.082023,95.1789643 138.524023,89.4192679 139.047419,80.9267679 C139.047419,77.9597679 139.104977,72.8412321 139.104977,71.793875 C139.104977,68.7109286 139.279186,68.4782679 140.90693,67.2566071 C144.162419,64.8132857 144.27907,67.6643393 144.27907,72.8988214 C144.27907,74.4115 144.221512,80.1704286 144.221512,82.61375 C144.221512,82.7304643 144.27907,92.9107143 144.27907,92.9107143 L144.27907,105.998839 C160.965558,113.152964 159.105279,128.743536 147.94207,128.743536 L147.94207,128.743536 Z M144.27907,107.918482 C144.27907,122.169911 144.74414,126.88225 148.872209,126.88225 C157.243465,126.88225 158.291023,114.317036 144.27907,107.918482 L144.27907,107.918482 Z" id="Fill-6" fill="#4D4D4D"></path>
                    <path d="M160.034651,60.6829821 C158.640209,71.9689464 136.95307,78.1924286 129.977023,66.6162143 C129.511953,65.8022857 129.104442,64.9883571 128.872674,64.1153036 C115.442442,69.6415714 106.255395,58.7633393 114.976605,47.187125 C123.698581,35.5533214 138.290721,37.705625 149.278953,45.0348214 C180.093279,22.8138036 230.441302,33.6920357 220.615744,47.5948571 C216.954279,52.7725179 211.314349,50.1533571 212.535349,48.1185357 C213.698791,46.0238214 217.419349,47.9434643 218.582023,46.7809286 C228.175047,37.1827143 181.024186,24.3264821 150.790814,46.0821786 C152.418558,47.3038393 153.987977,48.6422143 155.383953,50.0381786 C158.349349,53.0044107 159.743791,55.8546964 160.034651,58.5314464 C161.198093,59.2286607 162.418326,59.9274107 163.639326,60.7413393 C168.872512,50.3875536 178.465535,46.0821786 185.26814,46.0238214 C212.826209,45.8495179 191.895767,80.9267679 166.488837,64.8132857 C165.675349,68.3615536 165.209512,72.6085714 165.209512,77.6111607 L165.209512,78.4258571 C165.26707,91.2237321 167.709837,95.1789643 172.535512,95.1789643 C176.54693,95.1789643 178.233,91.9209464 178.756395,88.838 C178.813953,88.1400179 178.813953,87.209375 178.813953,86.1044286 C178.813953,83.0207143 179.046488,82.7304643 180.616674,81.5080357 C183.872163,79.0654821 184.04714,81.974125 184.04714,87.1510179 C184.04714,91.3972679 183.930488,90.1180179 183.930488,90.1756071 C183.756279,107.743411 175.850093,112.862714 167.767395,112.862714 C158.814419,112.862714 157.477535,101.053839 162.942488,98.4938036 C167.128116,96.5173393 169.105047,101.2865 165.326163,102.217911 C159.97786,103.497161 161.198093,111.234089 168.697535,111.234089 C174.337465,111.234089 178.174674,106.639232 178.697302,93.0258929 C177.186977,95.2365536 174.919186,96.8651786 171.604605,96.8651786 C165.675349,96.8651786 160.092977,93.7822321 159.97786,78.7744643 L159.97786,77.7862321 C159.97786,71.7362857 161.081442,66.6162143 162.884163,62.4290893 C161.896465,61.7886964 160.965558,61.2066607 160.034651,60.6829821 L160.034651,60.6829821 Z M128.464395,62.25325 C127.825884,56.6118036 131.778977,50.79375 141.604535,51.7243929 C143.581465,49.5728571 145.731837,47.6532143 147.999628,45.9662321 C138.63914,39.7995714 125.208907,36.4839643 116.779326,47.7108036 C109.454093,57.4257321 116.837651,67.0239464 128.464395,62.25325 L128.464395,62.25325 Z M130.383767,61.323375 C133.523372,59.69475 136.837953,57.0187679 140.266884,53.121125 C140.325977,53.121125 140.325977,53.121125 140.325977,53.0627679 C132.999977,52.7133929 130.325442,57.1930714 130.383767,61.323375 L130.383767,61.323375 Z M158.058488,59.5196786 C151.663395,55.8546964 146.604419,53.9926429 142.651326,53.3537857 C142.361233,53.5864464 142.128698,53.8774643 141.894628,54.1684821 C138.058953,58.5314464 134.220977,61.4976786 130.616302,63.3006071 C130.849605,64.1728929 131.140465,64.9883571 131.546442,65.6279821 C138.406605,76.9131786 157.593419,69.9901786 158.058488,59.5196786 L158.058488,59.5196786 Z M149.570581,47.0135893 C147.592884,48.5255 145.675047,50.2124821 143.872326,52.0154107 C147.76786,52.7133929 152.418558,54.4011429 157.883512,57.367375 C157.477535,55.2734286 156.31486,53.0627679 154.105395,50.852875 C152.826837,49.5728571 151.255884,48.2344821 149.570581,47.0135893 L149.570581,47.0135893 Z M166.953907,62.952 C189.977163,78.4258571 210.267558,47.7108036 184.977279,47.8851071 C178.117116,47.9434643 170.384372,51.0264107 166.953907,62.952 L166.953907,62.952 Z" id="Fill-7" fill="#4D4D4D"></path>
                    <path d="M207.070395,87.1510179 C207.070395,91.6882857 204.744279,96.8651786 198.75593,96.8651786 C192.768349,96.8651786 187.651047,93.4912143 187.651047,82.4970357 C187.651047,73.3065536 190.90807,67.9545893 199.337651,67.9545893 C205.848628,67.9545893 211.489326,75.2845536 193.000116,86.56975 C193.523512,92.444625 195.325465,95.0046607 199.337651,95.0046607 C202.361372,95.0046607 204.105,93.3752679 204.105,89.827 C204.105,88.7220536 203.17486,87.7906429 201.547116,87.3260893 C199.570186,86.7440536 199.919372,82.6721071 203.058209,82.6721071 C205.907721,82.6721071 207.070395,85.231375 207.070395,87.1510179 L207.070395,87.1510179 Z M192.885,82.4970357 C192.885,83.4276786 192.885,84.242375 192.941791,85.0563036 C203.523279,78.3675 202.244721,69.5832143 198.407512,69.5832143 C194.278674,69.5832143 192.885,73.5975714 192.885,82.4970357 L192.885,82.4970357 Z" id="Fill-8" fill="#4D4D4D"></path>
                    <path d="M228.523465,87.1510179 C228.523465,91.6882857 226.198116,96.8651786 220.209767,96.8651786 C214.220651,96.8651786 209.104116,93.4912143 209.104116,82.4970357 C209.104116,73.3065536 212.360372,67.9545893 220.791488,67.9545893 C227.302465,67.9545893 232.941628,75.2845536 214.453953,86.56975 C214.977349,92.444625 216.779302,95.0046607 220.791488,95.0046607 C223.815209,95.0046607 225.55807,93.3752679 225.55807,89.827 C225.55807,88.7220536 224.628698,87.7906429 223.000953,87.3260893 C221.024023,86.7440536 221.371674,82.6721071 224.512047,82.6721071 C227.360023,82.6721071 228.523465,85.231375 228.523465,87.1510179 L228.523465,87.1510179 Z M214.337302,82.4970357 C214.337302,83.4276786 214.337302,84.242375 214.395628,85.0563036 C224.976349,78.3675 223.697791,69.5832143 219.860581,69.5832143 C215.732512,69.5832143 214.337302,73.5975714 214.337302,82.4970357 L214.337302,82.4970357 Z" id="Fill-9" fill="#4D4D4D"></path>
                    <path d="M263.639302,85.1737857 C262.069884,94.8295893 258.523535,96.8651786 255.442256,96.8651786 C250.849116,96.8651786 246.838465,94.5385714 246.838465,86.8024107 L246.838465,86.56975 C246.838465,81.0434821 247.302767,78.6001607 243.871535,78.6001607 C240.906907,78.6001607 236.023674,84.3590893 236.023674,93.2009643 L236.023674,93.3752679 C235.849465,96.8068214 233.989186,97.04025 231.721395,96.8651786 C229.861116,96.6916429 230.732163,95.8185893 230.732163,91.5723393 C230.732163,87.0350714 230.791256,72.9571786 230.791256,65.6863393 L230.791256,65.3953214 C225.965581,64.9883571 220.325651,63.9402321 213.755581,62.1380714 C212.302814,61.7303393 212.942093,60.0433571 214.163093,60.3919643 C220.674837,62.3116071 226.198116,63.3589643 230.848814,63.7666964 C231.313884,45.5001429 238.291465,41.0795893 243.174698,41.0795893 C257.244977,41.0795893 264.047581,65.4529107 236.023674,65.6279821 L236.023674,65.6863393 C236.023674,70.0493036 235.965349,74.8768214 235.965349,80.4614464 C238.291465,72.6669286 243.465558,67.3149643 247.011907,66.4419107 C253.464558,64.8132857 252.767721,72.8412321 247.651953,70.6889286 C243.058047,68.7692857 238.640651,75.2845536 237.011372,82.3227321 C239.164047,78.716875 242.187,76.7964643 244.453256,76.7964643 C248.988837,76.7964643 252.012558,78.8328214 252.012558,86.56975 L252.012558,86.8024107 C252.012558,92.3286786 252.592744,95.0630179 256.023209,95.0630179 C258.232674,95.0630179 260.791326,93.2009643 262.011558,84.7660536 C262.41907,81.974125 264.105907,82.2651429 263.639302,85.1737857 L263.639302,85.1737857 Z M236.023674,63.9993571 C260.209605,63.6499821 254.744651,42.9416429 242.825512,42.9416429 C239.046628,42.9416429 236.255442,47.6532143 236.023674,63.9993571 L236.023674,63.9993571 Z" id="Fill-10" fill="#4D4D4D"></path>
                    <path d="M65.3914186,48.4272143 C65.3914186,48.4272143 65.3016279,48.7059464 65.1335581,49.2280893 C64.9654884,49.745625 64.6669535,50.5273036 64.1826977,51.4556429 C63.6754186,52.3724643 62.9609302,53.4774107 61.8059302,54.5055714 C60.6639767,55.5298929 59.0523488,56.4390357 57.1429535,56.829875 C55.2389302,57.2091964 53.1077442,57.0748214 51.0471628,56.4712857 L50.6573023,56.3607143 L50.5583023,56.3307679 L50.5130233,56.3146429 L50.4247674,56.281625 L50.2459535,56.2148214 C50.0080465,56.1219107 49.7693721,56.029 49.5283953,55.9360893 C49.0410698,55.7249286 48.4746977,55.4331429 47.9743256,55.1567143 C46.9843256,54.5623929 46.0557209,53.8098929 45.2468372,52.9299286 C43.6513256,51.1231607 42.7188837,48.7804286 42.5477442,46.3877857 C42.4594884,45.1906964 42.5124419,43.9805536 42.682814,42.7819286 L42.834,41.8866071 C42.8539535,41.7522321 42.8969302,41.5510536 42.8992326,41.4719643 L42.9598605,41.0365893 L43.1732093,39.2874107 C43.3297674,38.1195 43.4218605,36.9523571 43.5124186,35.7959643 C43.5699767,35.2200714 43.6275349,34.6449464 43.6843256,34.072125 L43.6904651,34.018375 C43.6866279,34.0383393 43.7019767,33.9362143 43.6827907,34.056 L43.6843256,34.0283571 L43.6927674,33.9200893 C43.7065814,33.8171964 43.6827907,33.8694107 43.6858605,33.8440714 L43.6497907,33.588375 C43.6137209,33.3656964 43.5431163,33.093875 43.4963023,32.6753929 C43.480186,32.4580893 43.4579302,32.2054643 43.533907,31.8422679 C43.5945349,31.5021071 43.8247674,31.0398571 44.1463256,30.7603571 C44.3105581,30.6006429 44.457907,30.5184821 44.6206047,30.4232679 C44.7111628,30.3833393 44.5024186,30.4639643 44.8393256,30.32575 L44.8646512,30.3165357 L44.9145349,30.2973393 L45.0150698,30.2597143 L45.2161395,30.1836964 C45.3450698,30.1491429 45.5246512,30.1168929 45.6812093,30.0961607 C45.837,30.0769643 46.0234884,30.0585357 46.1539535,30.0639107 L46.5069767,30.0961607 C46.7571628,30.1168929 46.9413488,30.1721786 47.1393488,30.223625 C47.5261395,30.3280536 47.8407907,30.4593571 48.1170698,30.5722321 C48.6872791,30.8141071 49.0648605,30.9538571 49.6258605,31.1627143 C50.1477209,31.3569821 50.6642093,31.5504821 51.1776279,31.7424464 C52.1845116,32.1194643 53.1737442,32.4895714 54.1422558,32.852 C55.1222791,33.1783393 56.0815814,33.497 57.0155581,33.8079821 C57.5236047,34.0053214 58.0554419,34.2356786 58.5443023,34.4583571 C59.0139767,34.7102143 59.4897907,34.9236786 59.9249302,35.2070179 C60.805186,35.7452857 61.6063953,36.3541964 62.2871163,37.0375893 C63.6777209,38.3728929 64.6116977,39.9239643 65.1443023,41.3598571 C65.683814,42.8049643 65.8257907,44.1187679 65.8442093,45.1730357 C65.8234884,45.703625 65.8273256,46.17125 65.7536512,46.5736071 C65.7014651,46.9775 65.6623256,47.3191964 65.5871163,47.5887143 L65.3929535,48.4218393 L65.3914186,48.4272143 L65.3914186,48.4272143 Z M65.0974884,48.3366071 C65.0974884,48.3358393 65.1527442,48.0548036 65.2578837,47.5265179 C65.3300233,47.2654464 65.3300233,46.9306607 65.3522791,46.5428929 C65.3983256,46.155125 65.3269535,45.7082321 65.2816744,45.2160357 C65.1174419,44.2393214 64.7183721,43.0813929 63.9263721,41.9971786 C63.1458837,40.9045179 62.0077674,39.9132143 60.6647442,39.0516786 C59.9986047,38.6124643 59.2495814,38.23775 58.4813721,37.8553571 C58.0984186,37.662625 57.6824651,37.5105893 57.2795581,37.3255357 C56.8743488,37.1811786 56.4622326,37.0345179 56.0455116,36.8863214 C55.5758372,36.7481071 55.1000233,36.6075893 54.6173023,36.4655357 C54.093907,36.2989107 53.5651395,36.13075 53.0294651,35.9602857 C52.0041628,35.57175 50.9734884,35.1594107 49.9857907,34.7040714 C49.4838837,34.4821607 48.9781395,34.2587143 48.4685581,34.0337321 C47.9950465,33.8333214 47.3442558,33.5254107 46.893,33.2889107 C46.6566279,33.1698929 46.450186,33.0716071 46.2936279,33.0163214 C46.219186,32.9894464 46.134,32.9518214 46.0986977,32.9533571 C46.074907,32.94875 46.0518837,32.9410714 46.0288605,32.9318571 C46.0165814,32.9280179 46.0603256,32.9356964 46.074907,32.9234107 C46.0894884,32.9165 46.1255581,32.8880893 46.1155814,32.8750357 L45.9091395,32.9364643 L45.8063023,32.9671786 L45.7556512,32.9825357 L45.7295581,32.9894464 L45.903,32.9195714 C45.9436744,32.900375 45.9582558,32.8765714 46.0234884,32.825125 C46.1240233,32.7291429 46.2176512,32.5364107 46.2176512,32.4749821 C46.2222558,32.3912857 46.206907,32.4304464 46.2053721,32.5003214 C46.2007674,32.6561964 46.239907,32.9510536 46.2667674,33.3035 C46.2775116,33.4908571 46.2859535,33.6697679 46.2752093,33.9131786 C46.2683023,34.0314286 46.2514186,34.2303036 46.2383721,34.2694643 L46.219186,34.3761964 L46.1961628,34.4944464 L46.1831163,34.5474286 C46.0442093,35.1171786 45.9037674,35.6876964 45.764093,36.2605179 C45.4693953,37.4015536 45.1693256,38.5402857 44.8124651,39.6559821 L44.3082558,41.3398929 L44.1893023,41.7614464 C44.1355814,41.9687679 44.101814,42.0493929 44.0565349,42.199125 L43.8055814,43.005375 C43.5369767,44.0949643 43.4095814,45.2152679 43.4809535,46.3156071 C43.5661395,48.541625 44.761814,50.5395893 46.3611628,51.7359107 C47.1853953,52.3233214 48.0702558,52.761 48.972,53.1003929 C49.4309302,53.2570357 49.8253953,53.3852679 50.3073488,53.5173393 C50.5583023,53.5818393 50.806186,53.6455714 51.0525349,53.7085357 L51.2374884,53.7584464 L51.3748605,53.7960714 C51.4285814,53.8121964 51.3272791,53.7814821 51.3449302,53.7860893 L51.3664186,53.7906964 L51.7125349,53.8575 C53.5421163,54.2468036 55.2565814,54.4333929 56.8367442,54.395 C58.4123023,54.3512321 59.8635349,54.0202857 61.0576744,53.4228929 C62.257186,52.8316429 63.1435814,51.9724107 63.742186,51.1784464 C64.3208372,50.3568393 64.6485349,49.6458036 64.8304186,49.1275 C64.9977209,48.633 65.0890465,48.3611786 65.0974884,48.3366071 L65.0974884,48.3366071 Z" id="Fill-11" fill="#4D4D4D"></path>
                    <path d="M74.6705581,51.648375 C74.6705581,51.648375 74.6091628,51.9340179 74.4909767,52.4692143 C74.3804651,53.0074821 74.2929767,53.7853214 74.3651163,54.787375 C74.4694884,55.776375 74.7864419,56.9703929 75.5086047,58.0960714 C76.223093,59.2240536 77.2952093,60.2575893 78.6221163,61.1068393 C79.9559302,61.9560893 81.5207442,62.6809464 83.2896977,63.2921607 L83.6204651,63.4127143 L83.6404186,63.4211607 C83.6588372,63.4265357 83.556,63.3996607 83.6104884,63.41425 L83.6565349,63.4265357 L83.7478605,63.4526429 L83.9312791,63.5048571 C84.1753256,63.5785714 84.4216744,63.6515179 84.6687907,63.726 C85.1499767,63.8626786 85.5528837,63.9555893 86.0271628,64.0577143 C86.9757209,64.2335536 87.958814,64.3141786 88.968,64.236625 C90.9541395,64.03775 93.0085814,62.9435536 94.2303488,61.0807321 C94.8581163,60.1754286 95.3277907,59.1503393 95.6585581,58.0784107 L95.8596279,57.2575714 C95.8987674,57.1055357 95.9102791,57.0195357 95.9716744,56.8145179 L96.0875581,56.3906607 L96.5219302,54.6883214 C96.7936047,53.5495893 97.1236047,52.4185357 97.4589767,51.28825 C97.6347209,50.7254107 97.8096977,50.164875 97.983907,49.6051071 L98.0000233,49.5528929 L98.0414651,49.4400179 L98.0790698,49.3378929 C98.0890465,49.2979643 98.1773023,49.1190536 98.2325581,49.0138571 C98.3476744,48.8003929 98.4474419,48.6506607 98.5548837,48.4963214 C98.7582558,48.208375 98.9439767,47.9757143 99.0207209,47.8398036 C99.0552558,47.7799107 99.0613953,47.7376786 99.0237907,47.8136964 C98.9915581,47.8651429 98.9723721,48.079375 99.0092093,48.2122143 C99.0383721,48.2913036 99.0391395,48.3181786 99.0644651,48.3565714 L99.1757442,48.5055357 L99.1573256,48.4855714 L99.1212558,48.4456429 L99.0491163,48.3665536 L98.9040698,48.208375 C98.8887209,48.21375 98.9040698,48.25675 98.9140465,48.2705714 C98.9194186,48.2882321 98.9616279,48.3035893 98.9493488,48.3012857 C98.9240233,48.2974464 98.9002326,48.2920714 98.8772093,48.283625 C98.848814,48.2636607 98.755186,48.2521429 98.6776744,48.2360179 C98.5157442,48.203 98.287814,48.1807321 98.023814,48.1615357 C97.5157674,48.1292857 96.8005116,48.057875 96.2901628,47.9856964 C95.7383721,47.9150536 95.1896512,47.8451786 94.6455349,47.7760714 C93.5649767,47.6562857 92.4690698,47.477375 91.3900465,47.2815714 C90.8443953,47.1510357 90.3033488,47.0220357 89.7692093,46.8945714 C89.2834186,46.767875 88.803,46.6419464 88.3287209,46.5175536 C87.8951163,46.4300179 87.4668837,46.3424821 87.0455581,46.25725 C86.6050465,46.2081071 86.169907,46.1236429 85.7432093,46.090625 C84.8875116,46.0215179 84.0525349,45.95625 83.2551628,45.9892679 C81.6604186,46.0330357 80.1731163,46.294875 78.942907,46.8277679 C77.7057907,47.348375 76.7656744,48.133125 76.1217907,48.885625 C75.8293953,49.2841429 75.5377674,49.6296786 75.3773721,49.9859643 C75.1962558,50.3291964 75.0235814,50.616375 74.9506744,50.8774464 C74.7672558,51.385 74.6697907,51.6552857 74.6697907,51.6552857 L74.6705581,51.648375 L74.6705581,51.648375 Z M74.3743256,51.573125 C74.3735581,51.573125 74.4656512,51.2905536 74.6367907,50.7607321 C74.7112326,50.4904464 74.8539767,50.1779286 75.0174419,49.80475 C75.1609535,49.4215893 75.4065349,49.0238393 75.6628605,48.5592857 C76.2207907,47.6647321 77.0212326,46.6127679 78.2276512,45.6537143 C79.4248605,44.6985 81.0249767,43.8515536 82.9044419,43.4253929 C83.8399535,43.1911964 84.8399302,43.0836964 85.8721395,43.0775536 C86.3893953,43.059125 86.908186,43.1213214 87.4400233,43.1481964 C87.9741628,43.209625 88.5497442,43.2871786 89.086186,43.3808571 C90.0462558,43.5958571 91.0316512,43.8177679 92.0408372,44.0442857 C93.0569302,44.2339464 94.0952791,44.4274464 95.1505116,44.6240179 C95.6900233,44.7246071 96.2326047,44.8259643 96.7797907,44.9280893 C97.3676512,45.0394286 97.7628837,45.1139107 98.3768372,45.2014464 C98.6715349,45.2482857 99.0092093,45.2974286 99.3936977,45.408 C99.5901628,45.4655893 99.7766512,45.5139643 100.001512,45.6260714 L100.32,45.7804107 C100.434349,45.8426071 100.584,45.9539464 100.709093,46.0514643 C100.831884,46.14975 100.969256,46.2703036 101.062116,46.3662857 L101.194884,46.5344464 L101.261651,46.6189107 L101.294651,46.6611429 L101.311535,46.681875 C101.528721,46.9744286 101.392116,46.7970536 101.448907,46.8784464 C101.538698,47.0435357 101.623116,47.1901964 101.680674,47.4121071 C101.812674,47.8167679 101.772767,48.3327679 101.647674,48.6545 C101.526419,49.0061786 101.377535,49.2111964 101.250907,49.3878036 C100.996116,49.7225893 100.794279,49.9191607 100.648465,50.0911607 L100.485,50.2923393 C100.475023,50.315375 100.48193,50.2585536 100.440488,50.3537679 L100.39214,50.4512857 L100.37986,50.4750893 C100.423605,50.3622143 100.385233,50.4581964 100.39214,50.439 L100.369116,50.4881429 C100.122,51.00875 99.8748837,51.530125 99.6277674,52.0530357 C99.1097442,53.0911786 98.5863488,54.1377679 98.1182093,55.2189107 L97.3991163,56.8275714 L97.2264419,57.2314643 C97.1865349,57.3005714 97.1205349,57.4956071 97.0683488,57.6207679 L96.7360465,58.4661786 C96.2633023,59.5811071 95.6846512,60.6445893 94.9916512,61.6236071 C93.6110233,63.5854821 91.6056977,65.1112143 89.3064419,65.8353036 C88.1606512,66.171625 86.9772558,66.3367143 85.8214884,66.3344107 C85.2505116,66.3136786 84.6150698,66.2714464 84.0886047,66.2000357 C83.8345814,66.1555 83.582093,66.1125 83.3303721,66.0687321 L83.1431163,66.0334107 L83.0502558,66.01575 L83.0034419,66.0065357 L82.9021395,65.9811964 L82.5115116,65.8752321 C80.4355814,65.3285179 78.5407674,64.3433571 77.1048837,63.0349286 C75.6713023,61.7149821 74.7595814,60.1047857 74.309093,58.6381786 C73.8493953,57.1600536 73.807186,55.8454821 73.8455581,54.798125 C73.9100233,53.7523036 74.0566047,52.9283929 74.1793953,52.3985714 C74.3052558,51.8649107 74.3727907,51.5800357 74.3727907,51.5800357 L74.3743256,51.573125 L74.3743256,51.573125 Z" id="Fill-12" fill="#4D4D4D"></path>
                    <path d="M65.1757674,47.144125 C65.1757674,47.144125 69.6468837,47.7530357 70.732814,48.0693929 C71.6583488,48.3381429 75.3205814,49.966 75.3205814,49.966" id="Stroke-13" stroke="#4D4D4D" stroke-width="4"></path>
                    <path d="M122.267302,4.31535714 C123.784535,13.9450536 124.426116,26.6669107 102.610814,26.6669107 L98.1780698,26.6669107 C81.7294884,26.6669107 76.9460233,27.7173393 77.5292791,31.2195357 C78.2882791,35.9464643 73.6222326,33.37875 73.0389767,29.8181964 C71.5217442,20.1892679 70.8801628,7.46664286 92.6954651,7.46664286 C93.2203953,7.46664286 96.4275349,7.525 97.1274419,7.525 C113.576791,7.525 118.359488,6.41621429 117.776233,2.91401786 C116.959674,-1.81291071 121.684047,0.755571429 122.267302,4.31535714" id="Fill-16" fill="#3CA8B2"></path>
                    <path d="M92.5396744,13.0758393 C92.2772093,13.4351964 92.2219535,13.5043036 91.5174419,13.5043036 C91.0339535,13.5043036 90.3708837,13.4904821 89.6517907,13.4490179 C89.6663721,13.5595893 89.6663721,13.6978036 89.6663721,13.8774821 C89.5973023,16.39375 89.1268605,22.2010536 88.8229535,22.2978036 C88.5182791,22.408375 88.4085349,21.9515 88.4085349,21.3848214 C88.4085349,20.7905 88.4215814,14.9140893 88.4215814,14.1400893 C88.4215814,13.8498393 88.4215814,13.5872321 88.4353953,13.3660893 C86.8744186,13.2555179 85.423186,13.0896607 85.3541163,12.9238036 C85.258186,12.6335536 85.6726047,12.5229821 86.2113488,12.4945714 C86.7915349,12.48075 90.5082558,12.3563571 91.2411628,12.3433036 C92.4153488,12.3010714 93.079186,12.3294821 92.5396744,13.0758393" id="Fill-17" fill="#FFFFFF"></path>
                    <path d="M100.248628,13.3799107 C100.178791,15.8961786 99.7083488,21.9515 99.4190233,22.04825 C99.1151163,22.145 99.0046047,21.7027143 99.0046047,21.1360357 L99.0046047,17.2783214 C98.7835814,17.5823929 98.6868837,17.6522679 98.0376279,17.6522679 C97.0146279,17.6522679 95.8266279,17.4994643 95.0668605,17.334375 C94.8865116,19.6840179 94.6378605,21.9929643 94.4582791,22.04825 C94.1536047,22.145 94.0438605,21.7027143 94.0438605,21.1360357 L94.0438605,13.6425179 C94.0438605,12.3978214 94.0845349,11.7205714 94.8588837,12.3010714 C95.2318605,12.5913214 95.3147442,12.647375 95.2871163,13.3799107 C95.2733023,14.195375 95.205,15.3709643 95.1213488,16.58725 C95.7023023,16.5734286 97.0284419,16.4905 97.7605814,16.4766786 C98.3131395,16.4628571 98.755186,16.4490357 99.0046047,16.5319643 L99.0046047,13.6425179 C99.0046047,12.3978214 99.0460465,11.7205714 99.8196279,12.3010714 C100.192605,12.5913214 100.275488,12.647375 100.248628,13.3799107" id="Fill-18" fill="#FFFFFF"></path>
                    <path d="M108.688953,21.6336071 C108.453349,22.0206071 108.398093,22.145 107.707395,22.145 C105.800302,22.145 103.243953,22.0206071 102.456558,22.04825 C102.151884,22.0620714 102.055953,21.6888929 102.055953,21.1360357 C102.055953,20.5278929 102.069767,14.4165179 102.069767,13.6425179 C102.069767,12.3978214 102.111209,11.7205714 102.884791,12.3010714 C102.981488,12.3701786 103.050558,12.4400536 103.119628,12.4945714 C103.879395,12.4676964 106.642953,12.3563571 107.333651,12.3294821 C108.508605,12.3010714 109.15786,12.3156607 108.633698,13.0758393 C108.371233,13.4351964 108.315209,13.5043036 107.610698,13.5043036 C106.422698,13.5043036 104.529419,13.3799107 103.313023,13.2140536 L103.313023,13.3799107 C103.285395,14.195375 103.216326,15.3709643 103.133442,16.58725 C103.714395,16.5734286 105.040535,16.4905 105.786488,16.4766786 C106.94686,16.4490357 107.610698,16.4628571 107.071186,17.2099821 C106.809488,17.5823929 106.753465,17.6522679 106.062767,17.6522679 C105.026721,17.6522679 103.851767,17.4994643 103.078186,17.334375 C102.95386,19.0344107 102.787326,20.7213929 102.63614,21.5368571 C102.760465,21.5092143 102.898605,21.4815714 103.035977,21.46775 C103.61693,21.4124643 106.602279,21.08075 107.333651,20.9978214 C108.508605,20.8734286 109.15786,20.8457857 108.688953,21.6336071" id="Fill-19" fill="#FFFFFF"></path>
                </g>
            </g>
        </g>
    </g>
</svg>